G04*
G04 #@! TF.GenerationSoftware,Altium Limited,Altium Designer,18.0.9 (584)*
G04*
G04 Layer_Color=16711935*
%FSLAX43Y43*%
%MOMM*%
G71*
G01*
G75*
%ADD10C,0.254*%
%ADD16C,0.178*%
%ADD24R,1.727X1.727*%
%ADD25R,1.727X1.727*%
%ADD29C,6.553*%
%ADD30R,1.778X1.778*%
%ADD31C,1.727*%
%ADD32R,2.235X2.235*%
%ADD33C,2.235*%
%ADD34C,1.778*%
%ADD35C,4.203*%
%ADD36R,1.703X1.703*%
%ADD37C,1.703*%
%ADD38C,2.203*%
%ADD39O,2.235X4.013*%
%ADD40C,1.473*%
D10*
X127Y76073D02*
X127Y127D01*
X228473D01*
X228473Y76073D02*
X228473Y127D01*
X127Y76073D02*
X228473D01*
D16*
X34163Y26924D02*
Y26077D01*
X34332Y25908D01*
X34671D01*
X34840Y26077D01*
Y26924D01*
X35179Y25908D02*
X35517D01*
X35348D01*
Y26924D01*
X35179Y26754D01*
X36025Y25908D02*
X36364D01*
X36194D01*
Y26924D01*
X36025Y26754D01*
X85090Y26924D02*
Y26077D01*
X85259Y25908D01*
X85598D01*
X85767Y26077D01*
Y26924D01*
X86783Y25908D02*
X86106D01*
X86783Y26585D01*
Y26754D01*
X86614Y26924D01*
X86275D01*
X86106Y26754D01*
X87121Y25908D02*
X87460D01*
X87291D01*
Y26924D01*
X87121Y26754D01*
X133858Y26924D02*
Y26077D01*
X134027Y25908D01*
X134366D01*
X134535Y26077D01*
Y26924D01*
X134874Y26754D02*
X135043Y26924D01*
X135382D01*
X135551Y26754D01*
Y26585D01*
X135382Y26416D01*
X135212D01*
X135382D01*
X135551Y26247D01*
Y26077D01*
X135382Y25908D01*
X135043D01*
X134874Y26077D01*
X135889Y25908D02*
X136228D01*
X136059D01*
Y26924D01*
X135889Y26754D01*
D24*
X66675Y16637D02*
D03*
Y20066D02*
D03*
X123063Y70104D02*
D03*
Y66675D02*
D03*
X148463Y69850D02*
D03*
Y66421D02*
D03*
X127000Y19177D02*
D03*
Y22606D02*
D03*
X143383Y33655D02*
D03*
Y30226D02*
D03*
X71882Y69723D02*
D03*
Y66294D02*
D03*
X97282Y70358D02*
D03*
Y66929D02*
D03*
X78613Y19177D02*
D03*
Y22606D02*
D03*
X94361Y33655D02*
D03*
Y30226D02*
D03*
X20955Y68961D02*
D03*
Y65532D02*
D03*
X46228Y69342D02*
D03*
Y65913D02*
D03*
X28575Y19177D02*
D03*
Y22606D02*
D03*
X42799Y33655D02*
D03*
Y30226D02*
D03*
X60452Y10160D02*
D03*
Y13589D02*
D03*
X102997Y37338D02*
D03*
Y33909D02*
D03*
X112649Y43180D02*
D03*
Y39751D02*
D03*
X167386Y31750D02*
D03*
Y35179D02*
D03*
X167259Y48641D02*
D03*
Y52070D02*
D03*
X200025Y41021D02*
D03*
Y44450D02*
D03*
D25*
X148463Y60833D02*
D03*
X97409D02*
D03*
X46355D02*
D03*
D29*
X223520Y5080D02*
D03*
X5080D02*
D03*
Y71120D02*
D03*
X223520D02*
D03*
D30*
X62992Y16764D02*
D03*
X60452D02*
D03*
X57912D02*
D03*
X107569Y37338D02*
D03*
X110109D02*
D03*
X112649D02*
D03*
D31*
X60452Y34544D02*
D03*
X110109Y19558D02*
D03*
X135763Y60833D02*
D03*
X123063D02*
D03*
X118043D02*
D03*
X84709D02*
D03*
X72009D02*
D03*
X66989D02*
D03*
X33655D02*
D03*
X20955D02*
D03*
X15935D02*
D03*
D32*
X60071Y43434D02*
D03*
X109728Y49530D02*
D03*
X207391Y46101D02*
D03*
D33*
X60071Y48514D02*
D03*
X109728Y44450D02*
D03*
X207391Y41021D02*
D03*
X35431Y7114D02*
D03*
X85597D02*
D03*
X135763D02*
D03*
D34*
X148463Y44069D02*
D03*
Y46609D02*
D03*
Y49149D02*
D03*
X97409Y44069D02*
D03*
Y46609D02*
D03*
Y49149D02*
D03*
X45974Y44196D02*
D03*
Y46736D02*
D03*
Y49276D02*
D03*
D35*
X38731Y3814D02*
D03*
Y10414D02*
D03*
X32131D02*
D03*
Y3814D02*
D03*
X82297Y10414D02*
D03*
Y3814D02*
D03*
X88897D02*
D03*
Y10414D02*
D03*
X132463D02*
D03*
Y3814D02*
D03*
X139063D02*
D03*
Y10414D02*
D03*
D36*
X31877Y30226D02*
D03*
X82804D02*
D03*
X131572D02*
D03*
D37*
X31877Y27686D02*
D03*
Y25146D02*
D03*
Y22606D02*
D03*
X39497Y30226D02*
D03*
Y27686D02*
D03*
Y25146D02*
D03*
Y22606D02*
D03*
X82804Y27686D02*
D03*
Y25146D02*
D03*
Y22606D02*
D03*
X90424Y30226D02*
D03*
Y27686D02*
D03*
Y25146D02*
D03*
Y22606D02*
D03*
X131572Y27686D02*
D03*
Y25146D02*
D03*
Y22606D02*
D03*
X139192Y30226D02*
D03*
Y27686D02*
D03*
Y25146D02*
D03*
Y22606D02*
D03*
D38*
X174879Y31710D02*
D03*
Y41910D02*
D03*
Y52110D02*
D03*
X195179Y44410D02*
D03*
Y39310D02*
D03*
Y31710D02*
D03*
D39*
X218186Y50292D02*
D03*
X222148D02*
D03*
X218186Y36830D02*
D03*
X222148D02*
D03*
D40*
X62992Y25400D02*
D03*
X60452D02*
D03*
X57912D02*
D03*
Y27940D02*
D03*
X60452D02*
D03*
X62992D02*
D03*
Y30480D02*
D03*
X60452D02*
D03*
X57912D02*
D03*
X107569Y28702D02*
D03*
X110109D02*
D03*
X112649D02*
D03*
Y26162D02*
D03*
X110109D02*
D03*
X107569D02*
D03*
Y23622D02*
D03*
X110109D02*
D03*
X112649D02*
D03*
M02*
