G04*
G04 #@! TF.GenerationSoftware,Altium Limited,Altium Designer,18.0.9 (584)*
G04*
G04 Layer_Color=32896*
%FSLAX43Y43*%
%MOMM*%
G71*
G01*
G75*
%ADD10C,0.254*%
%ADD15C,0.305*%
%ADD16C,0.178*%
D10*
X72035Y73177D02*
X72289Y73431D01*
X72796D01*
X73050Y73177D01*
Y72161D01*
X72796Y71907D01*
X72289D01*
X72035Y72161D01*
X70511Y71907D02*
X71527D01*
X70511Y72923D01*
Y73177D01*
X70765Y73431D01*
X71273D01*
X71527Y73177D01*
X68988Y73431D02*
X69496Y73177D01*
X70003Y72669D01*
Y72161D01*
X69749Y71907D01*
X69242D01*
X68988Y72161D01*
Y72415D01*
X69242Y72669D01*
X70003D01*
X97435Y73812D02*
X97689Y74066D01*
X98196D01*
X98450Y73812D01*
Y72796D01*
X98196Y72542D01*
X97689D01*
X97435Y72796D01*
X95911Y72542D02*
X96927D01*
X95911Y73558D01*
Y73812D01*
X96165Y74066D01*
X96673D01*
X96927Y73812D01*
X94388Y74066D02*
X95403D01*
Y73304D01*
X94896Y73558D01*
X94642D01*
X94388Y73304D01*
Y72796D01*
X94642Y72542D01*
X95149D01*
X95403Y72796D01*
X21108Y72415D02*
X21362Y72669D01*
X21869D01*
X22123Y72415D01*
Y71399D01*
X21869Y71145D01*
X21362D01*
X21108Y71399D01*
X20600Y71145D02*
X20092D01*
X20346D01*
Y72669D01*
X20600Y72415D01*
X18315Y72669D02*
X18822Y72415D01*
X19330Y71907D01*
Y71399D01*
X19076Y71145D01*
X18569D01*
X18315Y71399D01*
Y71653D01*
X18569Y71907D01*
X19330D01*
X46381Y72796D02*
X46635Y73050D01*
X47142D01*
X47396Y72796D01*
Y71780D01*
X47142Y71526D01*
X46635D01*
X46381Y71780D01*
X45873Y71526D02*
X45365D01*
X45619D01*
Y73050D01*
X45873Y72796D01*
X43588Y73050D02*
X44603D01*
Y72288D01*
X44095Y72542D01*
X43842D01*
X43588Y72288D01*
Y71780D01*
X43842Y71526D01*
X44349D01*
X44603Y71780D01*
X66421Y13335D02*
X66167Y13081D01*
X65659D01*
X65405Y13335D01*
Y14351D01*
X65659Y14605D01*
X66167D01*
X66421Y14351D01*
X66929Y14605D02*
X67436D01*
X67182D01*
Y13081D01*
X66929Y13335D01*
X68198D02*
X68452Y13081D01*
X68960D01*
X69214Y13335D01*
Y14351D01*
X68960Y14605D01*
X68452D01*
X68198Y14351D01*
Y13335D01*
X60833Y7874D02*
X61087Y8128D01*
X61595D01*
X61849Y7874D01*
Y6858D01*
X61595Y6604D01*
X61087D01*
X60833Y6858D01*
X60325D02*
X60072Y6604D01*
X59564D01*
X59310Y6858D01*
Y7874D01*
X59564Y8128D01*
X60072D01*
X60325Y7874D01*
Y7620D01*
X60072Y7366D01*
X59310D01*
X123216Y73558D02*
X123470Y73812D01*
X123977D01*
X124231Y73558D01*
Y72542D01*
X123977Y72288D01*
X123470D01*
X123216Y72542D01*
X122708Y73558D02*
X122454Y73812D01*
X121946D01*
X121692Y73558D01*
Y73304D01*
X121946Y73050D01*
X122200D01*
X121946D01*
X121692Y72796D01*
Y72542D01*
X121946Y72288D01*
X122454D01*
X122708Y72542D01*
X120169Y73812D02*
X120677Y73558D01*
X121184Y73050D01*
Y72542D01*
X120930Y72288D01*
X120423D01*
X120169Y72542D01*
Y72796D01*
X120423Y73050D01*
X121184D01*
X150343Y73304D02*
X150597Y73558D01*
X151105D01*
X151359Y73304D01*
Y72288D01*
X151105Y72034D01*
X150597D01*
X150343Y72288D01*
X149835Y73304D02*
X149581Y73558D01*
X149073D01*
X148819Y73304D01*
Y73050D01*
X149073Y72796D01*
X149327D01*
X149073D01*
X148819Y72542D01*
Y72288D01*
X149073Y72034D01*
X149581D01*
X149835Y72288D01*
X147296Y73558D02*
X148312D01*
Y72796D01*
X147804Y73050D01*
X147550D01*
X147296Y72796D01*
Y72288D01*
X147550Y72034D01*
X148058D01*
X148312Y72288D01*
X102870Y39624D02*
X102616Y39370D01*
X102108D01*
X101854Y39624D01*
Y40640D01*
X102108Y40894D01*
X102616D01*
X102870Y40640D01*
X103378Y39624D02*
X103631Y39370D01*
X104139D01*
X104393Y39624D01*
Y39878D01*
X104139Y40132D01*
X104393Y40386D01*
Y40640D01*
X104139Y40894D01*
X103631D01*
X103378Y40640D01*
Y40386D01*
X103631Y40132D01*
X103378Y39878D01*
Y39624D01*
X103631Y40132D02*
X104139D01*
X115951Y39878D02*
X116205Y40132D01*
X116713D01*
X116967Y39878D01*
Y38862D01*
X116713Y38608D01*
X116205D01*
X115951Y38862D01*
X115443Y40132D02*
X114428D01*
Y39878D01*
X115443Y38862D01*
Y38608D01*
X127153Y26060D02*
X127407Y26314D01*
X127914D01*
X128168Y26060D01*
Y25044D01*
X127914Y24790D01*
X127407D01*
X127153Y25044D01*
X126645Y26060D02*
X126391Y26314D01*
X125883D01*
X125629Y26060D01*
Y25806D01*
X125883Y25552D01*
X126137D01*
X125883D01*
X125629Y25298D01*
Y25044D01*
X125883Y24790D01*
X126391D01*
X126645Y25044D01*
X124106Y24790D02*
X125121D01*
X124106Y25806D01*
Y26060D01*
X124360Y26314D01*
X124867D01*
X125121Y26060D01*
X143536Y37109D02*
X143790Y37363D01*
X144297D01*
X144551Y37109D01*
Y36093D01*
X144297Y35839D01*
X143790D01*
X143536Y36093D01*
X143028Y37109D02*
X142774Y37363D01*
X142266D01*
X142012Y37109D01*
Y36855D01*
X142266Y36601D01*
X142520D01*
X142266D01*
X142012Y36347D01*
Y36093D01*
X142266Y35839D01*
X142774D01*
X143028Y36093D01*
X141504Y35839D02*
X140997D01*
X141250D01*
Y37363D01*
X141504Y37109D01*
X78766Y26060D02*
X79020Y26314D01*
X79527D01*
X79781Y26060D01*
Y25044D01*
X79527Y24790D01*
X79020D01*
X78766Y25044D01*
X77242Y24790D02*
X78258D01*
X77242Y25806D01*
Y26060D01*
X77496Y26314D01*
X78004D01*
X78258Y26060D01*
X75719Y24790D02*
X76734D01*
X75719Y25806D01*
Y26060D01*
X75973Y26314D01*
X76480D01*
X76734Y26060D01*
X94514Y37109D02*
X94768Y37363D01*
X95275D01*
X95529Y37109D01*
Y36093D01*
X95275Y35839D01*
X94768D01*
X94514Y36093D01*
X92990Y35839D02*
X94006D01*
X92990Y36855D01*
Y37109D01*
X93244Y37363D01*
X93752D01*
X94006Y37109D01*
X92482Y35839D02*
X91975D01*
X92228D01*
Y37363D01*
X92482Y37109D01*
X25654Y21971D02*
X25908Y22225D01*
X26416D01*
X26670Y21971D01*
Y20955D01*
X26416Y20701D01*
X25908D01*
X25654Y20955D01*
X25146Y20701D02*
X24639D01*
X24893D01*
Y22225D01*
X25146Y21971D01*
X22861Y20701D02*
X23877D01*
X22861Y21717D01*
Y21971D01*
X23115Y22225D01*
X23623D01*
X23877Y21971D01*
X47117Y34290D02*
X47371Y34544D01*
X47879D01*
X48133Y34290D01*
Y33274D01*
X47879Y33020D01*
X47371D01*
X47117Y33274D01*
X46609Y33020D02*
X46102D01*
X46356D01*
Y34544D01*
X46609Y34290D01*
X45340Y33020D02*
X44832D01*
X45086D01*
Y34544D01*
X45340Y34290D01*
X167539Y38633D02*
X167793Y38887D01*
X168300D01*
X168554Y38633D01*
Y37617D01*
X168300Y37363D01*
X167793D01*
X167539Y37617D01*
X166015Y38887D02*
X167031D01*
Y38125D01*
X166523Y38379D01*
X166269D01*
X166015Y38125D01*
Y37617D01*
X166269Y37363D01*
X166777D01*
X167031Y37617D01*
X167412Y55524D02*
X167666Y55778D01*
X168173D01*
X168427Y55524D01*
Y54508D01*
X168173Y54254D01*
X167666D01*
X167412Y54508D01*
X166904Y55524D02*
X166650Y55778D01*
X166142D01*
X165888Y55524D01*
Y55270D01*
X166142Y55016D01*
X166396D01*
X166142D01*
X165888Y54762D01*
Y54508D01*
X166142Y54254D01*
X166650D01*
X166904Y54508D01*
X200178Y47904D02*
X200432Y48158D01*
X200939D01*
X201193Y47904D01*
Y46888D01*
X200939Y46634D01*
X200432D01*
X200178Y46888D01*
X199670Y46634D02*
X199162D01*
X199416D01*
Y48158D01*
X199670Y47904D01*
X127Y76073D02*
X127Y127D01*
X228473D01*
X228473Y76073D02*
X228473Y127D01*
X127Y76073D02*
X228473D01*
D15*
X67945Y15367D02*
Y17272D01*
X65405Y15367D02*
Y17272D01*
Y19431D02*
Y21336D01*
X67945Y19431D02*
Y21336D01*
X65405Y15367D02*
X67945D01*
X65405Y21336D02*
X67945D01*
X121793Y69469D02*
Y71374D01*
X124333Y69469D02*
Y71374D01*
Y65405D02*
Y67310D01*
X121793Y65405D02*
Y67310D01*
Y71374D02*
X124333D01*
X121793Y65405D02*
X124333D01*
X147193Y69215D02*
Y71120D01*
X149733Y69215D02*
Y71120D01*
Y65151D02*
Y67056D01*
X147193Y65151D02*
Y67056D01*
Y71120D02*
X149733D01*
X147193Y65151D02*
X149733D01*
X128270Y17907D02*
Y19812D01*
X125730Y17907D02*
Y19812D01*
Y21971D02*
Y23876D01*
X128270Y21971D02*
Y23876D01*
X125730Y17907D02*
X128270D01*
X125730Y23876D02*
X128270D01*
X142113Y33020D02*
Y34925D01*
X144653Y33020D02*
Y34925D01*
Y28956D02*
Y30861D01*
X142113Y28956D02*
Y30861D01*
Y34925D02*
X144653D01*
X142113Y28956D02*
X144653D01*
X70612Y69088D02*
Y70993D01*
X73152Y69088D02*
Y70993D01*
Y65024D02*
Y66929D01*
X70612Y65024D02*
Y66929D01*
Y70993D02*
X73152D01*
X70612Y65024D02*
X73152D01*
X96012Y69723D02*
Y71628D01*
X98552Y69723D02*
Y71628D01*
Y65659D02*
Y67564D01*
X96012Y65659D02*
Y67564D01*
Y71628D02*
X98552D01*
X96012Y65659D02*
X98552D01*
X79883Y17907D02*
Y19812D01*
X77343Y17907D02*
Y19812D01*
Y21971D02*
Y23876D01*
X79883Y21971D02*
Y23876D01*
X77343Y17907D02*
X79883D01*
X77343Y23876D02*
X79883D01*
X93091Y33020D02*
Y34925D01*
X95631Y33020D02*
Y34925D01*
Y28956D02*
Y30861D01*
X93091Y28956D02*
Y30861D01*
Y34925D02*
X95631D01*
X93091Y28956D02*
X95631D01*
X19685Y68326D02*
Y70231D01*
X22225Y68326D02*
Y70231D01*
Y64262D02*
Y66167D01*
X19685Y64262D02*
Y66167D01*
Y70231D02*
X22225D01*
X19685Y64262D02*
X22225D01*
X44958Y68707D02*
Y70612D01*
X47498Y68707D02*
Y70612D01*
Y64643D02*
Y66548D01*
X44958Y64643D02*
Y66548D01*
Y70612D02*
X47498D01*
X44958Y64643D02*
X47498D01*
X29845Y17907D02*
Y19812D01*
X27305Y17907D02*
Y19812D01*
Y21971D02*
Y23876D01*
X29845Y21971D02*
Y23876D01*
X27305Y17907D02*
X29845D01*
X27305Y23876D02*
X29845D01*
X41529Y33020D02*
Y34925D01*
X44069Y33020D02*
Y34925D01*
Y28956D02*
Y30861D01*
X41529Y28956D02*
Y30861D01*
Y34925D02*
X44069D01*
X41529Y28956D02*
X44069D01*
X61722Y8890D02*
Y10795D01*
X59182Y8890D02*
Y10795D01*
Y12954D02*
Y14859D01*
X61722Y12954D02*
Y14859D01*
X59182Y8890D02*
X61722D01*
X59182Y14859D02*
X61722D01*
X101727Y36703D02*
Y38608D01*
X104267Y36703D02*
Y38608D01*
Y32639D02*
Y34544D01*
X101727Y32639D02*
Y34544D01*
Y38608D02*
X104267D01*
X101727Y32639D02*
X104267D01*
X111379Y42545D02*
Y44450D01*
X113919Y42545D02*
Y44450D01*
Y38481D02*
Y40386D01*
X111379Y38481D02*
Y40386D01*
Y44450D02*
X113919D01*
X111379Y38481D02*
X113919D01*
X168656Y30480D02*
Y32385D01*
X166116Y30480D02*
Y32385D01*
Y34544D02*
Y36449D01*
X168656Y34544D02*
Y36449D01*
X166116Y30480D02*
X168656D01*
X166116Y36449D02*
X168656D01*
X168529Y47371D02*
Y49276D01*
X165989Y47371D02*
Y49276D01*
Y51435D02*
Y53340D01*
X168529Y51435D02*
Y53340D01*
X165989Y47371D02*
X168529D01*
X165989Y53340D02*
X168529D01*
X201295Y39751D02*
Y41656D01*
X198755Y39751D02*
Y41656D01*
Y43815D02*
Y45720D01*
X201295Y43815D02*
Y45720D01*
X198755Y39751D02*
X201295D01*
X198755Y45720D02*
X201295D01*
D16*
X34163Y26924D02*
Y26077D01*
X34332Y25908D01*
X34671D01*
X34840Y26077D01*
Y26924D01*
X35179Y25908D02*
X35517D01*
X35348D01*
Y26924D01*
X35179Y26754D01*
X36025Y25908D02*
X36364D01*
X36194D01*
Y26924D01*
X36025Y26754D01*
X85090Y26924D02*
Y26077D01*
X85259Y25908D01*
X85598D01*
X85767Y26077D01*
Y26924D01*
X86783Y25908D02*
X86106D01*
X86783Y26585D01*
Y26754D01*
X86614Y26924D01*
X86275D01*
X86106Y26754D01*
X87121Y25908D02*
X87460D01*
X87291D01*
Y26924D01*
X87121Y26754D01*
X133858Y26924D02*
Y26077D01*
X134027Y25908D01*
X134366D01*
X134535Y26077D01*
Y26924D01*
X134874Y26754D02*
X135043Y26924D01*
X135382D01*
X135551Y26754D01*
Y26585D01*
X135382Y26416D01*
X135212D01*
X135382D01*
X135551Y26247D01*
Y26077D01*
X135382Y25908D01*
X135043D01*
X134874Y26077D01*
X135889Y25908D02*
X136228D01*
X136059D01*
Y26924D01*
X135889Y26754D01*
M02*
