G04*
G04 #@! TF.GenerationSoftware,Altium Limited,Altium Designer,18.0.9 (584)*
G04*
G04 Layer_Physical_Order=1*
G04 Layer_Color=255*
%FSLAX43Y43*%
%MOMM*%
G71*
G01*
G75*
%ADD10C,0.254*%
%ADD16C,0.178*%
%ADD17R,10.160X15.240*%
%ADD18R,1.524X1.524*%
%ADD19R,1.524X1.524*%
%ADD20R,1.524X1.270*%
%ADD21R,1.270X1.524*%
%ADD22R,1.200X1.200*%
%ADD41C,0.203*%
%ADD42C,0.508*%
%ADD43C,6.350*%
%ADD44R,1.575X1.575*%
%ADD45C,1.524*%
%ADD46R,2.032X2.032*%
%ADD47C,2.032*%
%ADD48C,1.575*%
%ADD49C,4.000*%
%ADD50R,1.500X1.500*%
%ADD51C,1.500*%
%ADD52C,2.000*%
%ADD53O,2.032X3.810*%
%ADD54C,1.270*%
D10*
X182753Y66167D02*
X183769D01*
X182753D02*
Y67056D01*
Y65278D02*
Y66167D01*
Y62103D02*
Y62992D01*
Y62103D02*
X183769D01*
X182753Y61214D02*
Y62103D01*
X174879Y40656D02*
Y41910D01*
Y43164D01*
X173625Y41910D02*
X174879D01*
X148463Y44069D02*
X149504D01*
X148463D02*
Y45110D01*
Y43028D02*
Y44069D01*
X147422D02*
X148463D01*
X142240Y45847D02*
Y46863D01*
X143129D01*
X141351D02*
X142240D01*
X109728Y44450D02*
Y45720D01*
Y44450D02*
X110998D01*
X108458D02*
X109728D01*
X90932Y46863D02*
X91821D01*
X90932Y45847D02*
Y46863D01*
X110109Y37338D02*
X111150D01*
X109728Y43180D02*
Y44450D01*
X96368Y44069D02*
X97409D01*
X98450D01*
X97409D02*
Y45110D01*
Y43028D02*
Y44069D01*
X110109Y37338D02*
Y38379D01*
X109068Y37338D02*
X110109D01*
Y36297D02*
Y37338D01*
X141986Y18923D02*
Y19812D01*
Y18034D02*
Y18923D01*
X140970D02*
X141986D01*
X139063Y10414D02*
X141317D01*
X139063D02*
Y12668D01*
X136809Y10414D02*
X139063D01*
Y8160D02*
Y10414D01*
X132463D02*
X134717D01*
X139063Y3814D02*
Y6068D01*
Y3814D02*
X141317D01*
X136809D02*
X139063D01*
X132463D02*
X134717D01*
X110109Y24638D02*
Y32512D01*
X104775Y24638D02*
X110109D01*
X115443D01*
X110109Y16764D02*
Y24638D01*
X123063Y21590D02*
X124079D01*
X130209Y10414D02*
X132463D01*
Y8160D02*
Y10414D01*
Y12668D01*
X123063Y21590D02*
Y22606D01*
X122047Y21590D02*
X123063D01*
Y20574D02*
Y21590D01*
X132463Y3814D02*
Y6068D01*
X130209Y3814D02*
X132463D01*
X93345Y19177D02*
Y20066D01*
Y18288D02*
Y19177D01*
X92329D02*
X93345D01*
X90043Y46863D02*
X90932D01*
X58801Y43434D02*
X60071D01*
X61341D01*
X45974Y44196D02*
Y45237D01*
X60071Y43434D02*
Y44704D01*
X45974Y44196D02*
X47015D01*
X45974Y43155D02*
Y44196D01*
X44933D02*
X45974D01*
X40386Y45974D02*
Y46990D01*
X41275D01*
X39497D02*
X40386D01*
X60071Y42164D02*
Y43434D01*
X74295Y21717D02*
Y22733D01*
X88897Y10414D02*
Y12668D01*
Y10414D02*
X91151D01*
X88897Y8160D02*
Y10414D01*
X86643D02*
X88897D01*
X82297D02*
X84551D01*
X82297D02*
Y12668D01*
X80043Y10414D02*
X82297D01*
Y8160D02*
Y10414D01*
X74295Y21717D02*
X75311D01*
X74295Y20701D02*
Y21717D01*
X73279D02*
X74295D01*
X88897Y3814D02*
Y6068D01*
Y3814D02*
X91151D01*
X86643D02*
X88897D01*
X82297D02*
Y6068D01*
X80043Y3814D02*
X82297D01*
X84551D01*
X57912Y16764D02*
Y17805D01*
Y16764D02*
X58953D01*
X56871D02*
X57912D01*
Y15723D02*
Y16764D01*
X23876Y21717D02*
Y22733D01*
X42037Y19050D02*
Y19939D01*
X41021Y19050D02*
X42037D01*
Y18161D02*
Y19050D01*
X38731Y10414D02*
X40985D01*
X38731D02*
Y12668D01*
X36477Y10414D02*
X38731D01*
Y8160D02*
Y10414D01*
Y3814D02*
X40985D01*
X38731D02*
Y6068D01*
X36477Y3814D02*
X38731D01*
X32131Y10414D02*
X34385D01*
X32131Y3814D02*
X34385D01*
X23876Y21717D02*
X24892D01*
X23876Y20701D02*
Y21717D01*
X22860D02*
X23876D01*
X32131Y10414D02*
Y12668D01*
X29877Y10414D02*
X32131D01*
Y8160D02*
Y10414D01*
Y3814D02*
Y6068D01*
X29877Y3814D02*
X32131D01*
X222148Y50292D02*
Y52451D01*
X220878Y50292D02*
X222148D01*
X223418D01*
X222148Y48133D02*
Y50292D01*
X207391Y41021D02*
X208661D01*
X207391D02*
Y42291D01*
Y39751D02*
Y41021D01*
X206121D02*
X207391D01*
X222148Y36830D02*
X223418D01*
X220878D02*
X222148D01*
Y38989D01*
Y34671D02*
Y36830D01*
X195179Y39310D02*
Y40564D01*
Y39310D02*
X196433D01*
X193925D02*
X195179D01*
Y38056D02*
Y39310D01*
X70993Y27432D02*
Y36703D01*
Y25146D02*
X74295D01*
X70993Y36703D02*
X74041D01*
X94361Y46609D02*
X97409D01*
X91567Y43815D02*
X94361Y46609D01*
X75819Y43815D02*
X91567D01*
X70993Y38989D02*
X75819Y43815D01*
X144272Y9144D02*
Y12446D01*
X142242Y7114D02*
X144272Y9144D01*
X135763Y7114D02*
X142242D01*
X95631Y9525D02*
Y12446D01*
X93220Y7114D02*
X95631Y9525D01*
X85597Y7114D02*
X93220D01*
X44323Y9652D02*
Y12954D01*
X41785Y7114D02*
X44323Y9652D01*
X35431Y7114D02*
X41785D01*
X146431Y46609D02*
X148463D01*
X142748Y42926D02*
X146431Y46609D01*
X123317Y42926D02*
X142748D01*
X119380Y38989D02*
X123317Y42926D01*
X126111Y30226D02*
Y36703D01*
X119380D02*
X122682D01*
X175421Y62103D02*
X180467D01*
X175421Y66167D02*
X180467D01*
X119380Y27305D02*
Y36703D01*
X131445Y25019D02*
X131572Y25146D01*
X123063Y25019D02*
X131445D01*
X119380D02*
X123063D01*
X127508Y27686D02*
X131572D01*
X126111Y29083D02*
X127508Y27686D01*
X126111Y29083D02*
Y30226D01*
X77470Y28829D02*
Y30353D01*
Y28829D02*
X78613Y27686D01*
X82804D01*
X128397Y30226D02*
X131572D01*
X144272Y14732D02*
Y18923D01*
Y22860D01*
X139192Y25146D02*
X144272D01*
X135763Y55626D02*
Y60833D01*
Y55626D02*
X142240Y49149D01*
X148463D01*
X74295Y25146D02*
X82804D01*
X82677Y30353D02*
X82804Y30226D01*
X79756Y30353D02*
X82677D01*
X77470D02*
Y36703D01*
X90424Y25146D02*
X95631D01*
Y19177D02*
Y22860D01*
Y14732D02*
Y19177D01*
X23876Y25146D02*
X31877D01*
X20193D02*
X23876D01*
X90932Y49149D02*
X97409D01*
X84709Y55372D02*
X90932Y49149D01*
X84709Y55372D02*
Y60833D01*
X44196Y46736D02*
X45974D01*
X39878Y42418D02*
X44196Y46736D01*
X24130Y42418D02*
X39878D01*
X20193Y38481D02*
X24130Y42418D01*
X39497Y25146D02*
X44323D01*
Y15240D02*
Y19050D01*
Y22860D01*
X20193Y27432D02*
Y36195D01*
X28956Y30226D02*
X31877D01*
X28067Y27686D02*
X31877D01*
X26670Y29083D02*
X28067Y27686D01*
X26670Y29083D02*
Y30226D01*
Y36195D01*
X20193D02*
X23241D01*
X33655Y56007D02*
X40386Y49276D01*
X33655Y56007D02*
Y60833D01*
X40386Y49276D02*
X45974D01*
X127Y76073D02*
X127Y127D01*
X228473D01*
X228473Y76073D02*
X228473Y127D01*
X127Y76073D02*
X228473D01*
D16*
X34163Y26924D02*
Y26077D01*
X34332Y25908D01*
X34671D01*
X34840Y26077D01*
Y26924D01*
X35179Y25908D02*
X35517D01*
X35348D01*
Y26924D01*
X35179Y26754D01*
X36025Y25908D02*
X36364D01*
X36194D01*
Y26924D01*
X36025Y26754D01*
X85090Y26924D02*
Y26077D01*
X85259Y25908D01*
X85598D01*
X85767Y26077D01*
Y26924D01*
X86783Y25908D02*
X86106D01*
X86783Y26585D01*
Y26754D01*
X86614Y26924D01*
X86275D01*
X86106Y26754D01*
X87121Y25908D02*
X87460D01*
X87291D01*
Y26924D01*
X87121Y26754D01*
X133858Y26924D02*
Y26077D01*
X134027Y25908D01*
X134366D01*
X134535Y26077D01*
Y26924D01*
X134874Y26754D02*
X135043Y26924D01*
X135382D01*
X135551Y26754D01*
Y26585D01*
X135382Y26416D01*
X135212D01*
X135382D01*
X135551Y26247D01*
Y26077D01*
X135382Y25908D01*
X135043D01*
X134874Y26077D01*
X135889Y25908D02*
X136228D01*
X136059D01*
Y26924D01*
X135889Y26754D01*
D17*
X60452Y29464D02*
D03*
X110109Y24638D02*
D03*
D18*
X123063Y21590D02*
D03*
Y25019D02*
D03*
X74295Y21717D02*
D03*
Y25146D02*
D03*
X23876Y21717D02*
D03*
Y25146D02*
D03*
D19*
X122682Y36703D02*
D03*
X126111D02*
D03*
X74041D02*
D03*
X77470D02*
D03*
X23241Y36195D02*
D03*
X26670D02*
D03*
X148463Y60833D02*
D03*
X97409D02*
D03*
X46355D02*
D03*
D20*
X126111Y30226D02*
D03*
X128397D02*
D03*
X144272Y18923D02*
D03*
X141986D02*
D03*
X95631Y19177D02*
D03*
X93345D02*
D03*
X77470Y30353D02*
D03*
X79756D02*
D03*
X26670Y30226D02*
D03*
X28956D02*
D03*
X182753Y66167D02*
D03*
X180467D02*
D03*
X182753Y62103D02*
D03*
X180467D02*
D03*
X44323Y19050D02*
D03*
X42037D02*
D03*
D21*
X144272Y12446D02*
D03*
Y14732D02*
D03*
X95631Y12446D02*
D03*
Y14732D02*
D03*
X70993Y36703D02*
D03*
Y38989D02*
D03*
X20193Y36195D02*
D03*
Y38481D02*
D03*
Y25146D02*
D03*
Y27432D02*
D03*
X44323Y12954D02*
D03*
Y15240D02*
D03*
Y22860D02*
D03*
Y25146D02*
D03*
X40386Y46990D02*
D03*
Y49276D02*
D03*
X95631Y22860D02*
D03*
Y25146D02*
D03*
X70993D02*
D03*
Y27432D02*
D03*
X90932Y46863D02*
D03*
Y49149D02*
D03*
X144272Y22860D02*
D03*
Y25146D02*
D03*
X119380Y25019D02*
D03*
Y27305D02*
D03*
Y36703D02*
D03*
Y38989D02*
D03*
X142240Y46863D02*
D03*
Y49149D02*
D03*
D22*
X175421Y62103D02*
D03*
X173321D02*
D03*
Y66167D02*
D03*
X175421D02*
D03*
D41*
X170586Y64654D02*
G03*
X170332Y64042I610J-612D01*
G01*
X170585Y64653D02*
G03*
X170332Y64042I611J-611D01*
G01*
X177902Y54610D02*
G03*
X177648Y55222I-864J0D01*
G01*
X177902Y54610D02*
G03*
X177649Y55221I-864J0D01*
G01*
X176174Y53065D02*
G03*
X174529Y53681I-1295J-955D01*
G01*
X172457Y58327D02*
G03*
X172710Y57716I864J0D01*
G01*
X172457Y58327D02*
G03*
X172711Y57715I864J0D01*
G01*
X173308Y52460D02*
G03*
X176174Y51155I1571J-350D01*
G01*
Y42309D02*
G03*
X176174Y41511I-1295J-399D01*
G01*
X170332Y55793D02*
G03*
X170585Y55182I864J0D01*
G01*
X170332Y55793D02*
G03*
X170586Y55181I864J0D01*
G01*
X149045Y47879D02*
G03*
X149860Y49149I-582J1270D01*
G01*
D02*
G03*
X147276Y49886I-1397J0D01*
G01*
Y48412D02*
G03*
X147881Y47879I1187J737D01*
G01*
X147599Y58126D02*
G03*
X147852Y57515I864J0D01*
G01*
X147599Y58126D02*
G03*
X147853Y57514I864J0D01*
G01*
X147881Y47879D02*
G03*
X147276Y47346I582J-1270D01*
G01*
X146431D02*
G03*
X145910Y47130I0J-737D01*
G01*
X146431Y47346D02*
G03*
X145910Y47130I0J-737D01*
G01*
X148463Y45212D02*
G03*
X149860Y46609I0J1397D01*
G01*
D02*
G03*
X149045Y47879I-1397J0D01*
G01*
X149606Y44069D02*
G03*
X148463Y45212I-1143J0D01*
G01*
X147276Y45872D02*
G03*
X148463Y45212I1187J737D01*
G01*
D02*
G03*
X149606Y44069I0J-1143D01*
G01*
X139931Y63094D02*
G03*
X139319Y63348I-612J-610D01*
G01*
X139930Y63095D02*
G03*
X139319Y63348I-611J-611D01*
G01*
X134640Y61620D02*
G03*
X135026Y59676I1123J-787D01*
G01*
X140358Y60223D02*
G03*
X140970Y59969I612J610D01*
G01*
X140359Y60222D02*
G03*
X140970Y59969I611J611D01*
G01*
X137135Y60833D02*
G03*
X136886Y61620I-1372J0D01*
G01*
X136500Y59676D02*
G03*
X137135Y60833I-737J1157D01*
G01*
X116920Y61620D02*
G03*
X119415Y60833I1123J-787D01*
G01*
X124435D02*
G03*
X124186Y61620I-1372J0D01*
G01*
X121940D02*
G03*
X124435Y60833I1123J-787D01*
G01*
X119415D02*
G03*
X119166Y61620I-1372J0D01*
G01*
X99060Y63348D02*
G03*
X98449Y63095I0J-864D01*
G01*
X99060Y63348D02*
G03*
X98448Y63094I0J-864D01*
G01*
X92305Y63603D02*
G03*
X91694Y63856I-611J-611D01*
G01*
X92306Y63602D02*
G03*
X91694Y63856I-612J-610D01*
G01*
X93241Y60223D02*
G03*
X93853Y59969I612J610D01*
G01*
X93242Y60222D02*
G03*
X93853Y59969I611J611D01*
G01*
X142748Y42189D02*
G03*
X143269Y42405I0J737D01*
G01*
X142748Y42189D02*
G03*
X143269Y42405I0J737D01*
G01*
X135026Y55626D02*
G03*
X135242Y55105I737J0D01*
G01*
X135026Y55626D02*
G03*
X135242Y55105I737J0D01*
G01*
X123317Y43663D02*
G03*
X122796Y43447I0J-737D01*
G01*
X123317Y43663D02*
G03*
X122796Y43447I0J-737D01*
G01*
X97991Y47879D02*
G03*
X98806Y49149I-582J1270D01*
G01*
Y46609D02*
G03*
X97991Y47879I-1397J0D01*
G01*
X98806Y49149D02*
G03*
X96222Y49886I-1397J0D01*
G01*
Y48412D02*
G03*
X96827Y47879I1187J737D01*
G01*
D02*
G03*
X96222Y47346I582J-1270D01*
G01*
X97409Y45212D02*
G03*
X98806Y46609I0J1397D01*
G01*
X98552Y44069D02*
G03*
X97409Y45212I-1143J0D01*
G01*
X96222Y45872D02*
G03*
X97409Y45212I1187J737D01*
G01*
X94361Y47346D02*
G03*
X93840Y47130I0J-737D01*
G01*
X94361Y47346D02*
G03*
X93840Y47130I0J-737D01*
G01*
X111100Y44450D02*
G03*
X111100Y44450I-1372J0D01*
G01*
X97409Y45212D02*
G03*
X98552Y44069I0J-1143D01*
G01*
X91567Y43078D02*
G03*
X92088Y43294I0J737D01*
G01*
X91567Y43078D02*
G03*
X92088Y43294I0J737D01*
G01*
X177649Y33258D02*
G03*
X177902Y33869I-611J611D01*
G01*
X177648Y33257D02*
G03*
X177902Y33869I-610J612D01*
G01*
X173308Y32060D02*
G03*
X176489Y31710I1571J-350D01*
G01*
D02*
G03*
X176450Y32060I-1610J0D01*
G01*
X175229Y33281D02*
G03*
X174529Y33281I-350J-1571D01*
G01*
X140552Y30226D02*
G03*
X138707Y28956I-1360J0D01*
G01*
X139677D02*
G03*
X140552Y30226I-485J1270D01*
G01*
Y27686D02*
G03*
X139677Y28956I-1360J0D01*
G01*
Y26416D02*
G03*
X140552Y27686I-485J1270D01*
G01*
X132932D02*
G03*
X132247Y28866I-1360J0D01*
G01*
X138707Y28956D02*
G03*
X138707Y26416I485J-1270D01*
G01*
X132057D02*
G03*
X132932Y27686I-485J1270D01*
G01*
X138707Y26416D02*
G03*
X138707Y23876I485J-1270D01*
G01*
X140335Y25883D02*
G03*
X139677Y26416I-1143J-737D01*
G01*
Y23876D02*
G03*
X140335Y24409I-485J1270D01*
G01*
X132932Y25146D02*
G03*
X132057Y26416I-1360J0D01*
G01*
Y23876D02*
G03*
X132932Y25146I-485J1270D01*
G01*
X144793Y8623D02*
G03*
X145009Y9144I-521J521D01*
G01*
X144793Y8623D02*
G03*
X145009Y9144I-521J521D01*
G01*
X142242Y6377D02*
G03*
X142763Y6593I0J737D01*
G01*
X142242Y6377D02*
G03*
X142763Y6593I0J737D01*
G01*
X141419Y10414D02*
G03*
X141419Y10414I-2356J0D01*
G01*
X140552Y22606D02*
G03*
X139677Y23876I-1360J0D01*
G01*
X138707D02*
G03*
X140552Y22606I485J-1270D01*
G01*
X132932D02*
G03*
X132057Y23876I-1360J0D01*
G01*
X134819Y10414D02*
G03*
X134819Y10414I-2356J0D01*
G01*
X140443Y1905D02*
G03*
X141419Y3814I-1380J1909D01*
G01*
D02*
G03*
X137683Y1905I-2356J0D01*
G01*
X137212Y7851D02*
G03*
X137212Y6377I-1449J-737D01*
G01*
X134819Y3814D02*
G03*
X131083Y1905I-2356J0D01*
G01*
X133843D02*
G03*
X134819Y3814I-1380J1909D01*
G01*
X125381Y28981D02*
G03*
X125590Y28562I730J102D01*
G01*
X130897Y28866D02*
G03*
X130429Y28423I675J-1180D01*
G01*
X126987Y27165D02*
G03*
X127508Y26949I521J521D01*
G01*
X126987Y27165D02*
G03*
X127508Y26949I521J521D01*
G01*
X130429D02*
G03*
X131087Y26416I1143J737D01*
G01*
D02*
G03*
X130357Y25756I485J-1270D01*
G01*
X125381Y28981D02*
G03*
X125590Y28562I730J102D01*
G01*
X90909Y28956D02*
G03*
X91784Y30226I-485J1270D01*
G01*
Y27686D02*
G03*
X90909Y28956I-1360J0D01*
G01*
Y26416D02*
G03*
X91784Y27686I-485J1270D01*
G01*
X91567Y25883D02*
G03*
X90909Y26416I-1143J-737D01*
G01*
Y23876D02*
G03*
X91567Y24409I-485J1270D01*
G01*
X130522Y24282D02*
G03*
X131087Y23876I1050J864D01*
G01*
D02*
G03*
X132932Y22606I485J-1270D01*
G01*
X91784D02*
G03*
X90909Y23876I-1360J0D01*
G01*
X96152Y9004D02*
G03*
X96368Y9525I-521J521D01*
G01*
X96152Y9004D02*
G03*
X96368Y9525I-521J521D01*
G01*
X93220Y6377D02*
G03*
X93741Y6593I0J737D01*
G01*
X93220Y6377D02*
G03*
X93741Y6593I0J737D01*
G01*
X80645Y63856D02*
G03*
X80034Y63603I0J-864D01*
G01*
X80645Y63856D02*
G03*
X80033Y63602I0J-864D01*
G01*
X86081Y60833D02*
G03*
X85160Y62128I-1372J0D01*
G01*
X85446Y59676D02*
G03*
X86081Y60833I-737J1157D01*
G01*
X84258Y62128D02*
G03*
X83972Y59676I451J-1295D01*
G01*
Y55372D02*
G03*
X84188Y54851I737J0D01*
G01*
X83972Y55372D02*
G03*
X84188Y54851I737J0D01*
G01*
X73381Y60833D02*
G03*
X73381Y60833I-1372J0D01*
G01*
X68361D02*
G03*
X68361Y60833I-1372J0D01*
G01*
X75819Y44552D02*
G03*
X75298Y44336I0J-737D01*
G01*
X75819Y44552D02*
G03*
X75298Y44336I0J-737D01*
G01*
X91784Y30226D02*
G03*
X89939Y28956I-1360J0D01*
G01*
X66167Y47650D02*
G03*
X66778Y47903I0J864D01*
G01*
X66167Y47650D02*
G03*
X66779Y47904I0J864D01*
G01*
X63348Y45339D02*
G03*
X63094Y45951I-864J0D01*
G01*
X63348Y45339D02*
G03*
X63095Y45950I-864J0D01*
G01*
X34392Y59676D02*
G03*
X35027Y60833I-737J1157D01*
G01*
X32918Y56007D02*
G03*
X33134Y55486I737J0D01*
G01*
X35027Y60833D02*
G03*
X32918Y59676I-1372J0D01*
G01*
Y56007D02*
G03*
X33134Y55486I737J0D01*
G01*
X22327Y60833D02*
G03*
X22327Y60833I-1372J0D01*
G01*
X46556Y48006D02*
G03*
X47371Y49276I-582J1270D01*
G01*
X61448Y49378D02*
G03*
X59661Y46941I-1377J-864D01*
G01*
X47371Y49276D02*
G03*
X44787Y50013I-1397J0D01*
G01*
X17307Y60833D02*
G03*
X17307Y60833I-1372J0D01*
G01*
X8865Y71120D02*
G03*
X7140Y74295I-3785J0D01*
G01*
X3020D02*
G03*
X1905Y73180I2060J-3175D01*
G01*
Y69060D02*
G03*
X8865Y71120I3175J2060D01*
G01*
X47371Y46736D02*
G03*
X46556Y48006I-1397J0D01*
G01*
X44787Y45999D02*
G03*
X45974Y45339I1187J737D01*
G01*
X44787Y48539D02*
G03*
X45392Y48006I1187J737D01*
G01*
D02*
G03*
X44787Y47473I582J-1270D01*
G01*
X45974Y45339D02*
G03*
X47371Y46736I0J1397D01*
G01*
X47117Y44196D02*
G03*
X45974Y45339I-1143J0D01*
G01*
D02*
G03*
X47117Y44196I0J-1143D01*
G01*
X44196Y47473D02*
G03*
X43675Y47257I0J-737D01*
G01*
X44196Y47473D02*
G03*
X43675Y47257I0J-737D01*
G01*
X39878Y41681D02*
G03*
X40399Y41897I0J737D01*
G01*
X39878Y41681D02*
G03*
X40399Y41897I0J737D01*
G01*
X40857Y30226D02*
G03*
X39012Y28956I-1360J0D01*
G01*
X39982D02*
G03*
X40857Y30226I-485J1270D01*
G01*
X24130Y43155D02*
G03*
X23609Y42939I0J-737D01*
G01*
X24130Y43155D02*
G03*
X23609Y42939I0J-737D01*
G01*
X89939Y28956D02*
G03*
X89939Y26416I485J-1270D01*
G01*
X84164Y27686D02*
G03*
X83479Y28866I-1360J0D01*
G01*
X83289Y26416D02*
G03*
X84164Y27686I-485J1270D01*
G01*
X82129Y28866D02*
G03*
X81661Y28423I675J-1180D01*
G01*
Y26949D02*
G03*
X82319Y26416I1143J737D01*
G01*
D02*
G03*
X81661Y25883I485J-1270D01*
G01*
X76733Y28829D02*
G03*
X76949Y28308I737J0D01*
G01*
X76733Y28829D02*
G03*
X76949Y28308I737J0D01*
G01*
X78092Y27165D02*
G03*
X78613Y26949I521J521D01*
G01*
X78092Y27165D02*
G03*
X78613Y26949I521J521D01*
G01*
X89939Y26416D02*
G03*
X89939Y23876I485J-1270D01*
G01*
D02*
G03*
X91784Y22606I485J-1270D01*
G01*
X84164Y25146D02*
G03*
X83289Y26416I-1360J0D01*
G01*
Y23876D02*
G03*
X84164Y25146I-485J1270D01*
G01*
X81661Y24409D02*
G03*
X82319Y23876I1143J737D01*
G01*
D02*
G03*
X84164Y22606I485J-1270D01*
G01*
D02*
G03*
X83289Y23876I-1360J0D01*
G01*
X91253Y10414D02*
G03*
X91253Y10414I-2356J0D01*
G01*
X84653D02*
G03*
X84653Y10414I-2356J0D01*
G01*
X87046Y7851D02*
G03*
X87046Y6377I-1449J-737D01*
G01*
X90277Y1905D02*
G03*
X91253Y3814I-1380J1909D01*
G01*
D02*
G03*
X87517Y1905I-2356J0D01*
G01*
X84653Y3814D02*
G03*
X80917Y1905I-2356J0D01*
G01*
X83677D02*
G03*
X84653Y3814I-1380J1909D01*
G01*
X39012Y28956D02*
G03*
X39012Y26416I485J-1270D01*
G01*
X40857Y27686D02*
G03*
X39982Y28956I-1360J0D01*
G01*
Y26416D02*
G03*
X40857Y27686I-485J1270D01*
G01*
X31202Y28866D02*
G03*
X30734Y28423I675J-1180D01*
G01*
X33237Y27686D02*
G03*
X32552Y28866I-1360J0D01*
G01*
X32362Y26416D02*
G03*
X33237Y27686I-485J1270D01*
G01*
X40640Y25883D02*
G03*
X39982Y26416I-1143J-737D01*
G01*
X30734Y26949D02*
G03*
X31392Y26416I1143J737D01*
G01*
D02*
G03*
X30734Y25883I485J-1270D01*
G01*
X25940Y28981D02*
G03*
X26149Y28562I730J102D01*
G01*
X25940Y28981D02*
G03*
X26149Y28562I730J102D01*
G01*
X27546Y27165D02*
G03*
X28067Y26949I521J521D01*
G01*
X27546Y27165D02*
G03*
X28067Y26949I521J521D01*
G01*
X39012Y26416D02*
G03*
X39012Y23876I485J-1270D01*
G01*
X39982D02*
G03*
X40640Y24409I-485J1270D01*
G01*
X39012Y23876D02*
G03*
X40857Y22606I485J-1270D01*
G01*
D02*
G03*
X39982Y23876I-1360J0D01*
G01*
X33237Y25146D02*
G03*
X32362Y26416I-1360J0D01*
G01*
Y23876D02*
G03*
X33237Y25146I-485J1270D01*
G01*
X30734Y24409D02*
G03*
X31392Y23876I1143J737D01*
G01*
D02*
G03*
X33237Y22606I485J-1270D01*
G01*
D02*
G03*
X32362Y23876I-1360J0D01*
G01*
X44844Y9131D02*
G03*
X45060Y9652I-521J521D01*
G01*
X44844Y9131D02*
G03*
X45060Y9652I-521J521D01*
G01*
X41785Y6377D02*
G03*
X42306Y6593I0J737D01*
G01*
X41785Y6377D02*
G03*
X42306Y6593I0J737D01*
G01*
X40111Y1905D02*
G03*
X41087Y3814I-1380J1909D01*
G01*
Y10414D02*
G03*
X41087Y10414I-2356J0D01*
G01*
Y3814D02*
G03*
X37351Y1905I-2356J0D01*
G01*
X34487Y10414D02*
G03*
X34487Y10414I-2356J0D01*
G01*
X36880Y7851D02*
G03*
X36880Y6377I-1449J-737D01*
G01*
X8865Y5080D02*
G03*
X1905Y7140I-3785J0D01*
G01*
X34487Y3814D02*
G03*
X30751Y1905I-2356J0D01*
G01*
X33511D02*
G03*
X34487Y3814I-1380J1909D01*
G01*
X7140Y1905D02*
G03*
X8865Y5080I-2060J3175D01*
G01*
X1905Y3020D02*
G03*
X3020Y1905I3175J2060D01*
G01*
X226695Y73180D02*
G03*
X225580Y74295I-3175J-2060D01*
G01*
X221460D02*
G03*
X226695Y69060I2060J-3175D01*
G01*
X223520Y51181D02*
G03*
X220777Y51181I-1372J0D01*
G01*
X219812D02*
G03*
X216560Y51181I-1626J0D01*
G01*
X220777Y49403D02*
G03*
X223520Y49403I1372J0D01*
G01*
X216560D02*
G03*
X219812Y49403I1626J0D01*
G01*
X208763Y41021D02*
G03*
X208763Y41021I-1372J0D01*
G01*
X223520Y37719D02*
G03*
X220777Y37719I-1372J0D01*
G01*
Y35941D02*
G03*
X223520Y35941I1372J0D01*
G01*
X219812Y37719D02*
G03*
X216560Y37719I-1626J0D01*
G01*
Y35941D02*
G03*
X219812Y35941I1626J0D01*
G01*
X225369Y1778D02*
G03*
X226695Y3020I-1849J3302D01*
G01*
Y7140D02*
G03*
X221671Y1778I-3175J-2060D01*
G01*
X196789Y44410D02*
G03*
X196789Y44410I-1610J0D01*
G01*
X196535Y39310D02*
G03*
X196535Y39310I-1356J0D01*
G01*
X196789Y31710D02*
G03*
X196789Y31710I-1610J0D01*
G01*
X183581Y74295D02*
X185420Y72456D01*
X182862Y74295D02*
X185420Y71737D01*
X182144Y74295D02*
X185420Y71019D01*
X185017Y74295D02*
X185420Y73892D01*
X184299Y74295D02*
X185420Y73174D01*
X179988Y74295D02*
X185420Y68863D01*
X179270Y74295D02*
X185420Y68145D01*
X181425Y74295D02*
X185420Y70300D01*
X180707Y74295D02*
X185420Y69582D01*
X176631Y67185D02*
X183740Y74295D01*
X178552D02*
X185420Y67427D01*
X175678Y74295D02*
X182815Y67158D01*
X176104Y67377D02*
X183022Y74295D01*
X177786Y66904D02*
X185177Y74295D01*
X177833D02*
X185420Y66708D01*
X176396Y74295D02*
X183534Y67158D01*
X177067Y66904D02*
X184459Y74295D01*
X182350Y67158D02*
X185420Y70227D01*
X183871Y66523D02*
X185420Y68072D01*
X183069Y67158D02*
X185420Y69509D01*
X183787Y67158D02*
X185420Y68790D01*
X183871Y65804D02*
X185420Y67354D01*
X183871Y66821D02*
X185420Y65271D01*
X183871Y65176D02*
Y67158D01*
X179731Y67412D02*
X185420Y73101D01*
X181839Y67364D02*
X185420Y70946D01*
X180449Y67412D02*
X185420Y72383D01*
X181167Y67412D02*
X185420Y71664D01*
X177115Y74295D02*
X185420Y65990D01*
X178504Y66904D02*
X185420Y73819D01*
X181839Y67158D02*
X183871D01*
X181839Y65176D02*
X183871D01*
X175385Y67377D02*
X182304Y74295D01*
X174667Y67377D02*
X181585Y74295D01*
X179095Y67412D02*
X181839D01*
X174241Y74295D02*
X181124Y67412D01*
X174531Y67377D02*
X176631D01*
X174959Y74295D02*
X182097Y67158D01*
X181839D02*
Y67412D01*
X179095Y66904D02*
Y67412D01*
X176631Y66904D02*
Y67377D01*
X173523Y74295D02*
X180406Y67412D01*
X173948Y67377D02*
X180867Y74295D01*
X172804D02*
X179688Y67412D01*
X174211Y67377D02*
X174531D01*
X172511D02*
X179430Y74295D01*
X173230Y67377D02*
X180148Y74295D01*
X172111Y67377D02*
X174211D01*
X174531D01*
X176631Y65030D02*
X177031Y65430D01*
X178795D02*
X179095Y65130D01*
X181839Y64922D02*
Y65176D01*
X179095Y64922D02*
X181839D01*
X179095D02*
Y65430D01*
Y65130D02*
X179303Y64922D01*
X176631Y66904D02*
X179095D01*
X176631Y65430D02*
X179095D01*
X176631Y64957D02*
Y65430D01*
X176558Y64957D02*
X176631Y65030D01*
X174211Y64957D02*
X174531D01*
X176631D01*
X173333D02*
X174211D01*
X174531D01*
X183315Y63094D02*
X185420Y65198D01*
X182597Y63094D02*
X185420Y65917D01*
X183360Y65176D02*
X185420Y63116D01*
X183871Y66102D02*
X185420Y64553D01*
X183871Y65384D02*
X185420Y63834D01*
X182641Y65176D02*
X185420Y62398D01*
X181923Y65176D02*
X185420Y61679D01*
X181878Y63094D02*
X185420Y66635D01*
X183871Y62930D02*
X185420Y64480D01*
X180696Y63348D02*
X182524Y65176D01*
X181414Y63348D02*
X183243Y65176D01*
X179259Y63348D02*
X180834Y64922D01*
X180022D02*
X181596Y63348D01*
X180740Y64922D02*
X182569Y63094D01*
X181458Y64922D02*
X183287Y63094D01*
X179303Y64922D02*
X180878Y63348D01*
X179977D02*
X181552Y64922D01*
X183871Y62212D02*
X185420Y63761D01*
X183871Y61494D02*
X185420Y63043D01*
X183871Y62510D02*
X185420Y60961D01*
X183871Y61792D02*
X185420Y60242D01*
X183871Y61112D02*
Y63094D01*
X179095Y63348D02*
X181839D01*
Y63094D02*
X183871D01*
X181839D02*
Y63348D01*
X181596D02*
X181839Y63105D01*
X177830Y61366D02*
X185420Y53777D01*
X177112Y61366D02*
X185420Y53058D01*
X177883Y54788D02*
X185420Y62325D01*
X177902Y54088D02*
X185420Y61606D01*
X178077Y65430D02*
X180160Y63348D01*
X177358Y65430D02*
X179441Y63348D01*
X176631Y62875D02*
X179095Y65340D01*
X176350Y63313D02*
X178468Y65430D01*
X176640D02*
X179095Y62975D01*
X177314Y62840D02*
X179397Y64922D01*
X178032Y62840D02*
X180115Y64922D01*
X175676Y64957D02*
X177794Y62840D01*
X176394Y64957D02*
X178512Y62840D01*
X173521Y64957D02*
X175166Y63313D01*
X174195D02*
X175840Y64957D01*
X172758Y63313D02*
X174403Y64957D01*
X173476Y63313D02*
X175121Y64957D01*
X175632Y63313D02*
X177749Y65430D01*
X174958Y64957D02*
X176602Y63313D01*
X174239Y64957D02*
X175884Y63313D01*
X174913D02*
X176558Y64957D01*
X179095Y63184D02*
X179259Y63348D01*
X178751Y62840D02*
X179095Y63184D01*
Y62840D02*
Y63348D01*
X176631Y62840D02*
Y63313D01*
Y62840D02*
X179095D01*
X176631Y61366D02*
X179095D01*
X176631Y60893D02*
Y61366D01*
X179095Y60858D02*
Y61366D01*
X174211Y63313D02*
X174531D01*
X176631D01*
X172349Y63974D02*
X173010Y63313D01*
X174211D02*
X174531D01*
X176631Y63284D02*
X177075Y62840D01*
X175109Y57761D02*
X178714Y61366D01*
X173068Y64692D02*
X174447Y63313D01*
X172708Y64333D02*
X173729Y63313D01*
X168494Y74295D02*
X175412Y67377D01*
X167775Y74295D02*
X174694Y67377D01*
X169212Y74295D02*
X176131Y67377D01*
X166338Y74295D02*
X173257Y67377D01*
X167057Y74295D02*
X173975Y67377D01*
X171367Y74295D02*
X178759Y66904D01*
X172086Y74295D02*
X179095Y67285D01*
X169931Y74295D02*
X177322Y66904D01*
X170649Y74295D02*
X178040Y66904D01*
X164902Y74295D02*
X172111Y67085D01*
X165620Y74295D02*
X172538Y67377D01*
X163465Y74295D02*
X171846Y65914D01*
X164183Y74295D02*
X172111Y66367D01*
X160591Y74295D02*
X170435Y64451D01*
X162746Y74295D02*
X171487Y65554D01*
X149379Y62205D02*
X161469Y74295D01*
X149835Y61942D02*
X162188Y74295D01*
X172111Y66179D02*
Y67377D01*
X170586Y64654D02*
X172111Y66179D01*
X172060Y63333D02*
X173684Y64957D01*
X172111Y63313D02*
X174211D01*
X172060Y63684D02*
X173333Y64957D01*
X172060Y63545D02*
X172292Y63313D01*
X161309Y74295D02*
X170769Y64836D01*
X162028Y74295D02*
X171128Y65195D01*
X159873Y74295D02*
X170332Y63835D01*
X159154Y74295D02*
X170332Y63117D01*
X148661Y62205D02*
X160751Y74295D01*
X158436D02*
X170332Y62398D01*
X147224Y62205D02*
X159314Y74295D01*
X147942Y62205D02*
X160032Y74295D01*
X141148Y61876D02*
X153567Y74295D01*
X140789Y62236D02*
X152848Y74295D01*
X142405Y61697D02*
X155004Y74295D01*
X140070Y62954D02*
X151411Y74295D01*
X140430Y62595D02*
X152130Y74295D01*
X145279Y61697D02*
X157877Y74295D01*
X145997Y61697D02*
X158596Y74295D01*
X143124Y61697D02*
X155722Y74295D01*
X144560Y61697D02*
X157159Y74295D01*
X138309Y63348D02*
X149256Y74295D01*
X139027Y63348D02*
X149975Y74295D01*
X135435Y63348D02*
X146382Y74295D01*
X137590Y63348D02*
X148538Y74295D01*
X137602D02*
X149692Y62205D01*
X139671Y63273D02*
X150693Y74295D01*
X136165D02*
X148255Y62205D01*
X136883Y74295D02*
X148974Y62205D01*
X136872Y63348D02*
X147819Y74295D01*
X147091Y62205D02*
X149835D01*
X136153Y63348D02*
X147101Y74295D01*
X135446D02*
X147537Y62205D01*
X147091Y62072D02*
X147224Y62205D01*
X149692D02*
X149835Y62062D01*
X147091Y61697D02*
Y62205D01*
X146716Y61697D02*
X147091Y62072D01*
X134717Y63348D02*
X145664Y74295D01*
X134728D02*
X147091Y61931D01*
X133280Y63348D02*
X144227Y74295D01*
X133998Y63348D02*
X144946Y74295D01*
X133291D02*
X145889Y61697D01*
X134009Y74295D02*
X146608Y61697D01*
X131854Y74295D02*
X144453Y61697D01*
X132573Y74295D02*
X145171Y61697D01*
X155754Y52056D02*
X177993Y74295D01*
X155395Y52415D02*
X177275Y74295D01*
X156113Y51697D02*
X178711Y74295D01*
X149815D02*
X176174Y47935D01*
X155036Y52775D02*
X176556Y74295D01*
X147659D02*
X176174Y45780D01*
X146941Y74295D02*
X176174Y45062D01*
X149096Y74295D02*
X176174Y47217D01*
X148378Y74295D02*
X176174Y46498D01*
X146223Y74295D02*
X176174Y44343D01*
X145504Y74295D02*
X176174Y43625D01*
X141194Y74295D02*
X173524Y41964D01*
X144786Y74295D02*
X176174Y42906D01*
X139038Y74295D02*
X176174Y37159D01*
X138320Y74295D02*
X176174Y36441D01*
X140475Y74295D02*
X176174Y38596D01*
X139757Y74295D02*
X176174Y37877D01*
X153599Y54211D02*
X173682Y74295D01*
X153958Y53852D02*
X174401Y74295D01*
X153240Y54571D02*
X172964Y74295D01*
X172111Y60893D02*
Y63313D01*
X154317Y53493D02*
X175119Y74295D01*
X154677Y53134D02*
X175838Y74295D01*
X156473Y51338D02*
X172111Y66977D01*
X156832Y50979D02*
X172111Y66258D01*
X150533Y74295D02*
X173441Y51387D01*
X144067Y74295D02*
X175118Y43244D01*
X152880Y54930D02*
X172246Y74295D01*
X151252D02*
X173277Y52269D01*
X143349Y74295D02*
X174449Y43195D01*
X149835Y62062D02*
X176174Y35722D01*
X141912Y74295D02*
X173675Y42532D01*
X142631Y74295D02*
X173991Y42934D01*
X156281Y74295D02*
X170332Y60243D01*
X155562Y74295D02*
X170332Y59525D01*
X154844Y74295D02*
X170332Y58806D01*
X157717Y74295D02*
X170332Y61680D01*
X156999Y74295D02*
X170332Y60962D01*
X152688Y74295D02*
X170332Y56651D01*
X151970Y74295D02*
X170332Y55933D01*
X154125Y74295D02*
X170332Y58088D01*
X153407Y74295D02*
X170332Y57369D01*
X149835Y60505D02*
X163625Y74295D01*
X149835Y59787D02*
X164343Y74295D01*
X141687Y61697D02*
X154285Y74295D01*
X143842Y61697D02*
X156440Y74295D01*
X151444Y56367D02*
X169372Y74295D01*
X151803Y56007D02*
X170090Y74295D01*
X150725Y57085D02*
X167935Y74295D01*
X151084Y56726D02*
X168654Y74295D01*
X152521Y55289D02*
X171527Y74295D01*
X172060Y56151D02*
Y63684D01*
X152162Y55648D02*
X170809Y74295D01*
X170332Y55793D02*
Y64042D01*
X157909Y49901D02*
X170332Y62324D01*
X158269Y49542D02*
X170332Y61605D01*
X157191Y50619D02*
X170332Y63761D01*
X157550Y50260D02*
X170332Y63042D01*
X149835Y61223D02*
X162906Y74295D01*
X149327Y58560D02*
X165061Y74295D01*
X149835Y59461D02*
Y62205D01*
X141328Y61697D02*
X147091D01*
X150007Y57804D02*
X166498Y74295D01*
X150366Y57444D02*
X167217Y74295D01*
X149648Y58163D02*
X165780Y74295D01*
X137345Y61620D02*
X148420Y50545D01*
X183113Y61112D02*
X185420Y58806D01*
X181839Y61112D02*
X183871D01*
X183832D02*
X185420Y59524D01*
X181839Y60858D02*
Y61112D01*
Y60898D02*
X182053Y61112D01*
X178549Y61366D02*
X185420Y54495D01*
X179775Y60858D02*
X185420Y55213D01*
X182395Y61112D02*
X185420Y58087D01*
X181839Y60950D02*
X185420Y57369D01*
X174749Y58120D02*
X177996Y61366D01*
X175468Y57401D02*
X179095Y61029D01*
X174390Y58479D02*
X177278Y61366D01*
X174531Y60893D02*
X176631D01*
Y61129D02*
X185420Y52340D01*
X177902Y53369D02*
X185420Y60888D01*
X177264Y55605D02*
X182771Y61112D01*
X177623Y55246D02*
X183489Y61112D01*
X180493Y60858D02*
X185420Y55932D01*
X181212Y60858D02*
X185420Y56650D01*
X176905Y55965D02*
X181799Y60858D01*
X179095D02*
X181839D01*
X177902Y52651D02*
X185420Y60169D01*
X177902Y51933D02*
X185420Y59451D01*
X176186Y56683D02*
X180362Y60858D01*
X176546Y56324D02*
X181080Y60858D01*
X175827Y57042D02*
X179643Y60858D01*
X174185Y58685D02*
X177648Y55222D01*
X176174Y53065D02*
Y54252D01*
X172711Y57715D02*
X176174Y54252D01*
X175804Y53427D02*
X176174Y53797D01*
X174211Y60893D02*
X174531D01*
X174185Y60429D02*
X174649Y60893D01*
X174185Y59710D02*
X175368Y60893D01*
X172111D02*
X172457D01*
X174211D02*
X174531D01*
X174185Y58685D02*
Y60893D01*
Y58992D02*
X176086Y60893D01*
X172457Y58327D02*
Y60893D01*
X172060Y59741D02*
X172457Y60138D01*
X172060Y59953D02*
X172457Y59555D01*
X172060Y60459D02*
X172457Y60857D01*
X172060Y60671D02*
X172457Y60273D01*
X172060Y58304D02*
X172457Y58701D01*
X172060Y58516D02*
X172493Y58083D01*
X172060Y59022D02*
X172457Y59420D01*
X172060Y59234D02*
X172457Y58837D01*
X173138Y55072D02*
X174247Y56180D01*
X173498Y54713D02*
X174606Y55821D01*
X172779Y55431D02*
X173887Y56539D01*
X174642Y53702D02*
X175683Y54743D01*
X175317Y53659D02*
X176043Y54384D01*
X173857Y54354D02*
X174965Y55462D01*
X174216Y53994D02*
X175324Y55103D01*
X172061Y56150D02*
X173169Y57258D01*
X172420Y55790D02*
X173528Y56899D01*
X172060Y57585D02*
X172509Y58034D01*
X172060Y56867D02*
X172810Y57617D01*
X172060Y57798D02*
X176174Y53683D01*
X172060Y57079D02*
X175580Y53559D01*
X172060Y56361D02*
X174710Y53711D01*
X172060Y56151D02*
X174529Y53681D01*
X177902Y46904D02*
X185420Y54422D01*
X177902Y47622D02*
X185420Y55140D01*
X177902Y54111D02*
X185420Y46592D01*
X177902Y49059D02*
X185420Y56577D01*
X177902Y48340D02*
X185420Y55859D01*
X177902Y51956D02*
X185420Y44437D01*
X177902Y44030D02*
X185420Y51548D01*
X177902Y46185D02*
X185420Y53704D01*
X177902Y44748D02*
X185420Y52267D01*
X174185Y59983D02*
X185420Y48748D01*
X174185Y59265D02*
X185420Y48029D01*
X176148Y60893D02*
X185420Y51621D01*
X174185Y60701D02*
X185420Y49466D01*
X177902Y45467D02*
X185420Y52985D01*
X177902Y52674D02*
X185420Y45156D01*
X177862Y54869D02*
X185420Y47311D01*
X177902Y53392D02*
X185420Y45874D01*
X177902Y45490D02*
X185420Y37971D01*
X177902Y37564D02*
X185420Y45083D01*
X177902Y48363D02*
X185420Y40845D01*
X177902Y38283D02*
X185420Y45801D01*
X177902Y44053D02*
X185420Y36534D01*
X177902Y43334D02*
X185420Y35816D01*
X177902Y44771D02*
X185420Y37253D01*
X177902Y36846D02*
X185420Y44364D01*
X177902Y50519D02*
X185420Y43000D01*
X177902Y42593D02*
X185420Y50111D01*
X177902Y51237D02*
X185420Y43719D01*
X177902Y43311D02*
X185420Y50830D01*
X177902Y49082D02*
X185420Y41563D01*
X177902Y41156D02*
X185420Y48675D01*
X177902Y49800D02*
X185420Y42282D01*
X177902Y41875D02*
X185420Y49393D01*
X177902Y40438D02*
X185420Y47956D01*
X177902Y49777D02*
X185420Y57296D01*
X177902Y47645D02*
X185420Y40127D01*
X177902Y51214D02*
X185420Y58733D01*
X177902Y50496D02*
X185420Y58014D01*
X177902Y39001D02*
X185420Y46519D01*
X177902Y46208D02*
X185420Y38690D01*
X177902Y39719D02*
X185420Y47238D01*
X177902Y46927D02*
X185420Y39408D01*
X174711Y60893D02*
X185420Y50184D01*
X175430Y60893D02*
X185420Y50903D01*
X176014Y50969D02*
X176174Y50809D01*
Y42309D02*
Y51155D01*
X174156Y50672D02*
X176174Y48654D01*
X175596Y50669D02*
X176174Y50091D01*
X175038Y50508D02*
X176174Y49372D01*
X175925Y42772D02*
X176174Y43021D01*
X175903Y41022D02*
X176174Y40751D01*
X174978Y43262D02*
X176174Y44458D01*
X175533Y43098D02*
X176174Y43740D01*
X177902Y36127D02*
X185420Y43646D01*
X177902Y35409D02*
X185420Y42927D01*
X175501Y40706D02*
X176174Y40033D01*
X174933Y40555D02*
X176174Y39314D01*
X171919Y35892D02*
X176174Y40147D01*
X172278Y35532D02*
X176174Y39429D01*
X171559Y36251D02*
X176174Y40866D01*
X171200Y36610D02*
X175178Y40588D01*
X158628Y49182D02*
X170332Y60887D01*
X158987Y48823D02*
X170332Y60169D01*
X149509Y59461D02*
X149835Y59787D01*
X160065Y47746D02*
X170332Y58013D01*
X160424Y47386D02*
X170332Y57295D01*
X159346Y48464D02*
X170332Y59450D01*
X159705Y48105D02*
X170332Y58732D01*
X149327Y59279D02*
X149509Y59461D01*
X149327D02*
X149835D01*
X149327Y58484D02*
Y59461D01*
X141599Y50832D02*
X148067Y57301D01*
X143442Y50521D02*
X149145Y56223D01*
X143526Y49886D02*
X149504Y55864D01*
X142005Y50521D02*
X148426Y56941D01*
X142724Y50521D02*
X148785Y56582D01*
X170586Y55181D02*
X173308Y52460D01*
X149764Y49658D02*
X152737Y52631D01*
X149074Y50405D02*
X152018Y53349D01*
X149487Y50099D02*
X152378Y52990D01*
X149283Y47740D02*
X153455Y51912D01*
X149633Y47372D02*
X153814Y51553D01*
X149855Y49031D02*
X153096Y52272D01*
X147118Y49886D02*
X151300Y54068D01*
X148496Y50546D02*
X151659Y53709D01*
X144244Y49886D02*
X149863Y55505D01*
X146399Y49886D02*
X150941Y54427D01*
X144963Y49886D02*
X150222Y55145D01*
X145681Y49886D02*
X150582Y54786D01*
X147091Y59776D02*
X147406Y59461D01*
X147091D02*
Y59969D01*
X147406Y59461D02*
X147599Y59268D01*
X140970Y59969D02*
X147091D01*
X146898D02*
X147091Y59776D01*
X146180Y59969D02*
X147599Y58550D01*
X145461Y59969D02*
X147690Y57741D01*
X139803Y52628D02*
X147091Y59917D01*
X147599Y58126D02*
Y59461D01*
X139084Y53347D02*
X145707Y59969D01*
X139443Y52987D02*
X146425Y59969D01*
X138366Y54065D02*
X144270Y59969D01*
X138725Y53706D02*
X144988Y59969D01*
X137098Y61149D02*
X147845Y50402D01*
X137080Y60449D02*
X147434Y50094D01*
X136834Y59976D02*
X146924Y49886D01*
X136500Y59592D02*
X146206Y49886D01*
X147091Y59461D02*
X147599D01*
X143485Y48412D02*
X147276D01*
X146960D02*
X147637Y47736D01*
X146733Y47346D02*
X147513Y48125D01*
X145524Y48412D02*
X146590Y47346D01*
X146242Y48412D02*
X147289Y47366D01*
X140880Y51551D02*
X147599Y58270D01*
X141239Y51191D02*
X147725Y57677D01*
X140162Y52269D02*
X147354Y59461D01*
X140521Y51910D02*
X147599Y58988D01*
X136500Y58873D02*
X145487Y49886D01*
X143485D02*
X147276D01*
X136500Y58155D02*
X144769Y49886D01*
X143231Y47435D02*
X144208Y48412D01*
X164375Y43435D02*
X173287Y52347D01*
X164016Y43794D02*
X172995Y52773D01*
X164734Y43076D02*
X173330Y51672D01*
X163298Y44513D02*
X172276Y53491D01*
X163657Y44154D02*
X172635Y53132D01*
X166530Y41280D02*
X176174Y50924D01*
X165812Y41998D02*
X174390Y50576D01*
X165094Y42717D02*
X173562Y51185D01*
X165453Y42357D02*
X173916Y50820D01*
X160783Y47027D02*
X170332Y56576D01*
X161502Y46309D02*
X170489Y55297D01*
X161142Y46668D02*
X170332Y55858D01*
X149740Y46042D02*
X154533Y50835D01*
X162579Y45231D02*
X171558Y54210D01*
X162938Y44872D02*
X171917Y53851D01*
X161861Y45950D02*
X170839Y54928D01*
X162220Y45590D02*
X171199Y54569D01*
X169045Y38765D02*
X176174Y45895D01*
X169404Y38406D02*
X176174Y45176D01*
X168327Y39484D02*
X176174Y47332D01*
X168686Y39125D02*
X176174Y46613D01*
X170482Y37329D02*
X174017Y40864D01*
X170841Y36969D02*
X174485Y40613D01*
X169763Y38047D02*
X173527Y41811D01*
X170123Y37688D02*
X173691Y41256D01*
X166171Y41639D02*
X175041Y50509D01*
X149540Y43687D02*
X155610Y49757D01*
X149282Y44866D02*
X154892Y50476D01*
X149552Y44417D02*
X155251Y50116D01*
X167608Y40202D02*
X176174Y48769D01*
X167967Y39843D02*
X176174Y48050D01*
X166890Y40921D02*
X176174Y50205D01*
X167249Y40561D02*
X176174Y49487D01*
X146431Y47346D02*
X147276D01*
X144805Y48412D02*
X146007Y47211D01*
X149838Y46858D02*
X154174Y51194D01*
X144087Y48412D02*
X145640Y46859D01*
X143231Y45998D02*
X145645Y48412D01*
X143485Y48296D02*
X145281Y46500D01*
X143231Y46717D02*
X144926Y48412D01*
X143285Y47777D02*
X144921Y46141D01*
X141613Y43663D02*
X146363Y48412D01*
X142332Y43663D02*
X147081Y48412D01*
X142443Y43663D02*
X145910Y47130D01*
X143231Y47113D02*
X144562Y45782D01*
X148844Y45146D02*
X149030Y45332D01*
X148703Y45233D02*
X148765Y45172D01*
X147877Y45341D02*
X148074Y45144D01*
X148147Y45167D02*
X148214Y45234D01*
X146681Y45818D02*
X147639Y44861D01*
X146736Y45872D02*
X147276D01*
X146322Y45459D02*
X147372Y44409D01*
X143269Y42405D02*
X146736Y45872D01*
X145963Y45099D02*
X147392Y43671D01*
X131843Y63348D02*
X142790Y74295D01*
X131125Y63348D02*
X142072Y74295D01*
X132561Y63348D02*
X143509Y74295D01*
X129688Y63348D02*
X140635Y74295D01*
X130406Y63348D02*
X141354Y74295D01*
X130417D02*
X143016Y61697D01*
X131136Y74295D02*
X143734Y61697D01*
X128981Y74295D02*
X141579Y61697D01*
X129699Y74295D02*
X142297Y61697D01*
X126825Y74295D02*
X137773Y63348D01*
X127532D02*
X138480Y74295D01*
X122515D02*
X133462Y63348D01*
X124670Y74295D02*
X135617Y63348D01*
X128262Y74295D02*
X139210Y63348D01*
X128969D02*
X139917Y74295D01*
X127544D02*
X138491Y63348D01*
X128251D02*
X139198Y74295D01*
X126107D02*
X137054Y63348D01*
X126814D02*
X137761Y74295D01*
X125388D02*
X136336Y63348D01*
X126096D02*
X137043Y74295D01*
X139931Y63094D02*
X141328Y61697D01*
X136886Y61620D02*
X138961D01*
X124659Y63348D02*
X135606Y74295D01*
X125377Y63348D02*
X136325Y74295D01*
X123940Y63348D02*
X134888Y74295D01*
X123952D02*
X134899Y63348D01*
X123233Y74295D02*
X134181Y63348D01*
X124186Y61620D02*
X134640D01*
X122503Y63348D02*
X133451Y74295D01*
X123222Y63348D02*
X134169Y74295D01*
X120348Y63348D02*
X131296Y74295D01*
X119641D02*
X130588Y63348D01*
X120359Y74295D02*
X131307Y63348D01*
X118923Y74295D02*
X129870Y63348D01*
X119630D02*
X130577Y74295D01*
X121785Y63348D02*
X132732Y74295D01*
X121796D02*
X132744Y63348D01*
X121067D02*
X132014Y74295D01*
X121078D02*
X132025Y63348D01*
X116767Y74295D02*
X127715Y63348D01*
X117475D02*
X128422Y74295D01*
X116049D02*
X126996Y63348D01*
X116756D02*
X127704Y74295D01*
X118204D02*
X129152Y63348D01*
X118911D02*
X129859Y74295D01*
X117486D02*
X128433Y63348D01*
X118193D02*
X129140Y74295D01*
X114601Y63348D02*
X125548Y74295D01*
X114612D02*
X125560Y63348D01*
X113882D02*
X124830Y74295D01*
X113894D02*
X124841Y63348D01*
X115331Y74295D02*
X126278Y63348D01*
X116038D02*
X126985Y74295D01*
X115319Y63348D02*
X126267Y74295D01*
X119166Y61620D02*
X121940D01*
X111727Y63348D02*
X122675Y74295D01*
X111739D02*
X122686Y63348D01*
X111009D02*
X121956Y74295D01*
X111020D02*
X121968Y63348D01*
X113164D02*
X124111Y74295D01*
X113175D02*
X124123Y63348D01*
X112446D02*
X123393Y74295D01*
X112457D02*
X123404Y63348D01*
X137131Y60733D02*
X138018Y61620D01*
X137032Y61353D02*
X137300Y61620D01*
X138961D02*
X140358Y60223D01*
X133034Y61620D02*
X135026Y59628D01*
X136500Y59383D02*
X138737Y61620D01*
X128724D02*
X140995Y49349D01*
X130160Y61620D02*
X135026Y56754D01*
X132316Y61620D02*
X135026Y58910D01*
X126568Y61620D02*
X141249Y46939D01*
X125850Y61620D02*
X141249Y46221D01*
X128005Y61620D02*
X140995Y48630D01*
X127287Y61620D02*
X140995Y47912D01*
X124413Y61620D02*
X142371Y43663D01*
X125132Y61620D02*
X142766Y43986D01*
X119384Y61620D02*
X137342Y43663D01*
X120103Y61620D02*
X138060Y43663D01*
X137288Y55143D02*
X142115Y59969D01*
X138006Y54424D02*
X143552Y59969D01*
X136570Y55861D02*
X140716Y60008D01*
X136929Y55502D02*
X141396Y59969D01*
X136500Y57228D02*
X139927Y60655D01*
X136500Y56509D02*
X140286Y60296D01*
X136500Y58665D02*
X139208Y61373D01*
X136500Y57946D02*
X139567Y61014D01*
X124434Y60881D02*
X141653Y43663D01*
X124318Y60279D02*
X140934Y43663D01*
X119414Y60872D02*
X136624Y43663D01*
X119295Y60273D02*
X135905Y43663D01*
X134471Y61620D02*
X134574Y61517D01*
X130879Y61620D02*
X135026Y57473D01*
X131597Y61620D02*
X135026Y58191D01*
X133752Y61620D02*
X134399Y60974D01*
X115074Y61620D02*
X133032Y43663D01*
X129442Y61620D02*
X135026Y56036D01*
X113637Y61620D02*
X131595Y43663D01*
X114355Y61620D02*
X132313Y43663D01*
X111003Y43945D02*
X128679Y61620D01*
X112200D02*
X130158Y43663D01*
X110854Y45233D02*
X127242Y61620D01*
X111071Y44731D02*
X127961Y61620D01*
X112918D02*
X130876Y43663D01*
X111541Y38735D02*
X134426Y61620D01*
X110763D02*
X128721Y43663D01*
X111482Y61620D02*
X129439Y43663D01*
X121540Y61620D02*
X121798Y61362D01*
X124257Y61509D02*
X124368Y61620D01*
X119233Y61514D02*
X119339Y61620D01*
X119408Y60970D02*
X120058Y61620D01*
X124429Y60962D02*
X125087Y61620D01*
X120821D02*
X121694Y60747D01*
X111030Y51156D02*
X121495Y61620D01*
X115792D02*
X116675Y60738D01*
X116511Y61620D02*
X116775Y61356D01*
X112259Y38735D02*
X134392Y60868D01*
X112978Y38735D02*
X134512Y60270D01*
X111354Y50761D02*
X121724Y61132D01*
X111354Y50042D02*
X121749Y60438D01*
X103118Y74295D02*
X114065Y63348D01*
X103106D02*
X114054Y74295D01*
X103825Y63348D02*
X114772Y74295D01*
X102388Y63348D02*
X113335Y74295D01*
X102399D02*
X113347Y63348D01*
X104554Y74295D02*
X115502Y63348D01*
X105261D02*
X116209Y74295D01*
X103836D02*
X114783Y63348D01*
X104543D02*
X115490Y74295D01*
X100232Y63348D02*
X111180Y74295D01*
X100244D02*
X111191Y63348D01*
X99514D02*
X110461Y74295D01*
X99525D02*
X110473Y63348D01*
X101669D02*
X112617Y74295D01*
X101681D02*
X112628Y63348D01*
X100951D02*
X111898Y74295D01*
X100962D02*
X111910Y63348D01*
X108853D02*
X119801Y74295D01*
X108865D02*
X119812Y63348D01*
X108135D02*
X119082Y74295D01*
X108146D02*
X119094Y63348D01*
X110290D02*
X121238Y74295D01*
X110302D02*
X121249Y63348D01*
X109572D02*
X120519Y74295D01*
X109583D02*
X120531Y63348D01*
X105991Y74295D02*
X116939Y63348D01*
X99060D02*
X139319D01*
X105273Y74295D02*
X116220Y63348D01*
X105980D02*
X116927Y74295D01*
X107417Y63348D02*
X118364Y74295D01*
X107428D02*
X118375Y63348D01*
X106698D02*
X117646Y74295D01*
X106710D02*
X117657Y63348D01*
X97370Y74295D02*
X108318Y63348D01*
X96652Y74295D02*
X107599Y63348D01*
X98089Y74295D02*
X109036Y63348D01*
X95215Y74295D02*
X106162Y63348D01*
X95933Y74295D02*
X106881Y63348D01*
X98730Y63282D02*
X109743Y74295D01*
X98807D02*
X109754Y63348D01*
X96216Y62205D02*
X108306Y74295D01*
X96934Y62205D02*
X109025Y74295D01*
X93778D02*
X104725Y63348D01*
X94496Y74295D02*
X105444Y63348D01*
X92804Y63103D02*
X103996Y74295D01*
X93060D02*
X104007Y63348D01*
X93882Y62026D02*
X106151Y74295D01*
X94271Y61697D02*
X106869Y74295D01*
X93163Y62744D02*
X104714Y74295D01*
X93522Y62385D02*
X105432Y74295D01*
X92445Y63463D02*
X103277Y74295D01*
X97559Y62205D02*
X98448Y63094D01*
X96037Y62026D02*
X96216Y62205D01*
X96037D02*
X97559D01*
X95708Y61697D02*
X96037Y62026D01*
X94211Y61697D02*
X96037D01*
X91401Y63856D02*
X101840Y74295D01*
X92045Y63781D02*
X102559Y74295D01*
X91623D02*
X102570Y63348D01*
X92341Y74295D02*
X103289Y63348D01*
X90904Y74295D02*
X101852Y63348D01*
X92306Y63602D02*
X94211Y61697D01*
X109326Y61620D02*
X127284Y43663D01*
X108608Y61620D02*
X126566Y43663D01*
X110045Y61620D02*
X128003Y43663D01*
X109983Y45798D02*
X125805Y61620D01*
X110492Y45589D02*
X126524Y61620D01*
X109850Y38481D02*
X132989Y61620D01*
X110568Y38481D02*
X133708Y61620D01*
X108667Y38735D02*
X131553Y61620D01*
X109132Y38481D02*
X132271Y61620D01*
X107171D02*
X125129Y43663D01*
X107890Y61620D02*
X125847Y43663D01*
X105734Y61620D02*
X123692Y43663D01*
X106453Y61620D02*
X124410Y43663D01*
X107230Y38735D02*
X130116Y61620D01*
X107949Y38735D02*
X130834Y61620D01*
X105016D02*
X123031Y43605D01*
X106512Y38735D02*
X129397Y61620D01*
X110311Y51156D02*
X120776Y61620D01*
X104297D02*
X122634Y43284D01*
X99418Y61620D02*
X116920D01*
X108156Y51156D02*
X116974Y59973D01*
X102861Y61620D02*
X121915Y42566D01*
X103579Y61620D02*
X122274Y42925D01*
X101424Y61620D02*
X121197Y41847D01*
X102142Y61620D02*
X121556Y42207D01*
X98597Y47344D02*
X112874Y61620D01*
X98790Y46819D02*
X113592Y61620D01*
X98796Y48979D02*
X111437Y61620D01*
X98255Y47720D02*
X112155Y61620D01*
X98508Y44382D02*
X115747Y61620D01*
X98456Y43611D02*
X116466Y61620D01*
X98642Y45952D02*
X114311Y61620D01*
X98251Y44842D02*
X115029Y61620D01*
X99987D02*
X110452Y51156D01*
X97487Y50544D02*
X108563Y61620D01*
X100705D02*
X111170Y51156D01*
X98781Y60459D02*
X99942Y61620D01*
X98781Y59741D02*
X100660Y61620D01*
X98455Y50075D02*
X110000Y61620D01*
X98723Y49625D02*
X110718Y61620D01*
X96110Y49886D02*
X107845Y61620D01*
X98051Y50390D02*
X109282Y61620D01*
X94989Y61697D02*
X107588Y74295D01*
X95391Y49886D02*
X107126Y61620D01*
X96037Y61697D02*
Y62205D01*
X91336Y62128D02*
X93241Y60223D01*
X90858Y62128D02*
X108367Y44619D01*
X94673Y49886D02*
X106408Y61620D01*
X93236Y49886D02*
X104971Y61620D01*
X93955Y49886D02*
X105689Y61620D01*
X98781Y60983D02*
X99418Y61620D01*
X98781Y59461D02*
Y60983D01*
X96037Y59461D02*
Y59969D01*
X95891D02*
X96037Y59823D01*
X99343Y61546D02*
X109733Y51156D01*
X98984Y61187D02*
X109015Y51156D01*
X98781Y60671D02*
X108296Y51156D01*
X94454Y59969D02*
X108888Y45535D01*
X91716Y50521D02*
X102816Y61620D01*
X93853Y59969D02*
X96037D01*
X92518Y49886D02*
X104253Y61620D01*
X93726Y59979D02*
X108551Y45154D01*
X90998Y50521D02*
X102097Y61620D01*
X92177Y50263D02*
X103534Y61620D01*
X143415Y50521D02*
X143485Y50451D01*
X141910Y50521D02*
X143485D01*
Y50451D02*
X144050Y49886D01*
X143485D02*
Y50521D01*
Y47777D02*
Y48412D01*
X143231Y45745D02*
Y47777D01*
X143485D01*
X141249Y45745D02*
Y47777D01*
X141130D02*
X141249Y47658D01*
X137647Y54783D02*
X142833Y59969D01*
X136500Y57436D02*
X143415Y50521D01*
X136500Y56718D02*
X142697Y50521D01*
X136500Y56000D02*
X141979Y50521D01*
X136500Y55931D02*
X141910Y50521D01*
X140995Y47777D02*
X141249D01*
X140995Y47912D02*
X141130Y47777D01*
X137303Y43663D02*
X141249Y47609D01*
X143231Y46395D02*
X144203Y45423D01*
X143162Y45745D02*
X143844Y45063D01*
X142443Y45745D02*
X143484Y44704D01*
X141725Y45745D02*
X143125Y44345D01*
X140895Y43663D02*
X142978Y45745D01*
X141249D02*
X143231D01*
X140176Y43663D02*
X142259Y45745D01*
X139458Y43663D02*
X141541Y45745D01*
X123317Y43663D02*
X142443D01*
X138021D02*
X141249Y46891D01*
X138740Y43663D02*
X141249Y46172D01*
X136500Y55931D02*
Y59676D01*
X135242Y55105D02*
X140995Y49352D01*
X135026Y55626D02*
Y59676D01*
X126526Y43663D02*
X136606Y53742D01*
X127245Y43663D02*
X136965Y53383D01*
X125090Y43663D02*
X135887Y54460D01*
X125808Y43663D02*
X136246Y54101D01*
X118999Y59850D02*
X135187Y43663D01*
X122977Y59464D02*
X138779Y43663D01*
X118566Y59565D02*
X134468Y43663D01*
X117948Y59465D02*
X133750Y43663D01*
X124024Y59854D02*
X140216Y43663D01*
X123592Y59568D02*
X139497Y43663D01*
X123653D02*
X135174Y55184D01*
X124371Y43663D02*
X135528Y54819D01*
X140995Y47777D02*
Y49352D01*
X135866Y43663D02*
X140995Y48792D01*
X135147Y43663D02*
X140916Y49431D01*
X136584Y43663D02*
X140995Y48074D01*
X133711Y43663D02*
X140198Y50150D01*
X134429Y43663D02*
X140557Y49790D01*
X132274Y43663D02*
X139479Y50868D01*
X132992Y43663D02*
X139838Y50509D01*
X130837Y43663D02*
X138761Y51586D01*
X131555Y43663D02*
X139120Y51227D01*
X129400Y43663D02*
X138042Y52305D01*
X130118Y43663D02*
X138402Y51946D01*
X127963Y43663D02*
X137324Y53023D01*
X128682Y43663D02*
X137683Y52664D01*
X126686Y38075D02*
X130801Y42189D01*
X125967Y38075D02*
X130082Y42189D01*
X127404Y38075D02*
X131519Y42189D01*
X123812Y38075D02*
X127927Y42189D01*
X125249Y38075D02*
X129364Y42189D01*
X127483Y36716D02*
X132956Y42189D01*
X127483Y35998D02*
X133674Y42189D01*
X124054Y37598D02*
X128645Y42189D01*
X127483Y37435D02*
X132237Y42189D01*
X119632Y40361D02*
X135026Y55755D01*
X123622Y42189D02*
X142748D01*
X118195Y40361D02*
X135026Y57192D01*
X118914Y40361D02*
X135026Y56473D01*
X122375Y38075D02*
X126490Y42189D01*
X123094Y38075D02*
X127208Y42189D01*
X120625Y37761D02*
X125053Y42189D01*
X121657Y38075D02*
X125772Y42189D01*
X124739Y38075D02*
X127483D01*
X126848Y35331D02*
X127483D01*
X124054Y36879D02*
X124739Y37565D01*
X124054Y37554D02*
X124739Y36868D01*
X127483Y35331D02*
Y38075D01*
X124739Y35331D02*
X125374D01*
X124739D02*
Y38075D01*
Y35431D02*
X124839Y35331D01*
X123316Y41883D02*
X127125Y38075D01*
X122957Y41524D02*
X126406Y38075D01*
X122598Y41165D02*
X125688Y38075D01*
X122238Y40806D02*
X124970Y38075D01*
X124054Y35442D02*
X124739Y36128D01*
X124054Y36117D02*
X124739Y35431D01*
X124054Y36161D02*
X124739Y36847D01*
X124054Y36835D02*
X124739Y36149D01*
X120625Y39192D02*
X123622Y42189D01*
X120625Y38479D02*
X124335Y42189D01*
X121520Y40087D02*
X123533Y38075D01*
X121161Y39728D02*
X122814Y38075D01*
X120802Y39369D02*
X122096Y38075D01*
X121879Y40446D02*
X124739Y37586D01*
X121310Y37728D02*
X121657Y38075D01*
X120625Y37617D02*
Y38075D01*
Y37617D02*
Y38075D01*
X119710Y40361D02*
X122796Y43447D01*
X120625Y38075D02*
Y39192D01*
X118135Y40301D02*
X118195Y40361D01*
X118135D02*
X119710D01*
X120625Y38827D02*
X121377Y38075D01*
X120625Y38109D02*
X121294Y37440D01*
X118135Y38075D02*
Y40361D01*
X114046Y36211D02*
X118135Y40301D01*
X121310Y38075D02*
X124054D01*
X121022Y37440D02*
X121310Y37728D01*
Y37440D02*
Y38075D01*
X120625Y37440D02*
Y37617D01*
X124054Y35331D02*
Y38075D01*
X123943Y35331D02*
X124054Y35442D01*
X120625Y37440D02*
X121310D01*
X120625Y35606D02*
X120985Y35966D01*
X120625D02*
X121310D01*
X120350Y35331D02*
X120625Y35606D01*
X118135Y37617D02*
Y38075D01*
Y37617D02*
Y38075D01*
X120625Y35331D02*
Y35966D01*
X118135Y35331D02*
X118643D01*
X118135D02*
Y37617D01*
Y35569D02*
X118373Y35331D01*
X111354Y49324D02*
X121998Y59969D01*
X108875Y51156D02*
X117362Y59643D01*
X109593Y51156D02*
X117906Y59468D01*
X108102Y51156D02*
X111354D01*
X111170D02*
X111354Y50972D01*
Y48606D02*
X122387Y59639D01*
X109169Y45702D02*
X122934Y59467D01*
X108102Y47904D02*
Y51156D01*
X111354Y47904D02*
Y51156D01*
X98781Y59953D02*
X108102Y50631D01*
X98554Y59461D02*
X108102Y49913D01*
X98501Y59461D02*
X98781Y59741D01*
X96037Y59461D02*
X98781D01*
X95172Y59969D02*
X109368Y45774D01*
X96399Y59461D02*
X110086Y45774D01*
X97117Y59461D02*
X108102Y48476D01*
X97835Y59461D02*
X108102Y49194D01*
Y47904D02*
X111354D01*
X97688Y45240D02*
X97777Y45151D01*
X97824Y45134D02*
X98066Y45376D01*
X95953Y48412D02*
X96610Y47755D01*
X96903Y45307D02*
X97054Y45156D01*
X95234Y48412D02*
X96253Y47394D01*
X92177Y49886D02*
X96222D01*
X95725Y47346D02*
X96483Y48103D01*
X94516Y48412D02*
X95583Y47346D01*
X95007D02*
X96074Y48412D01*
X93798D02*
X94864Y47346D01*
X94284Y47342D02*
X95355Y48412D01*
X92361D02*
X93742Y47031D01*
X93079Y48412D02*
X94171Y47321D01*
X92177Y48108D02*
X92481Y48412D01*
X92177D02*
X96222D01*
X92177Y49886D02*
Y50521D01*
Y50033D02*
X92324Y49886D01*
X91923Y46417D02*
X93918Y48412D01*
X90776Y44552D02*
X94637Y48412D01*
X92177Y47777D02*
Y48412D01*
X91923Y47135D02*
X93200Y48412D01*
X94361Y47346D02*
X96222D01*
X92177Y47878D02*
X93382Y46672D01*
X94901Y45872D02*
X96329Y44444D01*
X95619Y45872D02*
X96608Y44884D01*
X91923Y45977D02*
X92305Y45595D01*
X94666Y45872D02*
X96222D01*
X91923Y47414D02*
X93023Y46313D01*
X91923Y46695D02*
X92664Y45954D01*
X91923Y47777D02*
X92177D01*
X91262Y44552D02*
X93840Y47130D01*
X91436Y45745D02*
X91946Y45235D01*
X91923Y45745D02*
Y47777D01*
X111354Y50254D02*
X120478Y41129D01*
X111354Y50972D02*
X120838Y41488D01*
X111354Y49535D02*
X120119Y40770D01*
X111354Y48817D02*
X119760Y40411D01*
X111354Y48098D02*
X119091Y40361D01*
X114046Y37648D02*
X135026Y58628D01*
X114046Y36930D02*
X135026Y57910D01*
X113696Y38735D02*
X134809Y59848D01*
X114046Y38366D02*
X135026Y59347D01*
X109392Y47904D02*
X118135Y39161D01*
X110829Y47904D02*
X118373Y40361D01*
X110111Y47904D02*
X118135Y39880D01*
X111052Y44090D02*
X118135Y37006D01*
X110813Y43610D02*
X118135Y36288D01*
X108674Y47904D02*
X118135Y38443D01*
X111052Y44808D02*
X118135Y37725D01*
X111252Y38446D02*
X111541Y38735D01*
X111252D02*
X114046D01*
X111252Y38481D02*
Y38735D01*
Y36195D02*
Y38481D01*
X114046Y35941D02*
Y38735D01*
X113776Y35941D02*
X114046Y36211D01*
X111252Y36195D02*
Y38481D01*
Y35941D02*
Y36195D01*
X108942Y43326D02*
X113533Y38735D01*
X108966Y38481D02*
X111252D01*
X111156Y36195D02*
X111252Y36291D01*
X110432Y43273D02*
X118135Y35569D01*
X111252Y35941D02*
X114046D01*
X108966Y36195D02*
X111252D01*
X111044D02*
X111252Y35987D01*
X98677Y48562D02*
X108504Y38735D01*
X98378Y48143D02*
X107785Y38735D01*
X98725Y47077D02*
X107067Y38735D01*
X98774Y46310D02*
X106349Y38735D01*
X98806Y49151D02*
X109476Y38481D01*
X98555Y45810D02*
X106172Y38193D01*
X98491Y44437D02*
X106172Y36756D01*
X98496Y43714D02*
X106172Y36038D01*
X94424Y45630D02*
X96314Y43740D01*
X98194Y45453D02*
X106172Y37475D01*
X92088Y43294D02*
X94666Y45872D01*
X108966Y38481D02*
Y38735D01*
Y38315D02*
X109132Y38481D01*
X108966Y36195D02*
Y38481D01*
Y36195D02*
Y38481D01*
Y35941D02*
Y36195D01*
X106172Y38395D02*
X106512Y38735D01*
X106172D02*
X108966D01*
X108747Y35941D02*
X108966Y36160D01*
X106172Y35941D02*
X108966D01*
X106172D02*
Y38735D01*
Y36038D02*
X106269Y35941D01*
X177902Y34690D02*
X185420Y42209D01*
X177902Y42616D02*
X185420Y35098D01*
X177902Y41898D02*
X185420Y34379D01*
X177902Y33869D02*
Y54610D01*
Y33972D02*
X185420Y41490D01*
X177902Y39742D02*
X185420Y32224D01*
X177902Y36150D02*
X185420Y28632D01*
X177902Y41179D02*
X185420Y33661D01*
X177902Y40461D02*
X185420Y32942D01*
X176275Y30908D02*
X185420Y40054D01*
X177902Y38306D02*
X185420Y30787D01*
X176484Y31836D02*
X185420Y40772D01*
X177902Y39024D02*
X185420Y31506D01*
X177902Y35432D02*
X185420Y27913D01*
X177902Y34713D02*
X185420Y27195D01*
X177902Y37587D02*
X185420Y30069D01*
X177902Y36869D02*
X185420Y29350D01*
X177902Y33995D02*
X185420Y26477D01*
X177769Y33409D02*
X185420Y25758D01*
X176707Y32316D02*
X185420Y23603D01*
X176485Y31820D02*
X185420Y22884D01*
X177425Y33035D02*
X185420Y25040D01*
X177066Y32675D02*
X185420Y24321D01*
X176450Y32060D02*
X177648Y33257D01*
X176401Y31185D02*
X185420Y22166D01*
X175280Y30151D02*
X185420Y20011D01*
X174585Y30128D02*
X185420Y19292D01*
X176148Y30720D02*
X185420Y21448D01*
X175776Y30373D02*
X185420Y20729D01*
X149835Y60625D02*
X176174Y34285D01*
X149835Y61344D02*
X176174Y35004D01*
Y34227D02*
Y41511D01*
X149835Y59907D02*
X175844Y33897D01*
X149561Y59461D02*
X175485Y33538D01*
X149327Y58978D02*
X174989Y33316D01*
X149327Y58484D02*
X174529Y33281D01*
X147853Y57514D02*
X173308Y32060D01*
X145517Y24576D02*
X163154Y42214D01*
X144743Y59969D02*
X173296Y31416D01*
X145302Y26518D02*
X162076Y43291D01*
X143147Y26518D02*
X160999Y44369D01*
X144584Y26518D02*
X161717Y43651D01*
X145517Y25295D02*
X162795Y42573D01*
X145517Y23858D02*
X163513Y41855D01*
X143866Y26518D02*
X161358Y44010D01*
X145517Y26013D02*
X162435Y42932D01*
X173715Y34096D02*
X176174Y36555D01*
X174074Y33736D02*
X176174Y35837D01*
X172996Y34814D02*
X176174Y37992D01*
X173355Y34455D02*
X176174Y37274D01*
X174433Y33377D02*
X176174Y35118D01*
X175081Y33307D02*
X176174Y34400D01*
X175229Y33281D02*
X176174Y34227D01*
X145517Y22421D02*
X164232Y41136D01*
X172637Y35173D02*
X176174Y38711D01*
X145517Y23140D02*
X163872Y41495D01*
X145517Y24232D02*
Y26518D01*
X145418Y20168D02*
X165309Y40059D01*
X145644Y19675D02*
X165668Y39699D01*
X145517Y21703D02*
X164591Y40777D01*
X145009Y20476D02*
X164950Y40418D01*
X149802Y47008D02*
X185420Y11390D01*
X149408Y48120D02*
X185420Y12108D01*
X149819Y46272D02*
X185420Y10671D01*
X149859Y49106D02*
X185420Y13545D01*
X149716Y48531D02*
X185420Y12827D01*
Y1905D02*
Y74295D01*
X149538Y43680D02*
X185420Y7798D01*
X149590Y45783D02*
X185420Y9953D01*
X149566Y44371D02*
X185420Y8516D01*
X149220Y45435D02*
X185420Y9234D01*
X145604Y44740D02*
X185420Y4924D01*
X144025Y59969D02*
X185420Y18574D01*
X143306Y59969D02*
X185420Y17856D01*
X144526Y43662D02*
X185420Y2769D01*
X144167Y43303D02*
X185420Y2050D01*
X145245Y44381D02*
X185420Y4206D01*
X144885Y44022D02*
X185420Y3487D01*
X158048Y1905D02*
X185420Y29277D01*
X158766Y1905D02*
X185420Y28559D01*
X152300Y1905D02*
X185420Y35025D01*
X155174Y1905D02*
X185420Y32151D01*
X161640Y1905D02*
X185420Y25685D01*
X162358Y1905D02*
X185420Y24967D01*
X159485Y1905D02*
X185420Y27840D01*
X160203Y1905D02*
X185420Y27122D01*
X148065Y42998D02*
X185420Y5642D01*
X150145Y1905D02*
X185420Y37180D01*
X149255Y43245D02*
X185420Y7079D01*
X148803Y42978D02*
X185420Y6361D01*
X147990Y1905D02*
X185420Y39335D01*
X148708Y1905D02*
X185420Y38617D01*
X149427Y1905D02*
X185420Y37898D01*
X151582Y1905D02*
X185420Y35743D01*
X145517Y15237D02*
X167824Y37544D01*
X145517Y15955D02*
X167464Y37903D01*
X145517Y14519D02*
X168183Y37185D01*
X145644Y18956D02*
X166028Y39340D01*
X145644Y18238D02*
X166387Y38981D01*
X150864Y1905D02*
X185420Y36461D01*
X145517Y11645D02*
X169620Y35748D01*
X145517Y13800D02*
X168542Y36826D01*
X145517Y12363D02*
X169260Y36107D01*
X145517Y13082D02*
X168901Y36466D01*
X145009Y10418D02*
X169979Y35389D01*
X145009Y16884D02*
X166746Y38622D01*
X145009Y16166D02*
X167105Y38262D01*
X143808Y42944D02*
X184847Y1905D01*
X143449Y42585D02*
X184129Y1905D01*
X145009Y9700D02*
X170338Y35030D01*
X144985Y8958D02*
X170697Y34670D01*
X153737Y1905D02*
X185420Y33588D01*
X154456Y1905D02*
X185420Y32869D01*
X153019Y1905D02*
X185420Y34306D01*
X147271Y1905D02*
X175681Y30314D01*
X157329Y1905D02*
X185420Y29996D01*
X160921Y1905D02*
X185420Y26404D01*
X155892Y1905D02*
X185420Y31433D01*
X156611Y1905D02*
X185420Y30714D01*
X144398Y1905D02*
X173454Y30961D01*
X145116Y1905D02*
X173762Y30551D01*
X143679Y1905D02*
X173282Y31508D01*
X145517Y26149D02*
X169760Y1905D01*
X145835D02*
X174187Y30257D01*
X146553Y1905D02*
X174753Y30105D01*
X145517Y25430D02*
X169042Y1905D01*
X145517Y24712D02*
X168323Y1905D01*
X140229Y29347D02*
X158125Y47243D01*
X140200Y28599D02*
X158484Y46884D01*
X140470Y28151D02*
X158843Y46524D01*
X140363Y30917D02*
X157407Y47961D01*
X140543Y30379D02*
X157766Y47602D01*
X141075Y25883D02*
X160280Y45087D01*
X141794Y25883D02*
X160639Y44728D01*
X140539Y27502D02*
X159203Y46165D01*
X140357Y25883D02*
X159921Y45447D01*
X139547Y31538D02*
X156688Y48680D01*
X140026Y31299D02*
X157047Y48320D01*
X138825Y31535D02*
X156329Y49039D01*
X132932Y31389D02*
X147332Y45789D01*
X132603Y26032D02*
X155970Y49398D01*
X139997Y26241D02*
X159562Y45806D01*
X132932Y30670D02*
X147700Y45439D01*
X132932Y29952D02*
X147365Y44385D01*
X140539Y30407D02*
X144429Y26518D01*
X143027D02*
X145517D01*
X140469Y29759D02*
X143711Y26518D01*
X143027Y26398D02*
X143147Y26518D01*
X143027Y25883D02*
Y26518D01*
X140335Y25883D02*
X143027D01*
X140243Y28548D02*
X142909Y25883D01*
X142512D02*
X143027Y26398D01*
X132932Y29234D02*
X147386Y43688D01*
X132761Y28345D02*
X147666Y43250D01*
X132410Y31586D02*
X143107Y42283D01*
X131691Y31586D02*
X142295Y42189D01*
X132203Y26350D02*
X148845Y42992D01*
X132927Y27793D02*
X148115Y42980D01*
X129476Y42189D02*
X145148Y26518D01*
X140198Y29312D02*
X143027Y26483D01*
X130255Y31586D02*
X140858Y42189D01*
X129421Y31471D02*
X140140Y42189D01*
X130973Y31586D02*
X141577Y42189D01*
X128039D02*
X138725Y31503D01*
X128757Y42189D02*
X139373Y31573D01*
X127984Y31471D02*
X138703Y42189D01*
X128703Y31471D02*
X139422Y42189D01*
X127266Y31471D02*
X137985Y42189D01*
X127321D02*
X138278Y31232D01*
X126848Y32489D02*
X136548Y42189D01*
X126848Y31771D02*
X137266Y42189D01*
X126848Y33926D02*
X135111Y42189D01*
X126848Y33207D02*
X135830Y42189D01*
X124447D02*
X138117Y28519D01*
X125165Y42189D02*
X138499Y28856D01*
X123728Y42189D02*
X137879Y28039D01*
X126602Y42189D02*
X137970Y30822D01*
X139789Y28907D02*
X140071Y29189D01*
X139788Y29004D02*
X140054Y28737D01*
X140362Y26993D02*
X141472Y25883D01*
X140025Y26611D02*
X140754Y25883D01*
X126848Y34644D02*
X134393Y42189D01*
X125884D02*
X137832Y30241D01*
X132247Y28866D02*
X132932D01*
Y31549D02*
X138305Y26176D01*
X127483Y37717D02*
X137884Y27316D01*
X142588Y59969D02*
X185420Y17137D01*
X141151Y59969D02*
X185420Y15700D01*
X141869Y59969D02*
X185420Y16419D01*
X143058Y42258D02*
X183410Y1905D01*
X142407Y42189D02*
X182692Y1905D01*
X140971Y42189D02*
X181255Y1905D01*
X141689Y42189D02*
X181973Y1905D01*
X139534Y42189D02*
X179818Y1905D01*
X140252Y42189D02*
X180536Y1905D01*
X138781Y61620D02*
X185420Y14982D01*
X138063Y61620D02*
X185420Y14263D01*
X135223Y42189D02*
X175508Y1905D01*
X138097Y42189D02*
X178381Y1905D01*
X137378Y42189D02*
X177663Y1905D01*
X138815Y42189D02*
X179100Y1905D01*
X135942Y42189D02*
X176226Y1905D01*
X136660Y42189D02*
X176944Y1905D01*
X141415Y3951D02*
X171416Y33952D01*
X141319Y3137D02*
X171775Y33593D01*
X141299Y4554D02*
X171057Y34311D01*
X142227Y24409D02*
X143027Y23609D01*
X142242Y1905D02*
X172853Y32515D01*
X142961Y1905D02*
X173212Y32156D01*
X140806Y1905D02*
X172134Y33234D01*
X141524Y1905D02*
X172493Y32874D01*
X133786Y42189D02*
X174071Y1905D01*
X134505Y42189D02*
X174789Y1905D01*
X133068Y42189D02*
X173352Y1905D01*
X140335Y24409D02*
X143027D01*
X131631Y42189D02*
X171915Y1905D01*
X132349Y42189D02*
X172634Y1905D01*
X130194Y42189D02*
X170479Y1905D01*
X130913Y42189D02*
X171197Y1905D01*
X140543Y27530D02*
X142190Y25883D01*
X132932Y30831D02*
X137987Y25776D01*
X132932Y30113D02*
X137834Y25210D01*
X132909Y24901D02*
X137880Y29871D01*
X132932Y29394D02*
X138531Y23794D01*
X132897Y27992D02*
X137890Y22999D01*
X132923Y22759D02*
X137833Y27669D01*
X132874Y27296D02*
X137866Y22304D01*
X132743Y23297D02*
X138501Y29055D01*
X132741Y28866D02*
X138140Y23467D01*
X132863Y25573D02*
X137883Y30593D01*
X132406Y23679D02*
X138119Y29392D01*
X132625Y26827D02*
X140868Y18584D01*
X132235Y26499D02*
X143027Y15706D01*
X132609Y21727D02*
X137971Y27089D01*
X113506Y1905D02*
X138279Y26678D01*
X143027Y24232D02*
Y24409D01*
X142945D02*
X143027Y24327D01*
X140175Y23545D02*
X141039Y24409D01*
X140790D02*
X143027Y22172D01*
X141508Y24409D02*
X143027Y22890D01*
X140456Y23108D02*
X141757Y24409D01*
X140546Y22479D02*
X142476Y24409D01*
X132930Y25085D02*
X143027Y14988D01*
X132778Y24519D02*
X143027Y14269D01*
X115661Y1905D02*
X138097Y24341D01*
X114224Y1905D02*
X137906Y25587D01*
X114942Y1905D02*
X137869Y24832D01*
X145517Y21488D02*
Y23774D01*
X145302Y21488D02*
X145517Y21703D01*
X145009Y21488D02*
X145517D01*
Y23774D02*
Y24232D01*
Y23774D02*
Y24232D01*
X145644Y17678D02*
Y20168D01*
X145009D02*
X145644D01*
X145009D02*
Y21488D01*
Y21195D02*
X145302Y21488D01*
X145009Y17603D02*
X145084Y17678D01*
X145009D02*
X145644D01*
X143263Y20168D02*
X143535Y20440D01*
X142900Y17678D02*
X143535D01*
X143210D02*
X143535Y17353D01*
X145009Y16104D02*
Y17678D01*
X142238Y17932D02*
X143535Y16635D01*
Y16104D02*
Y17678D01*
X145517Y13818D02*
Y16104D01*
X145009D02*
X145517D01*
X145009Y16599D02*
X145504Y16104D01*
X145517Y13360D02*
Y13818D01*
X170261Y1905D02*
X185420Y17064D01*
X170979Y1905D02*
X185420Y16346D01*
X145517Y13360D02*
Y13818D01*
Y11074D02*
Y13360D01*
X145009Y9144D02*
Y11074D01*
X145517D01*
X143027Y16104D02*
X143535D01*
Y9449D02*
Y11074D01*
X141722Y7851D02*
X143535Y9664D01*
X142763Y6593D02*
X144793Y8623D01*
X143535Y20168D02*
Y21488D01*
X143027Y23774D02*
Y24232D01*
Y21488D02*
X143535D01*
X143027Y23774D02*
Y24232D01*
Y21488D02*
Y23774D01*
Y13360D02*
Y13818D01*
Y13360D02*
Y13818D01*
X142900Y19914D02*
Y20168D01*
X143027Y13818D02*
Y16104D01*
X142291Y19914D02*
X143535Y21158D01*
X142900Y20168D02*
X143535D01*
X141572Y19914D02*
X143147Y21488D01*
X141520Y17932D02*
X143348Y16104D01*
X141121Y11560D02*
X143027Y13466D01*
X142900Y17678D02*
Y17932D01*
X143027Y11074D02*
X143535D01*
X143349D02*
X143535Y10888D01*
X143027Y11074D02*
Y13360D01*
Y11396D02*
X143349Y11074D01*
X141419Y10421D02*
X143027Y12029D01*
X141937Y7851D02*
X143535Y9449D01*
X141331Y11051D02*
X143027Y12748D01*
X141368Y10900D02*
X143177Y9091D01*
X141246Y9530D02*
X143027Y11311D01*
X141403Y10146D02*
X142818Y8732D01*
X141004Y7851D02*
X143535Y10382D01*
X141262Y9569D02*
X142459Y8372D01*
X141016Y9097D02*
X142099Y8013D01*
X141072Y5045D02*
X142428Y6401D01*
X169542Y1905D02*
X185420Y17783D01*
X168824Y1905D02*
X185420Y18501D01*
X171698Y1905D02*
X185420Y15627D01*
X167387Y1905D02*
X185420Y19938D01*
X168106Y1905D02*
X185420Y19219D01*
X173853Y1905D02*
X185420Y13472D01*
X174571Y1905D02*
X185420Y12754D01*
X172416Y1905D02*
X185420Y14909D01*
X173135Y1905D02*
X185420Y14190D01*
X163077Y1905D02*
X185420Y24248D01*
X163795Y1905D02*
X185420Y23530D01*
X145517Y23993D02*
X167605Y1905D01*
X145517Y23275D02*
X166886Y1905D01*
X165950D02*
X185420Y21375D01*
X166669Y1905D02*
X185420Y20656D01*
X164514Y1905D02*
X185420Y22811D01*
X165232Y1905D02*
X185420Y22093D01*
X182474Y1905D02*
X185420Y4851D01*
X183193Y1905D02*
X185420Y4133D01*
X181037Y1905D02*
X185420Y6288D01*
X181756Y1905D02*
X185420Y5569D01*
X185348Y1905D02*
X185420Y1977D01*
X185293Y1905D02*
X185420D01*
X183911D02*
X185420Y3414D01*
X184629Y1905D02*
X185420Y2696D01*
X176727Y1905D02*
X185420Y10598D01*
X177445Y1905D02*
X185420Y9880D01*
X175290Y1905D02*
X185420Y12035D01*
X176008Y1905D02*
X185420Y11317D01*
X179600Y1905D02*
X185420Y7725D01*
X180319Y1905D02*
X185420Y7006D01*
X178164Y1905D02*
X185420Y9161D01*
X178882Y1905D02*
X185420Y8443D01*
X145517Y21838D02*
X165450Y1905D01*
X145517Y22556D02*
X166168Y1905D01*
X145517Y15372D02*
X158984Y1905D01*
X145517Y13217D02*
X156829Y1905D01*
X145517Y12499D02*
X156110Y1905D01*
X145644Y19556D02*
X163294Y1905D01*
X145644Y18837D02*
X162576Y1905D01*
X145644Y18119D02*
X161858Y1905D01*
X145517Y16091D02*
X159702Y1905D01*
X145148Y21488D02*
X164731Y1905D01*
X145009Y20909D02*
X164013Y1905D01*
X145366Y17678D02*
X161139Y1905D01*
X145009Y17317D02*
X160421Y1905D01*
X145517Y14654D02*
X158265Y1905D01*
X145517Y13935D02*
X157547Y1905D01*
X145517Y11780D02*
X155392Y1905D01*
X145504Y11074D02*
X154673Y1905D01*
X144578Y8408D02*
X151081Y1905D01*
X144219Y8049D02*
X150363Y1905D01*
X143860Y7690D02*
X149644Y1905D01*
X143500Y7331D02*
X148926Y1905D01*
X145009Y10851D02*
X153955Y1905D01*
X145009Y10133D02*
X153236Y1905D01*
X145009Y9414D02*
X152518Y1905D01*
X144917Y8788D02*
X151800Y1905D01*
X141323Y4479D02*
X143897Y1905D01*
X141414Y3669D02*
X143179Y1905D01*
X141297Y3068D02*
X142460Y1905D01*
X141068Y2578D02*
X141742Y1905D01*
X143141Y6971D02*
X148208Y1905D01*
X142782Y6612D02*
X147489Y1905D01*
X142296Y6379D02*
X146771Y1905D01*
X141580Y6377D02*
X146052Y1905D01*
X140222Y24259D02*
X143535Y20946D01*
X139822Y23941D02*
X143535Y20227D01*
X140547Y22497D02*
X142900Y20144D01*
X140380Y21945D02*
X142412Y19914D01*
X140053Y21554D02*
X141694Y19914D01*
X132942Y12720D02*
X143027Y22806D01*
X133479Y12539D02*
X143027Y22087D01*
X139585Y21304D02*
X140975Y19914D01*
X138890Y21280D02*
X140868Y19302D01*
X131164Y12379D02*
X143027Y24243D01*
X132264Y12761D02*
X143027Y23524D01*
X132461Y24117D02*
X143027Y13551D01*
X132879Y22981D02*
X143027Y12833D01*
X132267Y21438D02*
X143535Y10169D01*
X131731Y21256D02*
X143535Y9451D01*
X132886Y22256D02*
X143027Y12114D01*
X132648Y21775D02*
X143027Y11396D01*
X140868Y19914D02*
X142900D01*
X139429Y12741D02*
X143535Y16848D01*
X140868Y17932D02*
X142900D01*
X139987Y12581D02*
X143027Y15622D01*
X140446Y12321D02*
X143027Y14903D01*
X140823Y11980D02*
X143027Y14185D01*
X134758Y10944D02*
X141746Y17932D01*
X138712Y12743D02*
X143535Y17566D01*
X133922Y12263D02*
X140868Y19210D01*
X134568Y11472D02*
X141028Y17932D01*
X134815Y10283D02*
X142465Y17932D01*
X134524Y9273D02*
X142929Y17678D01*
X137212Y7851D02*
X141937D01*
X140868Y17932D02*
Y19914D01*
X139755Y23844D02*
X139891Y23980D01*
X130727Y21541D02*
X139549Y12719D01*
X134285Y11908D02*
X140868Y18491D01*
X127267Y24282D02*
X138795Y12754D01*
X125830Y24282D02*
X137746Y12367D01*
X126549Y24282D02*
X138218Y12613D01*
X125112Y24282D02*
X137356Y12038D01*
X124181Y21621D02*
X133128Y12674D01*
X124435Y24241D02*
X137046Y11630D01*
X124310Y23647D02*
X136821Y11136D01*
X123591Y23647D02*
X136710Y10529D01*
X124181Y22340D02*
X136817Y9703D01*
X136620Y8495D02*
X137156Y9031D01*
X137005Y8163D02*
X137497Y8654D01*
X138849Y7851D02*
X139056Y8058D01*
X138352Y8168D02*
X138670Y7851D01*
X138130D02*
X138426Y8146D01*
X135382Y8694D02*
X136736Y10048D01*
X136108Y8702D02*
X136896Y9490D01*
X134697Y9668D02*
X135631Y8734D01*
X134814Y10269D02*
X136544Y8540D01*
X134468Y9178D02*
X135065Y8582D01*
X134154Y8774D02*
X134639Y8289D01*
X133761Y8449D02*
X134329Y7880D01*
X140687Y8707D02*
X141544Y7851D01*
X140285D02*
X143509Y11074D01*
X140279Y8397D02*
X140825Y7851D01*
X139567D02*
X139947Y8231D01*
X139785Y8172D02*
X140107Y7851D01*
X140758Y5450D02*
X141686Y6377D01*
X140143D02*
X144615Y1905D01*
X139178Y8061D02*
X139388Y7851D01*
X140366Y5776D02*
X140968Y6377D01*
X119253Y1905D02*
X138690Y21342D01*
X119971Y1905D02*
X139319Y21252D01*
X134723Y11079D02*
X137951Y7851D01*
X137412D02*
X137917Y8356D01*
X116379Y1905D02*
X138469Y23995D01*
X118535Y1905D02*
X138253Y21623D01*
X117098Y1905D02*
X137833Y22640D01*
X117816Y1905D02*
X137954Y22043D01*
X139425Y6377D02*
X139728Y6074D01*
X139891Y6019D02*
X140249Y6377D01*
X139310Y6157D02*
X139531Y6377D01*
X140861D02*
X145334Y1905D01*
X140443D02*
X185293D01*
X140754Y2174D02*
X141023Y1905D01*
X138706Y6377D02*
X138918Y6165D01*
X137212Y6377D02*
X142242D01*
X137988D02*
X138317Y6048D01*
X138547Y6112D02*
X138812Y6377D01*
X134646Y2930D02*
X138094Y6377D01*
X137269D02*
X137827Y5819D01*
X136938Y5990D02*
X137423Y5505D01*
X133387Y5981D02*
X134175Y6769D01*
X133846Y5721D02*
X134382Y6257D01*
X134819Y3821D02*
X137375Y6377D01*
X136529Y5680D02*
X137098Y5112D01*
X134223Y5380D02*
X134714Y5872D01*
X134521Y4960D02*
X135164Y5603D01*
X132112Y6143D02*
X136734Y10765D01*
X132702Y8071D02*
X134248Y6525D01*
X133285Y8206D02*
X134153Y7339D01*
X132829Y6141D02*
X134183Y7495D01*
X131937Y8118D02*
X136767Y3288D01*
X115545Y23792D02*
X133333Y6003D01*
X127156Y1905D02*
X133604Y8353D01*
X135988Y5504D02*
X136855Y4636D01*
X137214Y1905D02*
X137427Y2119D01*
X135174Y5599D02*
X136720Y4053D01*
X134731Y4451D02*
X135768Y5488D01*
X135777Y1905D02*
X136858Y2986D01*
X136495Y1905D02*
X137101Y2511D01*
X134819Y3799D02*
X136713Y1905D01*
X135058D02*
X136720Y3567D01*
X133843Y1905D02*
X137683D01*
X134219Y2244D02*
X134558Y1905D01*
X134652Y4684D02*
X137431Y1905D01*
X134340D02*
X136765Y4330D01*
X134729Y3170D02*
X135994Y1905D01*
X134518Y2663D02*
X135276Y1905D01*
X127483Y36280D02*
X132177Y31586D01*
X127483Y36998D02*
X132895Y31586D01*
X130212D02*
X132932D01*
X127483Y35562D02*
X131459Y31586D01*
X127025Y31471D02*
X127483D01*
X132932Y28866D02*
Y31586D01*
X129769Y31100D02*
X130212Y31543D01*
Y30963D02*
Y31586D01*
X129769Y30963D02*
Y31471D01*
X126994Y35331D02*
X130740Y31586D01*
X126848Y31886D02*
X127263Y31471D01*
X126848D02*
Y35331D01*
Y31471D02*
X127025D01*
X126848Y34760D02*
X130212Y31395D01*
X126848Y34041D02*
X129418Y31471D01*
X126848Y33323D02*
X128700Y31471D01*
X126848Y32604D02*
X127981Y31471D01*
X129963Y29489D02*
X130212Y29240D01*
X129769Y29489D02*
X130212D01*
X129769Y31120D02*
X129926Y30963D01*
X129769Y28981D02*
Y29489D01*
X130212Y28866D02*
X130897D01*
X132435Y28737D02*
X132564Y28866D01*
X130212D02*
Y29489D01*
X130586Y28866D02*
X130713Y28739D01*
X127483Y31471D02*
X129769D01*
Y30963D02*
X130212D01*
X127025Y31471D02*
X127483D01*
X129418D02*
X129769Y31120D01*
X127452Y28783D02*
X127650Y28981D01*
X127483D02*
X129769D01*
X127254D02*
X127483D01*
X127254D02*
X127483D01*
X124839Y35331D02*
X125374Y34796D01*
X124054Y35398D02*
X125374Y34078D01*
X123402Y35331D02*
X125374Y33359D01*
X121310Y35331D02*
Y35966D01*
Y35331D02*
X124054D01*
X122684D02*
X125374Y32641D01*
X121965Y35331D02*
X125374Y31922D01*
X120625Y35954D02*
X125108Y31471D01*
X120529Y35331D02*
X124739Y31121D01*
X120117Y34379D02*
X121310Y35573D01*
X120117Y35331D02*
X120625D01*
X118373D02*
X118643Y35061D01*
X120117Y35098D02*
X120350Y35331D01*
X120117Y30787D02*
X124739Y35410D01*
X120117Y31505D02*
X123943Y35331D01*
X118643Y28677D02*
Y35331D01*
X120117Y28677D02*
Y35331D01*
X125374Y31471D02*
Y35331D01*
X125111Y31471D02*
X125374Y31734D01*
X120117Y33661D02*
X121787Y35331D01*
X124739Y31471D02*
X125374D01*
X124739Y28981D02*
X125381D01*
X120161Y28677D02*
X125374Y33890D01*
X124739Y28981D02*
Y31471D01*
X120117Y30069D02*
X125374Y35326D01*
X120117Y35025D02*
X124739Y30402D01*
X120117Y32942D02*
X122506Y35331D01*
X120117Y32224D02*
X123224Y35331D01*
X120117Y29350D02*
X125374Y34608D01*
X120117Y34306D02*
X124739Y29684D01*
X118135Y28677D02*
X118643D01*
X120117D02*
X120625D01*
X129034Y28981D02*
X129593Y28423D01*
X128529D02*
X129087Y28981D01*
X127813Y28423D02*
X130429D01*
X127812Y28424D02*
X128369Y28981D01*
X128315D02*
X128874Y28423D01*
X129965D02*
X130409Y28866D01*
X129247Y28423D02*
X130212Y29388D01*
X129752Y28981D02*
X130311Y28423D01*
X127254Y28981D02*
X127813Y28423D01*
X127597Y28981D02*
X128156Y28423D01*
X125590Y28562D02*
X126987Y27165D01*
X120117Y33588D02*
X127949Y25756D01*
X120117Y32870D02*
X127231Y25756D01*
X125143D02*
X126770Y27382D01*
X129629Y26949D02*
X130543Y26035D01*
X130347Y26949D02*
X130945Y26352D01*
X129454Y25756D02*
X130521Y26823D01*
X130172Y25756D02*
X130913Y26497D01*
X128735Y25756D02*
X129929Y26949D01*
X128911D02*
X130104Y25756D01*
X128192Y26949D02*
X129386Y25756D01*
X127508Y26949D02*
X130429D01*
X127473Y26950D02*
X128667Y25756D01*
X128017D02*
X129211Y26949D01*
X127298Y25756D02*
X128492Y26949D01*
X124435Y25756D02*
X130357D01*
X125862D02*
X127149Y27043D01*
X126580Y25756D02*
X127774Y26949D01*
X123623Y26391D02*
X125692Y28460D01*
X124341Y26391D02*
X126051Y28101D01*
X120625Y27703D02*
X125374Y32453D01*
X120625Y26984D02*
X124739Y31099D01*
X122186Y26391D02*
X124777Y28981D01*
X122904Y26391D02*
X125401Y28887D01*
X120625Y26266D02*
X124739Y30381D01*
X120833Y25756D02*
X124739Y29662D01*
X120625Y28421D02*
X125374Y33171D01*
X120117Y29996D02*
X123722Y26391D01*
X120117Y29278D02*
X123004Y26391D01*
X118135D02*
Y28677D01*
X120117Y32151D02*
X126512Y25756D01*
X120117Y31433D02*
X125794Y25756D01*
X120117Y30714D02*
X125075Y25756D01*
X120625Y26391D02*
Y28677D01*
X124435Y25766D02*
X126411Y27742D01*
X121691Y26391D02*
X124435D01*
X120625Y28051D02*
X122285Y26391D01*
X124435Y25756D02*
Y26391D01*
X121691Y25756D02*
Y26391D01*
X120625Y25756D02*
X121691D01*
X120625Y26614D02*
X121483Y25756D01*
X121551D02*
X121691Y25896D01*
X120625Y27333D02*
X121691Y26266D01*
X120625Y25933D02*
Y26391D01*
X118135Y25933D02*
Y26391D01*
X120625Y25933D02*
Y26391D01*
Y25756D02*
Y25933D01*
Y25896D02*
X120765Y25756D01*
X118135Y25933D02*
Y26391D01*
Y23647D02*
Y25933D01*
X114046Y38222D02*
X118643Y33624D01*
X112604Y32614D02*
X118135Y38145D01*
X114046Y37503D02*
X118643Y32906D01*
X114041Y32614D02*
X118135Y36708D01*
X114759Y32614D02*
X118135Y35990D01*
X114046Y36067D02*
X118643Y31469D01*
X112735Y35941D02*
X118643Y30032D01*
X113322Y32614D02*
X118135Y37427D01*
X114046Y36785D02*
X118643Y32188D01*
X109897Y43089D02*
X118643Y34343D01*
X111167Y32614D02*
X118135Y39582D01*
X111885Y32614D02*
X118135Y38864D01*
X111298Y35941D02*
X114625Y32614D01*
X110325Y36195D02*
X113907Y32614D01*
X110448D02*
X113776Y35941D01*
X109607Y36195D02*
X113188Y32614D01*
X109730D02*
X113057Y35941D01*
X115545Y30526D02*
X118643Y33624D01*
X115545Y29807D02*
X118643Y32906D01*
X115545Y31962D02*
X118643Y35061D01*
X115545Y31244D02*
X118643Y34343D01*
X115545Y32413D02*
X118643Y29314D01*
X115545Y29089D02*
X118643Y32188D01*
X115545Y30976D02*
X118135Y28385D01*
X115545Y27652D02*
X118643Y30751D01*
X115477Y32614D02*
X118195Y35331D01*
X104673Y32614D02*
X115545D01*
X112016Y35941D02*
X115344Y32614D01*
X115545Y32413D01*
X113453Y35941D02*
X118643Y30751D01*
X115545Y28370D02*
X118643Y31469D01*
X115545Y31694D02*
X118562Y28677D01*
X115545Y30257D02*
X118135Y27667D01*
X98224Y43268D02*
X108878Y32614D01*
X97784Y42989D02*
X108159Y32614D01*
X97080Y42974D02*
X107441Y32614D01*
X94065Y45271D02*
X106723Y32614D01*
X93706Y44912D02*
X106004Y32614D01*
X93347Y44553D02*
X105286Y32614D01*
X92987Y44194D02*
X104673Y32508D01*
X92628Y43834D02*
X104673Y31789D01*
X92269Y43475D02*
X104673Y31071D01*
X91562Y30970D02*
X108497Y47904D01*
X91764Y30453D02*
X109216Y47904D01*
X91210Y31336D02*
X108102Y48228D01*
X91878Y43147D02*
X104673Y30352D01*
X91632Y29603D02*
X109934Y47904D01*
X91390Y28642D02*
X110652Y47904D01*
X91678Y28212D02*
X108476Y45009D01*
X91229Y43078D02*
X104673Y29634D01*
X107575Y32614D02*
X111156Y36195D01*
X107706Y35941D02*
X111033Y32614D01*
X106856D02*
X110438Y36195D01*
X106987Y35941D02*
X110315Y32614D01*
X108966Y36118D02*
X112470Y32614D01*
X109012D02*
X112339Y35941D01*
X108293Y32614D02*
X111621Y35941D01*
X108424D02*
X111752Y32614D01*
X106138D02*
X109719Y36195D01*
X106269Y35941D02*
X109596Y32614D01*
X104701D02*
X108028Y35941D01*
X105419Y32614D02*
X108747Y35941D01*
X90964Y28934D02*
X91047Y29018D01*
X90962Y28977D02*
X91042Y28897D01*
X115545Y29539D02*
X118135Y26948D01*
X115545Y26933D02*
X118643Y30032D01*
X115545Y26215D02*
X118643Y29314D01*
X96450Y26518D02*
X106172Y36240D01*
X96876Y26225D02*
X106592Y35941D01*
X115545Y16662D02*
Y32614D01*
X96876Y25507D02*
X107310Y35941D01*
X96876Y22633D02*
X104673Y30431D01*
X91781Y27596D02*
X108380Y44195D01*
X91180Y26276D02*
X108589Y43686D01*
X95013Y26518D02*
X106172Y37677D01*
X95731Y26518D02*
X106172Y36958D01*
X92941Y25883D02*
X110233Y43175D01*
X92223Y25883D02*
X109447Y43107D01*
X91542Y25920D02*
X108945Y43324D01*
X93660Y25883D02*
X106172Y38395D01*
X115545Y25497D02*
X118135Y28087D01*
X115545Y27384D02*
X118135Y24793D01*
X115545Y28821D02*
X118135Y26230D01*
X115545Y28102D02*
X118135Y25511D01*
X115545Y24060D02*
X118135Y26651D01*
X115545Y25947D02*
X130255Y11236D01*
X115545Y24778D02*
X118135Y27369D01*
X115545Y26665D02*
X118135Y24074D01*
X115545Y23341D02*
X118135Y25932D01*
X115545Y22623D02*
X118135Y25214D01*
X115545Y25228D02*
X130120Y10653D01*
X115545Y24510D02*
X130167Y9888D01*
X115545Y21904D02*
X118135Y24495D01*
X96876Y21914D02*
X104673Y29712D01*
X96876Y23351D02*
X104673Y31149D01*
X96368Y20688D02*
X104673Y28994D01*
X96876Y24788D02*
X104673Y32586D01*
X96876Y24070D02*
X104673Y31868D01*
Y16662D02*
Y32614D01*
X97003Y19168D02*
X104673Y26839D01*
X96820Y20422D02*
X104673Y28275D01*
X97003Y19886D02*
X104673Y27557D01*
X91781Y30313D02*
X95577Y26518D01*
X91677Y29699D02*
X94858Y26518D01*
X91389Y29268D02*
X94386Y26271D01*
X91635Y28304D02*
X94056Y25883D01*
X91764Y27456D02*
X93338Y25883D01*
X91561Y26941D02*
X92619Y25883D01*
X91208Y26575D02*
X91901Y25883D01*
X97003Y18449D02*
X104673Y26120D01*
X96876Y25937D02*
X104673Y18139D01*
X94386Y25883D02*
Y26518D01*
X96876Y24232D02*
Y26518D01*
X96368Y16378D02*
X104673Y24683D01*
X96876Y24500D02*
X104673Y16702D01*
X96368Y17096D02*
X104673Y25402D01*
X96876Y25219D02*
X104673Y17421D01*
X94386Y26518D02*
X96876D01*
X91567Y25883D02*
X94386D01*
X91567Y24409D02*
X94386D01*
X91937D02*
X94386Y21960D01*
X94093Y24409D02*
X94386Y24116D01*
X91783Y22569D02*
X93623Y24409D01*
X130141Y24282D02*
X130741Y23682D01*
X124435Y24282D02*
X130522D01*
X124435Y23647D02*
Y24282D01*
X129422D02*
X130404Y23301D01*
X127985Y24282D02*
X130507Y21761D01*
X124181Y21919D02*
X126544Y24282D01*
X128704D02*
X130222Y22765D01*
X123532Y22708D02*
X125107Y24282D01*
X121691Y23647D02*
X124435D01*
X122813Y22708D02*
X123753Y23647D01*
X122873D02*
X123813Y22708D01*
X124181Y20483D02*
X127980Y24282D01*
X118562Y23647D02*
X130498Y11712D01*
X124181Y22638D02*
X125825Y24282D01*
X124181Y21201D02*
X127262Y24282D01*
X124181Y20903D02*
X132318Y12765D01*
X123893Y20472D02*
X131717Y12648D01*
X124181Y20472D02*
Y22708D01*
X123174Y20472D02*
X131227Y12419D01*
X115545Y23073D02*
X132448Y6170D01*
X122456Y20472D02*
X130823Y12105D01*
X121945Y22708D02*
X124181D01*
X121945Y20472D02*
X124181D01*
X115545Y22355D02*
X131819Y6080D01*
X115545Y21636D02*
X131312Y5869D01*
X115545Y20918D02*
X130893Y5570D01*
X115545Y20200D02*
X130552Y5192D01*
X121691Y23647D02*
Y24282D01*
X120625D02*
X121691D01*
X121520D02*
X121691Y24111D01*
X120625Y23647D02*
Y24282D01*
Y24111D02*
X120796Y24282D01*
X120801D02*
X122376Y22708D01*
X120625Y23741D02*
X121945Y22420D01*
X119999Y23647D02*
X121945Y21701D01*
X119281Y23647D02*
X121945Y20983D01*
X115545Y21186D02*
X118135Y23777D01*
X115545Y20468D02*
X118724Y23647D01*
X96876Y23774D02*
Y24232D01*
Y23774D02*
Y24232D01*
X115545Y17594D02*
X121691Y23741D01*
X115545Y16876D02*
X122316Y23647D01*
X115545Y18312D02*
X121515Y24282D01*
X115545Y19749D02*
X119443Y23647D01*
X122095Y22708D02*
X123035Y23647D01*
X122155D02*
X123094Y22708D01*
X118135Y23647D02*
X120625D01*
X121945Y22558D02*
X122095Y22708D01*
X121945Y20472D02*
Y22708D01*
X115545Y19031D02*
X120161Y23647D01*
X104673Y16662D02*
X115545D01*
X97003Y17932D02*
Y20422D01*
X96876Y13818D02*
Y16104D01*
Y13293D02*
X104673Y21091D01*
X96876Y12575D02*
X104673Y20373D01*
X96876Y13360D02*
Y13818D01*
Y13360D02*
Y13818D01*
X115545Y17326D02*
X130965Y1905D01*
X115545Y19481D02*
X130294Y4732D01*
X115490Y16662D02*
X130247Y1905D01*
X115545Y18763D02*
X130135Y4172D01*
X115545Y18044D02*
X130135Y3454D01*
X112787Y1905D02*
X132451Y21569D01*
X112069Y1905D02*
X131419Y21255D01*
X114053Y16662D02*
X128810Y1905D01*
X114771Y16662D02*
X129529Y1905D01*
X107758D02*
X130136Y24282D01*
X108477Y1905D02*
X130686Y24115D01*
X106321Y1905D02*
X128699Y24282D01*
X107040Y1905D02*
X129417Y24282D01*
X110632Y1905D02*
X130499Y21772D01*
X111350Y1905D02*
X130881Y21435D01*
X109195Y1905D02*
X130263Y22973D01*
X109914Y1905D02*
X130260Y22251D01*
X130029Y1905D02*
X130556Y2431D01*
X130748Y1905D02*
X130897Y2054D01*
X126437Y1905D02*
X132594Y8062D01*
X129311Y1905D02*
X130296Y2890D01*
X127874Y1905D02*
X130134Y4165D01*
X128592Y1905D02*
X130136Y3448D01*
X120690Y1905D02*
X130498Y11713D01*
X122845Y1905D02*
X130338Y9398D01*
X121408Y1905D02*
X130116Y10613D01*
X122127Y1905D02*
X130157Y9935D01*
X125000Y1905D02*
X131405Y8309D01*
X125719Y1905D02*
X131933Y8119D01*
X123564Y1905D02*
X130614Y8955D01*
X124282Y1905D02*
X130969Y8592D01*
X105603Y1905D02*
X124170Y20472D01*
X104885Y1905D02*
X123452Y20472D01*
X108305Y16662D02*
X123063Y1905D01*
X104166D02*
X122734Y20472D01*
X107587Y16662D02*
X122344Y1905D01*
X112616Y16662D02*
X127373Y1905D01*
X113334Y16662D02*
X128092Y1905D01*
X111179Y16662D02*
X125936Y1905D01*
X111897Y16662D02*
X126655Y1905D01*
X97003Y20063D02*
X115160Y1905D01*
X97003Y19344D02*
X114442Y1905D01*
X97003Y18626D02*
X113723Y1905D01*
X96978Y17932D02*
X113005Y1905D01*
X102729D02*
X121945Y21121D01*
X103448Y1905D02*
X122015Y20472D01*
X101292Y1905D02*
X121945Y22558D01*
X102011Y1905D02*
X121945Y21840D01*
X105432Y16662D02*
X120189Y1905D01*
X106150Y16662D02*
X120908Y1905D01*
X100574D02*
X115331Y16662D01*
X104713D02*
X119471Y1905D01*
X109742Y16662D02*
X124500Y1905D01*
X110461Y16662D02*
X125218Y1905D01*
X106869Y16662D02*
X121626Y1905D01*
X109024Y16662D02*
X123781Y1905D01*
X96982D02*
X111739Y16662D01*
X96876Y15879D02*
X110850Y1905D01*
X96876Y15161D02*
X110131Y1905D01*
X96876Y14442D02*
X109413Y1905D01*
X99137D02*
X113895Y16662D01*
X99856Y1905D02*
X114613Y16662D01*
X97700Y1905D02*
X112458Y16662D01*
X98419Y1905D02*
X113176Y16662D01*
X96876Y21488D02*
Y23774D01*
X96812Y16104D02*
X104673Y23965D01*
X96368Y21488D02*
X96876D01*
X96368Y20422D02*
Y21488D01*
Y20698D02*
X96644Y20422D01*
X96876Y14012D02*
X104673Y21810D01*
X96876Y11857D02*
X104673Y19654D01*
X96876Y15449D02*
X104673Y23246D01*
X96876Y14730D02*
X104673Y22528D01*
X94386Y21488D02*
X94894D01*
X96368Y21406D02*
X96450Y21488D01*
X91414Y24214D02*
X94894Y20734D01*
Y20422D02*
Y21488D01*
X94259Y20422D02*
X94894D01*
X96368D02*
X97003D01*
X93692Y20168D02*
X94894Y21370D01*
X94664Y20422D02*
X94894Y20652D01*
X96368Y16387D02*
X96651Y16104D01*
X96368D02*
X96876D01*
X96368D02*
Y17932D01*
Y17814D02*
X96486Y17932D01*
X96876Y11138D02*
X104673Y18936D01*
X96651Y16104D02*
X96876Y15879D01*
X96812Y11074D02*
X96876Y11138D01*
X96368Y11074D02*
X96876D01*
X94259Y17932D02*
X94894D01*
X96368D02*
X97003D01*
X93131Y18186D02*
X94894Y16423D01*
X94822Y17932D02*
X94894Y17860D01*
X94657Y16104D02*
X94894Y16341D01*
X94386Y11074D02*
X94894D01*
Y16104D02*
Y17932D01*
X94386Y16104D02*
X94894D01*
X93374Y24409D02*
X94386Y23397D01*
X92656Y24409D02*
X94386Y22679D01*
Y23774D02*
Y24232D01*
Y24409D01*
Y23774D02*
Y24232D01*
Y21488D02*
Y23774D01*
X92255Y20168D02*
X94386Y22299D01*
X92973Y20168D02*
X94386Y21581D01*
X94259Y20168D02*
Y20422D01*
X91365Y23588D02*
X92186Y24409D01*
X91662Y23167D02*
X92905Y24409D01*
X90997Y23913D02*
X91162Y23748D01*
X91566Y23344D02*
X94488Y20422D01*
X91771Y22421D02*
X94024Y20168D01*
X91581Y21892D02*
X93305Y20168D01*
X91238Y21517D02*
X92587Y20168D01*
X94259Y17932D02*
Y18186D01*
X93850D02*
X94894Y17142D01*
X94386Y13818D02*
Y16104D01*
Y15833D02*
X94657Y16104D01*
X94386Y13360D02*
Y13818D01*
Y13360D02*
Y13818D01*
X92227Y20168D02*
X94259D01*
X92227Y18186D02*
X94259D01*
X92227D02*
Y20168D01*
X92413Y18186D02*
X94496Y16104D01*
X91136Y11146D02*
X94386Y14396D01*
X92227Y18372D02*
X92413Y18186D01*
X90910Y11638D02*
X94386Y15115D01*
X96876Y23063D02*
X118034Y1905D01*
X96876Y23782D02*
X118752Y1905D01*
X96876Y22345D02*
X117315Y1905D01*
X96876Y21626D02*
X116597Y1905D01*
X96368Y9912D02*
X104673Y18218D01*
X96368Y21416D02*
X115879Y1905D01*
X96368Y17824D02*
X112286Y1905D01*
X96368Y17105D02*
X111568Y1905D01*
X96264D02*
X111021Y16662D01*
X94108Y1905D02*
X108866Y16662D01*
X94827Y1905D02*
X109584Y16662D01*
X91239Y4065D02*
X104673Y17499D01*
X91197Y3304D02*
X104673Y16781D01*
X93390Y1905D02*
X108147Y16662D01*
X95545Y1905D02*
X110303Y16662D01*
X91953Y1905D02*
X106710Y16662D01*
X92671Y1905D02*
X107429Y16662D01*
X96651Y11074D02*
X105821Y1905D01*
X96368Y10640D02*
X105102Y1905D01*
X96368Y9921D02*
X104384Y1905D01*
X96316Y9254D02*
X103665Y1905D01*
X96876Y13724D02*
X108694Y1905D01*
X96876Y13005D02*
X107976Y1905D01*
X96876Y12287D02*
X107258Y1905D01*
X96876Y11569D02*
X106539Y1905D01*
X91235D02*
X105992Y16662D01*
X94563Y7415D02*
X100073Y1905D01*
X94204Y7056D02*
X99355Y1905D01*
X93845Y6697D02*
X98636Y1905D01*
X96000Y8852D02*
X102947Y1905D01*
X95641Y8493D02*
X102229Y1905D01*
X95281Y8134D02*
X101510Y1905D01*
X94922Y7775D02*
X100792Y1905D01*
X96876Y11074D02*
Y13360D01*
X94496Y11074D02*
X94894Y10676D01*
X94386Y11074D02*
Y13360D01*
Y11184D02*
X94496Y11074D01*
X96368Y9525D02*
Y11074D01*
Y10630D02*
X96812Y11074D01*
X94894Y9830D02*
Y11074D01*
X91249Y10541D02*
X94386Y13678D01*
X91149Y9722D02*
X94386Y12959D01*
X91229Y10750D02*
X93521Y8457D01*
X91222Y10038D02*
X93162Y8098D01*
X92870Y7851D02*
X94894Y9875D01*
X92915Y7851D02*
X94894Y9830D01*
X91433Y7851D02*
X94657Y11074D01*
X92151Y7851D02*
X94894Y10594D01*
X93741Y6593D02*
X96152Y9004D01*
X93418Y6405D02*
X97918Y1905D01*
X92727Y6377D02*
X97200Y1905D01*
X91290Y6377D02*
X95763Y1905D01*
X92009Y6377D02*
X96481Y1905D01*
X91060Y9481D02*
X92691Y7851D01*
X91101Y4645D02*
X92833Y6377D01*
X90799Y9024D02*
X91972Y7851D01*
X90857Y5120D02*
X92115Y6377D01*
X91199Y4313D02*
X93608Y1905D01*
X91238Y3556D02*
X92889Y1905D01*
X91099Y2977D02*
X92171Y1905D01*
X90854Y2503D02*
X91452Y1905D01*
X89964Y63856D02*
X100404Y74295D01*
X89246Y63856D02*
X99685Y74295D01*
X90683Y63856D02*
X101122Y74295D01*
X87809Y63856D02*
X98248Y74295D01*
X88527Y63856D02*
X98967Y74295D01*
X89468D02*
X100415Y63348D01*
X90186Y74295D02*
X101133Y63348D01*
X88031Y74295D02*
X98982Y63344D01*
X88749Y74295D02*
X99697Y63348D01*
X87090Y63856D02*
X97530Y74295D01*
X87312D02*
X98482Y63125D01*
X85654Y63856D02*
X96093Y74295D01*
X86372Y63856D02*
X96811Y74295D01*
X85875D02*
X97763Y62408D01*
X86594Y74295D02*
X98122Y62767D01*
X84439Y74295D02*
X96529Y62205D01*
X85157Y74295D02*
X97247Y62205D01*
X84217Y63856D02*
X94656Y74295D01*
X84935Y63856D02*
X95375Y74295D01*
X82780Y63856D02*
X93219Y74295D01*
X83498Y63856D02*
X93938Y74295D01*
X83002D02*
X95600Y61697D01*
X83720Y74295D02*
X96037Y61978D01*
X82283Y74295D02*
X94882Y61697D01*
X85160Y62128D02*
X91336D01*
X81343Y63856D02*
X91782Y74295D01*
X82061Y63856D02*
X92501Y74295D01*
X80846D02*
X91286Y63856D01*
X80645D02*
X91694D01*
X80624Y63855D02*
X91064Y74295D01*
X81565D02*
X92112Y63747D01*
X79410Y74295D02*
X89849Y63856D01*
X80128Y74295D02*
X90567Y63856D01*
X78691Y74295D02*
X89131Y63856D01*
X77973Y74295D02*
X88412Y63856D01*
X85991Y61320D02*
X86800Y62128D01*
X85446Y58619D02*
X88955Y62128D01*
X85446Y57900D02*
X89674Y62128D01*
X86072Y60682D02*
X87518Y62128D01*
X76536Y74295D02*
X86975Y63856D01*
X77254Y74295D02*
X87694Y63856D01*
X75099Y74295D02*
X85539Y63856D01*
X75818Y74295D02*
X86257Y63856D01*
X73219Y61479D02*
X86035Y74295D01*
X73378Y60919D02*
X86754Y74295D01*
X73662D02*
X84102Y63856D01*
X74381Y74295D02*
X84820Y63856D01*
X85304Y62069D02*
X85363Y62128D01*
X85717Y61763D02*
X86082Y62128D01*
X82955D02*
X83537Y61546D01*
X83674Y62128D02*
X83878Y61924D01*
X85446Y59337D02*
X88237Y62128D01*
X82237D02*
X83350Y61016D01*
X81003Y62128D02*
X84258D01*
X80901Y62027D02*
X83972Y58956D01*
X81518Y62128D02*
X83555Y60092D01*
X73377Y60930D02*
X75369Y58938D01*
X80542Y61668D02*
X83972Y58237D01*
X80183Y61309D02*
X83972Y57519D01*
X73278Y60311D02*
X75010Y58579D01*
X72993Y59877D02*
X74651Y58219D01*
X90139Y62128D02*
X108604Y43664D01*
X89421Y62128D02*
X112814Y38735D01*
X90441Y50682D02*
X101379Y61620D01*
X86849Y54274D02*
X93019Y60445D01*
X87208Y53915D02*
X93394Y60101D01*
X87984Y62128D02*
X111378Y38735D01*
X88703Y62128D02*
X112096Y38735D01*
X86547Y62128D02*
X110195Y38481D01*
X87266Y62128D02*
X110913Y38481D01*
X85771Y55352D02*
X91942Y61523D01*
X86130Y54993D02*
X92301Y61164D01*
X85446Y56463D02*
X91111Y62128D01*
X85446Y55745D02*
X91583Y61882D01*
X85829Y62128D02*
X97411Y50546D01*
X86027Y61212D02*
X96822Y50417D01*
X86489Y54633D02*
X92660Y60804D01*
X86036Y60485D02*
X96403Y50118D01*
X88285Y52837D02*
X95417Y59969D01*
X88645Y52478D02*
X96037Y59871D01*
X87567Y53556D02*
X93981Y59969D01*
X87926Y53197D02*
X94699Y59969D01*
X89722Y51401D02*
X97783Y59461D01*
X90081Y51041D02*
X98501Y59461D01*
X89004Y52119D02*
X96346Y59461D01*
X89363Y51760D02*
X97065Y59461D01*
X85446Y59638D02*
X95198Y49886D01*
X85446Y56764D02*
X91689Y50521D01*
X85446Y56046D02*
X90971Y50521D01*
X85446Y55677D02*
X90602Y50521D01*
X85800Y60002D02*
X95916Y49886D01*
X85446Y58920D02*
X94480Y49886D01*
X85446Y58201D02*
X93761Y49886D01*
X85446Y57483D02*
X93043Y49886D01*
X85446Y57182D02*
X90392Y62128D01*
X79824Y60949D02*
X83972Y56801D01*
X85446Y55677D02*
Y59676D01*
X79464Y60590D02*
X83972Y56082D01*
Y55372D02*
Y59676D01*
X78387Y59513D02*
X89687Y48212D01*
X78028Y59153D02*
X89941Y47240D01*
X79105Y60231D02*
X83972Y55364D01*
X78746Y59872D02*
X89687Y48930D01*
X77668Y58794D02*
X89941Y46521D01*
X76950Y58076D02*
X90474Y44552D01*
X77309Y58435D02*
X89941Y45803D01*
X76591Y57716D02*
X89756Y44552D01*
X76232Y57357D02*
X89037Y44552D01*
X75872Y56998D02*
X88319Y44552D01*
X75513Y56639D02*
X87600Y44552D01*
X75154Y56280D02*
X86882Y44552D01*
X84188Y54851D02*
X89687Y49352D01*
X80000Y44552D02*
X87244Y51796D01*
X78563Y44552D02*
X86525Y52514D01*
X79281Y44552D02*
X86884Y52155D01*
X77126Y44552D02*
X85807Y53232D01*
X77844Y44552D02*
X86166Y52873D01*
X74795Y55920D02*
X86164Y44552D01*
X76407D02*
X85448Y53592D01*
X74436Y55561D02*
X85445Y44552D01*
X74076Y55202D02*
X84727Y44552D01*
X73717Y54843D02*
X84008Y44552D01*
X75675Y44537D02*
X85088Y53951D01*
X73358Y54484D02*
X83290Y44552D01*
X72999Y54124D02*
X82571Y44552D01*
X72225Y74295D02*
X82665Y63856D01*
X71507Y74295D02*
X81946Y63856D01*
X72944Y74295D02*
X83383Y63856D01*
X70070Y74295D02*
X80519Y63846D01*
X70789Y74295D02*
X81228Y63856D01*
X72439Y62136D02*
X84598Y74295D01*
X72899Y61877D02*
X85317Y74295D01*
X69352D02*
X80039Y63608D01*
X71768Y62183D02*
X83880Y74295D01*
X68633D02*
X79680Y63248D01*
X7140Y74295D02*
X185420D01*
X67196D02*
X78962Y62530D01*
X67915Y74295D02*
X79321Y62889D01*
X68196Y61485D02*
X81006Y74295D01*
X68357Y60928D02*
X81725Y74295D01*
X67412Y62138D02*
X79569Y74295D01*
X67874Y61881D02*
X80288Y74295D01*
X66478D02*
X78602Y62171D01*
X66737Y62181D02*
X78851Y74295D01*
X65041D02*
X77884Y61452D01*
X65760Y74295D02*
X78243Y61811D01*
X72570Y59582D02*
X74292Y57860D01*
X71972Y59462D02*
X73933Y57501D01*
X68358Y60921D02*
X72855Y56423D01*
X63604Y74295D02*
X77166Y60734D01*
X64323Y74295D02*
X77525Y61093D01*
X62168Y74295D02*
X76447Y60015D01*
X62886Y74295D02*
X76806Y60375D01*
X60731Y74295D02*
X75729Y59297D01*
X61449Y74295D02*
X76088Y59656D01*
X55702Y74295D02*
X73214Y56783D01*
X56420Y74295D02*
X73573Y57142D01*
X59294Y74295D02*
X71487Y62102D01*
X58575Y74295D02*
X71053Y61817D01*
X60012Y74295D02*
X72106Y62201D01*
X52828Y74295D02*
X65735Y61388D01*
X57857Y74295D02*
X70758Y61394D01*
X50673Y74295D02*
X70700Y54268D01*
X51391Y74295D02*
X71059Y54627D01*
X52110Y74295D02*
X65618Y60786D01*
X57139Y74295D02*
X70638Y60796D01*
X49236Y74295D02*
X69981Y53550D01*
X49954Y74295D02*
X70341Y53909D01*
X47799Y74295D02*
X69263Y52831D01*
X48518Y74295D02*
X69622Y53190D01*
X47081Y74295D02*
X68904Y52472D01*
X45887Y50670D02*
X69511Y74295D01*
X41553Y50648D02*
X65201Y74295D01*
X46362D02*
X68544Y52113D01*
X54983Y74295D02*
X67077Y62202D01*
X53546Y74295D02*
X66029Y61813D01*
X54265Y74295D02*
X66461Y62099D01*
X68255Y60305D02*
X72496Y56064D01*
X67969Y59873D02*
X72137Y55705D01*
X67544Y59579D02*
X71777Y55346D01*
X66942Y59462D02*
X71418Y54986D01*
X44925Y74295D02*
X67826Y51394D01*
X45644Y74295D02*
X68185Y51754D01*
X47727Y59694D02*
X62327Y74295D01*
X44207D02*
X67467Y51035D01*
X40835Y50648D02*
X64482Y74295D01*
X43489D02*
X67108Y50676D01*
X39727Y50977D02*
X63046Y74295D01*
X40117Y50648D02*
X63764Y74295D01*
X64710Y49378D02*
X89627Y74295D01*
X63991Y49378D02*
X88909Y74295D01*
X65428Y49378D02*
X90346Y74295D01*
X65809Y49378D02*
X80033Y63602D01*
X66779Y47904D02*
X81003Y62128D01*
X63348Y41550D02*
X83926Y62128D01*
X63348Y40113D02*
X83473Y60238D01*
X63348Y43705D02*
X81771Y62128D01*
X63348Y40831D02*
X83337Y60821D01*
X62555Y49378D02*
X87472Y74295D01*
X63273Y49378D02*
X88190Y74295D01*
X63348Y44423D02*
X81053Y62128D01*
X63348Y42986D02*
X82490Y62128D01*
X40235Y31368D02*
X83161Y74295D01*
X63348Y42268D02*
X83208Y62128D01*
X33237Y29399D02*
X78132Y74295D01*
X39716Y31568D02*
X82443Y74295D01*
X72639Y53765D02*
X81853Y44552D01*
X72280Y53406D02*
X81135Y44552D01*
X71921Y53047D02*
X80416Y44552D01*
X71562Y52688D02*
X79698Y44552D01*
X70061Y40361D02*
X84370Y54669D01*
X70780Y40361D02*
X84729Y54310D01*
X71203Y52328D02*
X78979Y44552D01*
X70843Y51969D02*
X78261Y44552D01*
X63348Y37958D02*
X83972Y58582D01*
X65239Y37694D02*
X83972Y56427D01*
X63348Y39394D02*
X83779Y59825D01*
X63348Y38676D02*
X83972Y59301D01*
X64521Y37694D02*
X83972Y57145D01*
X66142Y37159D02*
X84042Y55060D01*
X63802Y37694D02*
X83972Y57864D01*
X65957Y37694D02*
X83972Y55709D01*
X47371Y49281D02*
X72385Y74295D01*
X47096Y47569D02*
X73822Y74295D01*
X47327Y47082D02*
X74540Y74295D01*
X46939Y50286D02*
X70948Y74295D01*
X47239Y49868D02*
X71667Y74295D01*
X47031Y44631D02*
X76696Y74295D01*
X47096Y43977D02*
X77414Y74295D01*
X47327Y47082D02*
X74540Y74295D01*
X47318Y46354D02*
X75259Y74295D01*
X44511Y50013D02*
X68793Y74295D01*
X46504Y50569D02*
X70230Y74295D01*
X41637Y50013D02*
X65919Y74295D01*
X43792Y50013D02*
X68075Y74295D01*
X46723Y47915D02*
X73104Y74295D01*
X46733Y45051D02*
X75977Y74295D01*
X26246D02*
X61620Y38921D01*
X40615Y74295D02*
X65532Y49378D01*
X59676Y50091D02*
X70659Y61074D01*
X60408Y50104D02*
X70706Y60403D01*
X42355Y50013D02*
X66638Y74295D01*
X42770D02*
X66748Y50317D01*
X61308Y49568D02*
X71363Y59623D01*
X61836Y49378D02*
X71923Y59464D01*
X43074Y50013D02*
X67356Y74295D01*
X60921Y49900D02*
X70965Y59943D01*
X41333Y74295D02*
X66030Y49598D01*
X42052Y74295D02*
X66389Y49958D01*
X39178Y74295D02*
X64095Y49378D01*
X39896Y74295D02*
X64814Y49378D01*
X38460Y74295D02*
X63377Y49378D01*
X38853Y31423D02*
X66894Y59465D01*
X37023Y74295D02*
X61940Y49378D01*
X37741Y74295D02*
X62659Y49378D01*
X90602Y50521D02*
X92177D01*
X89687Y47777D02*
X89941D01*
X89687D02*
Y49352D01*
X89941Y45745D02*
Y47777D01*
X87184Y44552D02*
X89941Y47309D01*
X88621Y44552D02*
X89941Y45872D01*
X86465Y44552D02*
X89691Y47777D01*
X87902Y44552D02*
X89941Y46591D01*
X82155Y44552D02*
X88321Y50718D01*
X82873Y44552D02*
X88680Y50359D01*
X80718Y44552D02*
X87603Y51436D01*
X81436Y44552D02*
X87962Y51077D01*
X85029Y44552D02*
X89687Y49210D01*
X85747Y44552D02*
X89687Y48492D01*
X83592Y44552D02*
X89040Y50000D01*
X84310Y44552D02*
X89399Y49640D01*
X90717Y45745D02*
X91586Y44876D01*
X89941Y45745D02*
X91923D01*
X89941Y45803D02*
X89999Y45745D01*
X91193Y44552D01*
X89339D02*
X90533Y45745D01*
X90057Y44552D02*
X91251Y45745D01*
X78842Y36928D02*
X84992Y43078D01*
X78842Y36209D02*
X85711Y43078D01*
X75819Y44552D02*
X91262D01*
X76124Y43078D02*
X91567D01*
X78552Y38075D02*
X83555Y43078D01*
X78842Y37646D02*
X84274Y43078D01*
X78207Y33419D02*
X87866Y43078D01*
X78207Y32701D02*
X88584Y43078D01*
X78842Y35491D02*
X86429Y43078D01*
X78207Y34138D02*
X87147Y43078D01*
X77115Y38075D02*
X82118Y43078D01*
X76396Y38075D02*
X81400Y43078D01*
X77833Y38075D02*
X82837Y43078D01*
X75413Y37809D02*
X80682Y43078D01*
X76098Y38075D02*
X78842D01*
X75413Y35331D02*
Y38075D01*
X76098Y37777D02*
X76396Y38075D01*
X73523D02*
X78526Y43078D01*
X73978Y40932D02*
X76835Y38075D01*
X73619Y40573D02*
X76117Y38075D01*
X73259Y40214D02*
X75398Y38075D01*
X74241D02*
X79245Y43078D01*
X74959Y38075D02*
X79963Y43078D01*
X74696Y41651D02*
X78272Y38075D01*
X74337Y41291D02*
X77554Y38075D01*
X78842Y35331D02*
Y38075D01*
X78682Y35331D02*
X78842Y35491D01*
X75413Y37342D02*
X76098Y36656D01*
X75413Y36373D02*
X76098Y37058D01*
X78207Y34856D02*
X78682Y35331D01*
X78207D02*
X78842D01*
X76098D02*
Y38075D01*
Y35331D02*
X76733D01*
X75413Y36624D02*
X76098Y35938D01*
X75413Y35654D02*
X76098Y36340D01*
X75413Y38060D02*
X76098Y37375D01*
X75413Y37091D02*
X76098Y37777D01*
X75268Y35331D02*
X76733Y33866D01*
X74550Y35331D02*
X76733Y33148D01*
X75413Y35905D02*
X76733Y34584D01*
X75090Y35331D02*
X75413Y35654D01*
X90711Y31555D02*
X108102Y48947D01*
X89930Y31493D02*
X108102Y49665D01*
X82839Y31586D02*
X96674Y45421D01*
X82120Y31586D02*
X96298Y45763D01*
X83557Y31586D02*
X96295Y44323D01*
X84164Y30755D02*
X96636Y43227D01*
X90510Y43078D02*
X104673Y28915D01*
X81128Y31311D02*
X95689Y45872D01*
X84164Y31473D02*
X96344Y43654D01*
X80696Y31598D02*
X94970Y45872D01*
X79977Y31598D02*
X91458Y43078D01*
X78540Y31598D02*
X90021Y43078D01*
X79259Y31598D02*
X90740Y43078D01*
X78297D02*
X89897Y31479D01*
X79016Y43078D02*
X90511Y31583D01*
X76142Y43078D02*
X89066Y30154D01*
X76860Y43078D02*
X89175Y30764D01*
X84164Y29318D02*
X97867Y43022D01*
X84164Y30037D02*
X97096Y42970D01*
X84043Y31586D02*
X84164Y31465D01*
Y28866D02*
Y31586D01*
X83479Y28866D02*
X84164D01*
X81444D02*
X82129D01*
X83619Y28774D02*
X83712Y28866D01*
X78207Y31982D02*
X89303Y43078D01*
X81444Y31586D02*
X84164D01*
X78842Y36787D02*
X84043Y31586D01*
X78842Y35350D02*
X82606Y31586D01*
X77579Y43078D02*
X89466Y31191D01*
X75774Y42728D02*
X89679Y28823D01*
X78842Y36068D02*
X83324Y31586D01*
X78207Y35266D02*
X81887Y31586D01*
X78207Y32393D02*
X79002Y31598D01*
X78207Y33111D02*
X79720Y31598D01*
X78842D02*
X81128D01*
X78384D02*
X78842D01*
X78384D02*
X78842D01*
X78207Y34548D02*
X81444Y31310D01*
X81128Y31090D02*
Y31598D01*
X78207D02*
Y35331D01*
Y33830D02*
X80439Y31598D01*
X78207Y31674D02*
X78283Y31598D01*
X78207D02*
X78384D01*
X76733D02*
Y35331D01*
X73831D02*
X76733Y32429D01*
X76385Y31598D02*
X76733Y31946D01*
X76098Y31598D02*
X76733D01*
X76098Y29108D02*
Y31598D01*
Y31311D02*
X76385Y31598D01*
X81128Y29616D02*
X81444D01*
X81128Y29156D02*
X81444Y29473D01*
Y31090D02*
Y31586D01*
X81128Y31090D02*
X81444D01*
X81128Y29472D02*
X81444Y29155D01*
X81733Y28866D01*
X81128Y29108D02*
Y29616D01*
X81444Y28866D02*
Y29616D01*
X78384Y29108D02*
X78842D01*
X81128D01*
X78232D02*
X78384D01*
X78842D01*
X76733Y28829D02*
Y29108D01*
X78579Y28762D02*
X78925Y29108D01*
X76098D02*
X76733D01*
X76462D02*
X76733Y28837D01*
X70484Y51610D02*
X77543Y44552D01*
X70125Y51251D02*
X76824Y44552D01*
X69766Y50891D02*
X76106Y44552D01*
X69407Y50532D02*
X75473Y44465D01*
X69047Y50173D02*
X75091Y44129D01*
X68688Y49814D02*
X74732Y43770D01*
X68329Y49455D02*
X74373Y43411D01*
X67970Y49095D02*
X74014Y43051D01*
X67611Y48736D02*
X73655Y42692D01*
X67251Y48377D02*
X73295Y42333D01*
X66892Y48018D02*
X72936Y41974D01*
X66482Y47710D02*
X72577Y41615D01*
X65823Y47650D02*
X72218Y41255D01*
X64386Y47650D02*
X71499Y40537D01*
X65104Y47650D02*
X71858Y40896D01*
X62949Y47650D02*
X70239Y40361D01*
X63667Y47650D02*
X70957Y40361D01*
X72238Y38226D02*
X77090Y43078D01*
X72804Y38075D02*
X77808Y43078D01*
X72238Y39192D02*
X76124Y43078D01*
X72238Y38945D02*
X76371Y43078D01*
X72900Y39854D02*
X74680Y38075D01*
X72669D02*
X75413D01*
X72541Y39495D02*
X73962Y38075D01*
X72669Y37940D02*
X72804Y38075D01*
X71323Y40361D02*
X75298Y44336D01*
X72238Y39080D02*
X73243Y38075D01*
X69748Y40048D02*
X70061Y40361D01*
X69748D02*
X71323D01*
X72238Y38075D02*
Y39192D01*
Y38362D02*
X72669Y37930D01*
X63348Y44378D02*
X69748Y37977D01*
Y38075D02*
Y40361D01*
X63241Y45754D02*
X65138Y47650D01*
X62547Y46497D02*
X63701Y47650D01*
X62907Y46138D02*
X64419Y47650D01*
X63348Y45142D02*
X65856Y47650D01*
X62231D02*
X69748Y40133D01*
X61448Y49378D02*
X65809D01*
X61448Y47650D02*
X66167D01*
X61829Y47215D02*
X62264Y47650D01*
X62188Y46856D02*
X62983Y47650D01*
X61512D02*
X69748Y39414D01*
X61427Y47617D02*
X63094Y45951D01*
X58980Y47309D02*
X61620Y44668D01*
X59661Y46941D02*
X61620Y44981D01*
X61443Y44128D02*
X61620Y43950D01*
X61443Y43237D02*
X61620Y43415D01*
X61443Y44674D02*
X61620Y44851D01*
X61443Y43955D02*
X61620Y44133D01*
X63348Y45097D02*
X69748Y38696D01*
X63348Y40068D02*
X65722Y37694D01*
X63348D02*
Y45339D01*
X61620Y37694D02*
Y44981D01*
X61443Y42691D02*
X61620Y42513D01*
X61353Y42062D02*
X61620Y41795D01*
X61443Y43409D02*
X61620Y43232D01*
X61443Y42518D02*
X61620Y42696D01*
X58773Y37694D02*
X61620Y40541D01*
X54762Y37694D02*
X61620D01*
X60634Y42062D02*
X61620Y41076D01*
X59197Y42062D02*
X61620Y39639D01*
X72669Y37440D02*
Y38075D01*
X72238Y37617D02*
Y38075D01*
Y37508D02*
X72669Y37940D01*
X72238Y37617D02*
Y38075D01*
Y37440D02*
Y37617D01*
X72478Y35966D02*
X72669Y35775D01*
Y35331D02*
Y35966D01*
X72238Y37643D02*
X72441Y37440D01*
X72238D02*
X72669D01*
X72238Y35966D02*
X72669D01*
X72238Y35353D02*
X72669Y35785D01*
X63348Y41504D02*
X70256Y34596D01*
X72238Y35331D02*
Y35966D01*
X71730Y31253D02*
X76098Y35621D01*
X72238Y35488D02*
X76128Y31598D01*
X71730Y32690D02*
X74371Y35331D01*
X71730Y31971D02*
X75090Y35331D01*
X71730Y34126D02*
X72935Y35331D01*
X72669D02*
X75413D01*
X71730Y34845D02*
X72216Y35331D01*
X71730D02*
X72238D01*
X73113D02*
X76733Y31711D01*
X72154Y28804D02*
X76733Y33383D01*
X71730Y28804D02*
Y35331D01*
Y30534D02*
X76527Y35331D01*
X71730Y35278D02*
X76098Y30909D01*
X71730Y34559D02*
X76098Y30190D01*
X69748Y35331D02*
X70256D01*
X71730Y33408D02*
X73653Y35331D01*
X71730Y29816D02*
X76733Y34820D01*
X71730Y29097D02*
X76733Y34101D01*
X71730Y33841D02*
X76098Y29472D01*
X71730Y28804D02*
X72238D01*
X66142Y35723D02*
X69748Y39329D01*
X66142Y36441D02*
X69748Y40048D01*
Y35331D02*
Y37617D01*
Y38075D01*
Y37617D02*
Y38075D01*
X63348Y40786D02*
X70256Y33877D01*
X66142Y37274D02*
X70256Y33159D01*
X66142Y35004D02*
X69748Y38611D01*
X66142Y34286D02*
X69748Y37893D01*
X63348Y38631D02*
X64285Y37694D01*
X63348D02*
X66142D01*
X58055D02*
X61620Y41259D01*
X63348Y37912D02*
X63566Y37694D01*
X63348Y42941D02*
X69748Y36540D01*
X63348Y42223D02*
X69748Y35822D01*
X63348Y43660D02*
X69748Y37259D01*
X63348Y39349D02*
X65003Y37694D01*
X66142Y36555D02*
X70256Y32440D01*
X66142Y35837D02*
X70256Y31722D01*
X66142Y33567D02*
X69748Y37174D01*
X66142Y32130D02*
X69748Y35737D01*
X69999Y28804D02*
X70256Y29061D01*
X69748Y28804D02*
X70256D01*
X66142Y31412D02*
X70061Y35331D01*
X70256Y28804D02*
Y35331D01*
X66142Y30694D02*
X70256Y34808D01*
X66142Y34400D02*
X70256Y30285D01*
X66142Y32849D02*
X69748Y36456D01*
X66142Y35118D02*
X70256Y31003D01*
X66142Y29257D02*
X70256Y33372D01*
X66142Y32963D02*
X70256Y28848D01*
X66142Y29975D02*
X70256Y34090D01*
X66142Y33681D02*
X70256Y29567D01*
X47363Y62205D02*
X59453Y74295D01*
X46645Y62205D02*
X58735Y74295D01*
X47727Y61850D02*
X60172Y74295D01*
X45208Y62205D02*
X57298Y74295D01*
X45926Y62205D02*
X58017Y74295D01*
X47727Y61131D02*
X60890Y74295D01*
X47727Y60413D02*
X61609Y74295D01*
X36135Y54569D02*
X55861Y74295D01*
X36494Y54209D02*
X56580Y74295D01*
X34392Y57136D02*
X51551Y74295D01*
X34392Y56417D02*
X52269Y74295D01*
X34392Y58573D02*
X50114Y74295D01*
X34392Y57854D02*
X50832Y74295D01*
X35417Y55287D02*
X54425Y74295D01*
X35776Y54928D02*
X55143Y74295D01*
X34698Y56006D02*
X52988Y74295D01*
X35057Y55646D02*
X53706Y74295D01*
X34950Y61286D02*
X47959Y74295D01*
X44983Y62205D02*
X47727D01*
X35586Y74295D02*
X47676Y62205D01*
X44983Y61980D02*
X45208Y62205D01*
X35011Y60629D02*
X48677Y74295D01*
X47727Y59461D02*
Y62205D01*
X47494Y59461D02*
X47727Y59694D01*
X44983Y59461D02*
X47727D01*
X34149Y74295D02*
X46240Y62205D01*
X34868Y74295D02*
X46958Y62205D01*
X33431Y74295D02*
X45521Y62205D01*
X33712Y62203D02*
X45804Y74295D01*
X34685Y61739D02*
X47240Y74295D01*
X34392Y59291D02*
X49396Y74295D01*
X31994D02*
X44983Y61305D01*
X34281Y62054D02*
X46522Y74295D01*
X21936D02*
X34101Y62130D01*
X21869Y61855D02*
X34309Y74295D01*
X32712D02*
X44983Y62024D01*
X21218Y74295D02*
X33344Y62169D01*
X21419Y62124D02*
X33590Y74295D01*
X31275D02*
X44983Y60587D01*
X30557Y74295D02*
X44983Y59869D01*
X22181Y61449D02*
X35027Y74295D01*
X22326Y60875D02*
X35746Y74295D01*
X19781D02*
X32501Y61575D01*
X20499Y74295D02*
X32850Y61944D01*
X17158Y61454D02*
X29998Y74295D01*
X19062D02*
X32302Y61056D01*
X16907Y74295D02*
X32918Y58284D01*
X16189Y74295D02*
X32918Y57565D01*
X17306Y60884D02*
X30717Y74295D01*
X18344D02*
X32438Y60201D01*
X44983Y59461D02*
Y62205D01*
X34392Y56312D02*
Y59676D01*
X37572Y53132D02*
X44983Y60543D01*
X37931Y52773D02*
X44983Y59825D01*
X36853Y53850D02*
X44983Y61980D01*
X37213Y53491D02*
X44983Y61262D01*
X20769Y62192D02*
X32872Y74295D01*
X16392Y62126D02*
X28561Y74295D01*
X16844Y61860D02*
X29280Y74295D01*
X32918Y56007D02*
Y59676D01*
X17625Y74295D02*
X32918Y59002D01*
X47727Y62154D02*
X59770Y50111D01*
X36304Y74295D02*
X60524Y50075D01*
X34952Y61279D02*
X45607Y50624D01*
X34991Y60522D02*
X45126Y50386D01*
X34766Y60028D02*
X44782Y50013D01*
X29839Y74295D02*
X59328Y44806D01*
X47727Y61436D02*
X59247Y49915D01*
X29120Y74295D02*
X58699Y44716D01*
X47727Y60718D02*
X58853Y49591D01*
X27683Y74295D02*
X58699Y43279D01*
X26965Y74295D02*
X58699Y42560D01*
X22654Y74295D02*
X46320Y50630D01*
X28402Y74295D02*
X58699Y43997D01*
X24810Y74295D02*
X61411Y37694D01*
X25528Y74295D02*
X61620Y38203D01*
X23373Y74295D02*
X59974Y37694D01*
X24091Y74295D02*
X60693Y37694D01*
X47727Y59999D02*
X58575Y49151D01*
X46827Y59461D02*
X58866Y47423D01*
X47546Y59461D02*
X58446Y48561D01*
X46109Y59461D02*
X60765Y44806D01*
X45391Y59461D02*
X60046Y44806D01*
X47328Y49622D02*
X59256Y37694D01*
X39009Y51695D02*
X46775Y59461D01*
X39368Y51336D02*
X47494Y59461D01*
X38290Y52413D02*
X45338Y59461D01*
X38650Y52054D02*
X46057Y59461D01*
X41631Y50013D02*
X44787D01*
X34397Y59679D02*
X44063Y50013D01*
X34392Y58966D02*
X43345Y50013D01*
X34392Y57529D02*
X41273Y50648D01*
X34392Y58247D02*
X42626Y50013D01*
X34392Y56810D02*
X40554Y50648D01*
X34392Y56312D02*
X40056Y50648D01*
X33134Y55486D02*
X39141Y49479D01*
X22319Y60981D02*
X39859Y43441D01*
X22237Y60344D02*
X39426Y43155D01*
X21961Y59901D02*
X38708Y43155D01*
X23989Y43141D02*
X34734Y53886D01*
X21548Y59596D02*
X37989Y43155D01*
X20964Y59461D02*
X37271Y43155D01*
X17300Y60971D02*
X35116Y43155D01*
X16522Y59593D02*
X32961Y43155D01*
X17214Y60338D02*
X34397Y43155D01*
X19982Y39853D02*
X34375Y54245D01*
X16937Y59896D02*
X33679Y43155D01*
X19264Y39853D02*
X34016Y54605D01*
X40056Y50648D02*
X41631D01*
Y50290D02*
X41908Y50013D01*
X41631D02*
Y50648D01*
X39141Y47904D02*
Y49479D01*
X31905Y43155D02*
X38685Y49935D01*
X32624Y43155D02*
X39045Y49576D01*
X30468Y43155D02*
X37967Y50653D01*
X31187Y43155D02*
X38326Y50294D01*
X26158Y43155D02*
X35812Y52809D01*
X26876Y43155D02*
X36171Y52449D01*
X24721Y43155D02*
X35093Y53527D01*
X25439Y43155D02*
X35453Y53168D01*
X29032Y43155D02*
X37249Y51372D01*
X29750Y43155D02*
X37608Y51012D01*
X27595Y43155D02*
X36530Y52090D01*
X28313Y43155D02*
X36889Y51731D01*
X15738Y62190D02*
X27843Y74295D01*
X14752D02*
X32918Y56128D01*
X15470Y74295D02*
X32918Y56847D01*
X9004Y74295D02*
X21103Y62197D01*
X1905Y54823D02*
X21377Y74295D01*
X13315D02*
X39141Y48468D01*
X12596Y74295D02*
X39395Y47496D01*
X1905Y51231D02*
X24969Y74295D01*
X14033D02*
X39141Y49187D01*
X1905Y53386D02*
X22814Y74295D01*
X1905Y52668D02*
X23532Y74295D01*
X1905Y55541D02*
X20659Y74295D01*
X1905Y54104D02*
X22096Y74295D01*
X1905Y49794D02*
X26406Y74295D01*
X1905Y49075D02*
X27125Y74295D01*
X1905Y51949D02*
X24251Y74295D01*
X1905Y50512D02*
X25688Y74295D01*
X7568D02*
X20023Y61839D01*
X8286Y74295D02*
X20466Y62115D01*
X8583Y69687D02*
X16073Y62198D01*
X8345Y69207D02*
X15440Y62112D01*
X8577Y72567D02*
X19718Y61426D01*
X8835Y71590D02*
X19583Y60842D01*
X8054Y68779D02*
X14998Y61835D01*
X1905Y59852D02*
X16348Y74295D01*
X1905Y59133D02*
X17067Y74295D01*
X1905Y61289D02*
X14911Y74295D01*
X1905Y60570D02*
X15630Y74295D01*
X1905Y56978D02*
X19222Y74295D01*
X1905Y56260D02*
X19940Y74295D01*
X1905Y58415D02*
X17785Y74295D01*
X1905Y57697D02*
X18503Y74295D01*
X8443Y72856D02*
X9882Y74295D01*
X8172Y73303D02*
X9164Y74295D01*
X8658Y72352D02*
X10601Y74295D01*
X7479Y74047D02*
X7727Y74295D01*
X7850Y73699D02*
X8446Y74295D01*
X8779Y70317D02*
X12756Y74295D01*
X8282Y69102D02*
X13475Y74295D01*
X8806Y71782D02*
X11319Y74295D01*
X8865Y71122D02*
X12038Y74295D01*
X2539D02*
X2739Y74094D01*
X1905Y74295D02*
X3020D01*
X1905Y74220D02*
X1980Y74295D01*
X1905Y73502D02*
X2698Y74295D01*
X1905Y62007D02*
X14193Y74295D01*
X1905Y73180D02*
Y74295D01*
Y74210D02*
X2362Y73753D01*
X1905Y67754D02*
X2501Y68350D01*
X1905Y73492D02*
X2033Y73364D01*
X1905Y68473D02*
X2153Y68721D01*
X7713Y68402D02*
X14695Y61420D01*
X7324Y68073D02*
X14563Y60833D01*
X1905Y67036D02*
X2897Y68028D01*
X1905Y64881D02*
X4418Y67394D01*
X1905Y64162D02*
X5078Y67335D01*
X1905Y66318D02*
X3344Y67757D01*
X1905Y65599D02*
X3848Y67542D01*
X1905Y48357D02*
X14578Y61030D01*
X1905Y47639D02*
X14642Y60376D01*
X1905Y62725D02*
X7098Y67918D01*
X1905Y63444D02*
X5883Y67421D01*
X11878Y74295D02*
X39395Y46778D01*
X9723Y74295D02*
X40218Y43800D01*
X10441Y74295D02*
X40577Y44159D01*
X1905Y39736D02*
X36464Y74295D01*
X11160D02*
X39395Y46059D01*
X1905Y36862D02*
X39338Y74295D01*
X1905Y36144D02*
X40056Y74295D01*
X1905Y39018D02*
X37182Y74295D01*
X1905Y38299D02*
X37901Y74295D01*
X1905Y37581D02*
X38619Y74295D01*
X1905Y33989D02*
X42211Y74295D01*
X1905Y44765D02*
X31435Y74295D01*
X1905Y44047D02*
X32153Y74295D01*
X1905Y31833D02*
X44367Y74295D01*
X1905Y31115D02*
X45085Y74295D01*
X1905Y33270D02*
X42930Y74295D01*
X1905Y32552D02*
X43648Y74295D01*
X6390Y67570D02*
X30805Y43155D01*
X5831Y67411D02*
X30087Y43155D01*
X4409Y67395D02*
X28650Y43155D01*
X5186Y67337D02*
X29368Y43155D01*
X8855Y70852D02*
X36553Y43155D01*
X8759Y70230D02*
X35834Y43155D01*
X6885Y67793D02*
X31524Y43155D01*
X15935Y59461D02*
X32242Y43155D01*
X1905Y35425D02*
X40775Y74295D01*
X3313Y67773D02*
X27932Y43155D01*
X1905Y68463D02*
X27213Y43155D01*
X1905Y67744D02*
X26495Y43155D01*
X1905Y34707D02*
X41493Y74295D01*
X1905Y28960D02*
X32749Y59803D01*
X1905Y30396D02*
X32285Y60776D01*
X1905Y29678D02*
X32434Y60207D01*
X1905Y42610D02*
X19664Y60369D01*
X1905Y43328D02*
X19596Y61019D01*
X1905Y41891D02*
X19933Y59919D01*
X1905Y46920D02*
X14908Y59923D01*
X1905Y46202D02*
X15314Y59610D01*
X1905Y61279D02*
X21927Y41257D01*
X1905Y60560D02*
X21568Y40897D01*
X1905Y59842D02*
X21209Y40538D01*
X1905Y41173D02*
X20339Y59607D01*
X1905Y67026D02*
X25776Y43155D01*
X1905Y66308D02*
X25058Y43155D01*
X1905Y65589D02*
X24340Y43155D01*
X1905Y64871D02*
X23736Y43040D01*
X1905Y64152D02*
X23364Y42693D01*
X1905Y63434D02*
X23005Y42334D01*
X1905Y62715D02*
X22645Y41975D01*
X1905Y61997D02*
X22286Y41616D01*
X1905Y53376D02*
X18948Y36333D01*
X1905Y52658D02*
X18948Y35614D01*
X1905Y54813D02*
X18948Y37769D01*
X1905Y54094D02*
X18948Y37051D01*
X1905Y50502D02*
X19456Y32951D01*
X1905Y49784D02*
X19456Y32232D01*
X1905Y51939D02*
X18948Y34896D01*
X1905Y51221D02*
X19456Y33669D01*
X1905Y40454D02*
X20913Y59462D01*
X1905Y59123D02*
X20849Y40179D01*
X1905Y45483D02*
X15884Y59462D01*
X1905Y58405D02*
X20457Y39853D01*
X1905Y57686D02*
X19739Y39853D01*
X1905Y56968D02*
X19020Y39853D01*
X1905Y56250D02*
X18948Y39206D01*
X1905Y55531D02*
X18948Y38488D01*
X61470Y47574D02*
X61546Y47650D01*
X59419Y44806D02*
X60608Y45994D01*
X60138Y44806D02*
X60967Y45635D01*
X58701Y44806D02*
X60249Y46353D01*
X41631Y48539D02*
X44787D01*
X44099D02*
X44951Y47688D01*
X43381Y48539D02*
X44448Y47473D01*
X44196D02*
X44787D01*
X44122Y47469D02*
X44964Y48311D01*
X44493Y45991D02*
X45338Y45146D01*
X39089Y43155D02*
X44474Y48539D01*
X44501Y45999D02*
X44787D01*
X60856Y44806D02*
X61326Y45276D01*
X58699Y44806D02*
X61443D01*
X46265Y45301D02*
X46356Y45392D01*
X45465Y45219D02*
X45628Y45383D01*
X45465Y45219D02*
X45628Y45383D01*
X44133Y45632D02*
X44989Y44776D01*
X43774Y45273D02*
X44831Y44216D01*
X42663Y48539D02*
X43828Y47374D01*
X41631Y47904D02*
Y48539D01*
X41377Y47597D02*
X42319Y48539D01*
X41944D02*
X43451Y47033D01*
X41631Y48135D02*
X43092Y46673D01*
X41377Y46879D02*
X43037Y48539D01*
X41377Y47670D02*
X42733Y46314D01*
X41377Y46160D02*
X43756Y48539D01*
X41377Y47904D02*
X41631D01*
X39141D02*
X39395D01*
X41377Y45872D02*
Y47904D01*
X39395Y45872D02*
Y47904D01*
X34779Y43155D02*
X39395Y47771D01*
X33342Y43155D02*
X39141Y48954D01*
X34060Y43155D02*
X39141Y48236D01*
X41377Y46952D02*
X42373Y45955D01*
X41377Y46233D02*
X42014Y45596D01*
X39573Y43155D02*
X43675Y47257D01*
X41019Y45872D02*
X41655Y45237D01*
X39582Y45872D02*
X40936Y44518D01*
X40301Y45872D02*
X41296Y44877D01*
X38371Y43155D02*
X41089Y45872D01*
X39395D02*
X41377D01*
X39395Y46059D02*
X39582Y45872D01*
X36934Y43155D02*
X39652Y45872D01*
X37653Y43155D02*
X40370Y45872D01*
X35497Y43155D02*
X39395Y47053D01*
X36216Y43155D02*
X39395Y46334D01*
X58699Y42062D02*
Y44806D01*
X47322Y48909D02*
X58537Y37694D01*
X61443Y42062D02*
Y44806D01*
X47371Y46705D02*
X56382Y37694D01*
X47231Y46126D02*
X55664Y37694D01*
X47084Y48428D02*
X57819Y37694D01*
X46707Y48087D02*
X57100Y37694D01*
X46926Y45713D02*
X54945Y37694D01*
X47112Y44090D02*
X54762Y36440D01*
X43056Y44554D02*
X54762Y32847D01*
X42697Y44195D02*
X54762Y32129D01*
X46485Y45436D02*
X54762Y37158D01*
X43415Y44913D02*
X54762Y33566D01*
X40602Y31018D02*
X58494Y48909D01*
X40770Y29748D02*
X58685Y47664D01*
X40824Y30521D02*
X58481Y48177D01*
X42337Y43836D02*
X54762Y31411D01*
X59916Y42062D02*
X61620Y40358D01*
X60210Y37694D02*
X61620Y39104D01*
X58699Y42062D02*
X61443D01*
X59492Y37694D02*
X61620Y39822D01*
X60928Y37694D02*
X61620Y38386D01*
X56618Y37694D02*
X60987Y42062D01*
X57336Y37694D02*
X61620Y41978D01*
X55181Y37694D02*
X59550Y42062D01*
X55899Y37694D02*
X60268Y42062D01*
X46924Y43560D02*
X54762Y35721D01*
X46554Y43211D02*
X54762Y35003D01*
X41619Y43117D02*
X54762Y29974D01*
X41260Y42758D02*
X54762Y29255D01*
X41978Y43476D02*
X54762Y30692D01*
X45994Y43053D02*
X54762Y34284D01*
X40399Y41897D02*
X44501Y45999D01*
X31831Y31586D02*
X44951Y44705D01*
X32549Y31586D02*
X44869Y43905D01*
X33237Y30836D02*
X45539Y43139D01*
X33237Y30118D02*
X46193Y43074D01*
X33237Y31554D02*
X45119Y43437D01*
X31113Y31586D02*
X45141Y45614D01*
X31831Y31586D02*
X44951Y44705D01*
X29405Y41681D02*
X39501Y31586D01*
X30517Y31586D02*
X33237D01*
X30279Y31471D02*
X44795Y45987D01*
X29561Y31471D02*
X39771Y41681D01*
X28686D02*
X38914Y31454D01*
X28842Y31471D02*
X39053Y41681D01*
X33035Y31586D02*
X33237Y31384D01*
Y28866D02*
Y31586D01*
X32552Y28866D02*
X33237D01*
X30517D02*
X31202D01*
X32645Y28808D02*
X32704Y28866D01*
X30517D02*
Y29489D01*
Y29074D02*
X30725Y28866D01*
X30517Y30963D02*
Y31586D01*
X30328Y31419D02*
X30517Y31229D01*
X30328Y30963D02*
Y31471D01*
Y30963D02*
X30517D01*
X30328Y29489D02*
X30517D01*
X30328Y29264D02*
X30517Y29074D01*
X30328Y28981D02*
Y29489D01*
Y29364D02*
X30453Y29489D01*
X27036Y37567D02*
X31150Y41681D01*
X26317Y37567D02*
X30432Y41681D01*
X27754Y37567D02*
X31869Y41681D01*
X24613Y37299D02*
X28995Y41681D01*
X25599Y37567D02*
X29714Y41681D01*
X28042Y35699D02*
X34024Y41681D01*
X28042Y34980D02*
X34743Y41681D01*
X28042Y37136D02*
X32587Y41681D01*
X28042Y36417D02*
X33306Y41681D01*
X24130Y43155D02*
X39573D01*
X24435Y41681D02*
X39878D01*
X21438Y37716D02*
X25403Y41681D01*
X24162Y37567D02*
X28277Y41681D01*
X23444Y37567D02*
X27558Y41681D01*
X24046Y41293D02*
X27772Y37567D01*
X22007D02*
X26121Y41681D01*
X22725Y37567D02*
X26840Y41681D01*
X25298Y37567D02*
X28042D01*
X27772D02*
X28042Y37297D01*
X25298Y37266D02*
X25599Y37567D01*
X24613Y36580D02*
X25298Y37266D01*
X27885Y34823D02*
X28042Y34980D01*
X27407Y34823D02*
X28042D01*
X24613Y37134D02*
X25298Y36448D01*
Y35011D02*
X25486Y34823D01*
X23687Y40933D02*
X27054Y37567D01*
X23328Y40574D02*
X26335Y37567D01*
X22969Y40215D02*
X25617Y37567D01*
X22609Y39856D02*
X25298Y37167D01*
X24613Y35144D02*
X25298Y35829D01*
X24613Y35697D02*
X25298Y35011D01*
X24613Y35862D02*
X25298Y36548D01*
X24613Y36416D02*
X25298Y35730D01*
X21438Y38684D02*
X24435Y41681D01*
X22250Y39497D02*
X24180Y37567D01*
X21891Y39137D02*
X23462Y37567D01*
X21532Y38778D02*
X22743Y37567D01*
X24613Y34823D02*
Y37567D01*
X21869Y36932D02*
Y37567D01*
Y37429D02*
X22007Y37567D01*
X20523Y39853D02*
X23609Y42939D01*
X21438Y38434D02*
X24685Y41681D01*
X18948Y39537D02*
X19264Y39853D01*
X18948D02*
X20523D01*
X21438Y37567D02*
Y38684D01*
Y38154D02*
X22025Y37567D01*
X18948D02*
Y39853D01*
X21438Y37109D02*
Y37567D01*
X21869D02*
X24613D01*
X21438Y37435D02*
X21869Y37004D01*
X21438Y37109D02*
Y37567D01*
Y36998D02*
X21869Y37429D01*
X24292Y34823D02*
X24613Y35144D01*
X21869Y34823D02*
X24613D01*
X21438Y36932D02*
Y37109D01*
Y36932D02*
X21869D01*
X21438Y35458D02*
X21869D01*
X21438Y35280D02*
X21869Y34848D01*
X18948Y37109D02*
Y37567D01*
Y37109D02*
Y37567D01*
X21438Y34823D02*
Y35458D01*
Y34842D02*
X21869Y35274D01*
X18948Y34823D02*
Y37109D01*
Y34896D02*
X19021Y34823D01*
X27407Y32909D02*
X36179Y41681D01*
X27407Y32190D02*
X36898Y41681D01*
X28042Y36579D02*
X33035Y31586D01*
X28042Y34823D02*
Y37567D01*
Y35860D02*
X32316Y31586D01*
X28124Y31471D02*
X38335Y41681D01*
X27968D02*
X38500Y31150D01*
X28042Y35142D02*
X31598Y31586D01*
X27642Y34823D02*
X30880Y31586D01*
X27407Y33627D02*
X35461Y41681D01*
X25298Y34823D02*
X25933D01*
X24613Y34979D02*
X25933Y33658D01*
X24050Y34823D02*
X25933Y32940D01*
X27250Y41681D02*
X38225Y30706D01*
X25813Y41681D02*
X38704Y28790D01*
X27407Y31472D02*
X37616Y41681D01*
X26531D02*
X38147Y30066D01*
X27407Y33622D02*
X29558Y31471D01*
X28042D02*
X30328D01*
X27584D02*
X28042D01*
X27584D02*
X28042D01*
X27407Y34340D02*
X30276Y31471D01*
X28042Y28981D02*
X30328D01*
X27813D02*
X28042D01*
X27813D02*
X28042D01*
X27407Y34345D02*
X27885Y34823D01*
X27407Y31471D02*
X27584D01*
X22613Y34823D02*
X25933Y31503D01*
X25486Y34823D02*
X25933Y34376D01*
X27407Y32903D02*
X28839Y31471D01*
X27407Y32185D02*
X28121Y31471D01*
X27407D02*
Y34823D01*
X25298Y28981D02*
X25940D01*
X25933Y31471D02*
Y34823D01*
X25298D02*
Y37567D01*
X23331Y34823D02*
X25933Y32221D01*
X21869Y34823D02*
Y35458D01*
X20930Y31461D02*
X24292Y34823D01*
X21176D02*
X25298Y30701D01*
X20930Y30024D02*
X25729Y34823D01*
X20930Y30742D02*
X25298Y35111D01*
X21894Y34823D02*
X25298Y31419D01*
X20930Y32897D02*
X22856Y34823D01*
X20930Y32179D02*
X23574Y34823D01*
X1905Y49065D02*
X19456Y31514D01*
X1905Y48347D02*
X19456Y30796D01*
X1905Y47629D02*
X19456Y30077D01*
X1905Y46910D02*
X19456Y29359D01*
X1905Y46192D02*
X19293Y28804D01*
X19456D02*
Y34823D01*
X20930Y33616D02*
X22137Y34823D01*
X25298Y31471D02*
X25933D01*
X20930Y34334D02*
X21419Y34823D01*
X20930D02*
X21438D01*
X21146Y28804D02*
X25933Y33591D01*
X25298Y29264D02*
X25581Y28981D01*
X20930Y34351D02*
X25298Y29983D01*
Y28981D02*
Y31471D01*
X20930Y29305D02*
X25933Y34309D01*
X20930Y33633D02*
X25298Y29264D01*
X19021Y34823D02*
X19456Y34388D01*
X18948Y34823D02*
X19456D01*
X20930Y28804D02*
Y34823D01*
Y28804D02*
X21438D01*
X18991D02*
X19456Y29269D01*
X18948Y28804D02*
X19456D01*
X89792Y43078D02*
X104673Y28197D01*
X84151Y27869D02*
X116727Y60445D01*
X89074Y43078D02*
X104673Y27479D01*
X88355Y43078D02*
X104673Y26760D01*
X87637Y43078D02*
X104673Y26042D01*
X84164Y31465D02*
X89492Y26136D01*
X84164Y30746D02*
X89191Y25719D01*
X84073Y25635D02*
X89157Y30720D01*
X83962Y28398D02*
X116707Y61143D01*
X75415Y42369D02*
X89313Y28470D01*
X75055Y42010D02*
X89095Y27971D01*
X80773Y29108D02*
X81458Y28423D01*
X83941Y26940D02*
X108102Y51102D01*
X83795Y26076D02*
X108102Y50383D01*
X79734Y43078D02*
X96295Y26518D01*
X78842Y37505D02*
X89159Y27188D01*
X81733Y28866D02*
X81899Y28701D01*
X83379Y26378D02*
X83550Y26549D01*
X89840Y26374D02*
X89898Y26432D01*
X78918Y28423D02*
X81661D01*
X81495Y26949D02*
X82122Y26322D01*
X81113Y28423D02*
X81557Y28866D01*
X78613Y26949D02*
X81661D01*
X80776D02*
X81737Y25989D01*
X81446Y25883D02*
X82092Y26528D01*
X80728Y25883D02*
X81716Y26871D01*
X75667Y25883D02*
X81661D01*
X80054Y29108D02*
X80740Y28423D01*
X79676D02*
X80362Y29108D01*
X80394Y28423D02*
X81080Y29108D01*
X78957Y28423D02*
X79643Y29108D01*
X79336D02*
X80022Y28423D01*
X78232Y29108D02*
X78918Y28423D01*
X78617Y29108D02*
X79303Y28423D01*
X76949Y28308D02*
X78092Y27165D01*
X75616Y26518D02*
X77178Y28080D01*
X74897Y26518D02*
X76835Y28456D01*
X72238Y28304D02*
X74024Y26518D01*
X75699Y25883D02*
X77537Y27720D01*
X76417Y25883D02*
X77896Y27361D01*
X73460Y26518D02*
X76098Y29156D01*
X74179Y26518D02*
X76733Y29072D01*
X78573Y25883D02*
X79640Y26949D01*
X78621D02*
X79688Y25883D01*
X80010D02*
X81076Y26949D01*
X80058D02*
X81125Y25883D01*
X79291D02*
X80358Y26949D01*
X79339D02*
X80406Y25883D01*
X77854D02*
X78921Y26949D01*
X75667Y26312D02*
X76096Y25883D01*
X72923Y26518D02*
X75667D01*
X75461D02*
X75667Y26312D01*
X77136Y25883D02*
X78281Y27028D01*
X75667Y25883D02*
Y26518D01*
X72923Y25883D02*
Y26518D01*
X72825Y25883D02*
X72923Y25981D01*
X86918Y43078D02*
X104673Y25323D01*
X85481Y43078D02*
X104673Y23886D01*
X86200Y43078D02*
X104673Y24605D01*
X84156Y25000D02*
X89095Y29939D01*
X84164Y29309D02*
X89710Y23763D01*
X84045Y43078D02*
X104673Y22450D01*
X84763Y43078D02*
X104673Y23168D01*
X84149Y27888D02*
X89104Y22932D01*
X84144Y22833D02*
X89066Y27755D01*
X83326Y43078D02*
X104673Y21731D01*
X83942Y23350D02*
X89680Y29088D01*
X83590Y23716D02*
X89314Y29440D01*
X83888Y28866D02*
X89335Y23420D01*
X81171Y43078D02*
X104673Y19576D01*
X80453Y43078D02*
X104673Y18858D01*
X82608Y43078D02*
X104673Y21013D01*
X81889Y43078D02*
X104673Y20294D01*
X84086Y27232D02*
X89130Y22187D01*
X84012Y21983D02*
X89176Y27146D01*
X83980Y24464D02*
X94386Y14058D01*
X84138Y22869D02*
X94386Y12621D01*
X83819Y26781D02*
X92227Y18372D01*
X84156Y25006D02*
X94386Y14776D01*
X83411Y26470D02*
X94386Y15495D01*
X83647Y24079D02*
X94386Y13339D01*
X77569Y24409D02*
X89233Y12746D01*
X82672Y12740D02*
X94342Y24409D01*
X83228Y12578D02*
X94386Y23736D01*
X83686Y12317D02*
X94386Y23017D01*
X78287Y24409D02*
X93881Y8816D01*
X79006Y24409D02*
X94240Y9175D01*
X84164Y30028D02*
X89065Y25127D01*
X81161Y24409D02*
X81926Y23644D01*
X76132Y24409D02*
X87964Y12577D01*
X76850Y24409D02*
X88521Y12739D01*
X79724Y24409D02*
X81447Y22687D01*
X80443Y24409D02*
X81605Y23247D01*
X75667Y23774D02*
Y24409D01*
X81661D01*
X72923Y23774D02*
Y24409D01*
X72540D02*
X72923Y24026D01*
X75413Y22004D02*
X77818Y24409D01*
X75413Y21286D02*
X78536Y24409D01*
X74806Y22835D02*
X76381Y24409D01*
X75413Y22722D02*
X77100Y24409D01*
X74088Y22835D02*
X75028Y23774D01*
X75667Y24156D02*
X87507Y12316D01*
X75330Y23774D02*
X87131Y11973D01*
X74612Y23774D02*
X86834Y11552D01*
X75413Y20599D02*
Y22835D01*
X73893Y23774D02*
X74833Y22835D01*
X72923Y23774D02*
X75667D01*
X72923Y24026D02*
X73175Y23774D01*
X73369Y22835D02*
X74309Y23774D01*
X73175D02*
X74115Y22835D01*
X73177D02*
X75413D01*
X73177Y20599D02*
Y22835D01*
Y22643D02*
X73369Y22835D01*
X72238Y27450D02*
X76098Y31311D01*
X72238Y28169D02*
X76733Y32664D01*
X72238Y26732D02*
X76098Y30593D01*
X71730Y30249D02*
X75461Y26518D01*
X72238Y26013D02*
X76098Y29874D01*
X71730Y33122D02*
X78969Y25883D01*
X71730Y32404D02*
X78251Y25883D01*
X71730Y31686D02*
X77533Y25883D01*
X71730Y30967D02*
X76814Y25883D01*
X66142Y28538D02*
X70256Y32653D01*
X66142Y27820D02*
X70256Y31935D01*
X66142Y32245D02*
X69748Y28638D01*
X66142Y31526D02*
X69748Y27919D01*
X66142Y27102D02*
X70256Y31216D01*
X66142Y26383D02*
X70256Y30498D01*
X66142Y30808D02*
X69748Y27201D01*
X66142Y30089D02*
X69748Y26483D01*
X72238Y27585D02*
X73305Y26518D01*
X72238Y26867D02*
X72923Y26181D01*
X72238Y26518D02*
Y28804D01*
Y26060D02*
Y26518D01*
Y26149D02*
X72504Y25883D01*
X72238Y23858D02*
X72789Y24409D01*
X72238Y26060D02*
Y26518D01*
Y23774D02*
Y24409D01*
X71730Y29530D02*
X74742Y26518D01*
X72238Y25883D02*
X72923D01*
X69748Y28553D02*
X69999Y28804D01*
X72238Y25883D02*
Y26060D01*
Y24409D02*
X72923D01*
X72154Y23774D02*
X72238Y23858D01*
X66142Y25665D02*
X70256Y29779D01*
X69748Y23774D02*
Y26060D01*
X40726Y28267D02*
X59464Y47006D01*
X40422Y28682D02*
X59017Y47277D01*
X40857Y27680D02*
X59889Y46712D01*
X40901Y42399D02*
X54762Y28537D01*
X40541Y42040D02*
X54762Y27819D01*
X40581Y25967D02*
X58699Y44086D01*
X43287Y26518D02*
X58831Y42062D01*
X41215Y25883D02*
X58699Y43367D01*
X41933Y25883D02*
X58699Y42649D01*
X33213Y27939D02*
X65684Y60410D01*
X33114Y27121D02*
X65941Y59948D01*
X33003Y28447D02*
X65641Y61085D01*
X40135Y41728D02*
X54762Y27100D01*
X32828Y26117D02*
X66337Y59626D01*
X40203Y26308D02*
X58699Y44804D01*
X37307Y41681D02*
X54762Y24226D01*
X39463Y41681D02*
X54762Y26382D01*
X66142Y29371D02*
X69748Y25764D01*
Y26060D02*
Y26518D01*
Y28804D01*
Y26060D02*
Y26518D01*
X66142Y27934D02*
X69748Y24327D01*
X66142Y24228D02*
X69748Y27835D01*
X66142Y28653D02*
X69748Y25046D01*
X66142Y24946D02*
X69748Y28553D01*
X44005Y26518D02*
X54762Y37275D01*
X45568Y25925D02*
X54762Y35120D01*
X44723Y26518D02*
X54762Y36557D01*
X45442Y26518D02*
X54762Y35838D01*
X38026Y41681D02*
X54762Y24945D01*
X45568Y24488D02*
X54762Y33683D01*
X38744Y41681D02*
X54762Y25663D01*
X45568Y25206D02*
X54762Y34401D01*
X66142Y26497D02*
X80596Y12043D01*
X66142Y27216D02*
X80986Y12371D01*
X66142Y25779D02*
X80284Y11637D01*
X66142Y22791D02*
X69748Y26398D01*
X66142Y25060D02*
X80058Y11144D01*
X65371Y1905D02*
X89196Y25730D01*
X66808Y1905D02*
X89294Y24390D01*
X66090Y1905D02*
X89087Y24902D01*
X66142Y24342D02*
X79945Y10539D01*
X64653Y1905D02*
X89468Y26720D01*
X59624Y1905D02*
X81874Y24155D01*
X58906Y1905D02*
X81410Y24409D01*
X63667Y18161D02*
X69748Y24243D01*
X57469Y1905D02*
X79973Y24409D01*
X58187Y1905D02*
X80692Y24409D01*
X45568Y26237D02*
X69900Y1905D01*
X56750D02*
X79255Y24409D01*
X72238Y23993D02*
X73396Y22835D01*
X71020Y23774D02*
X73177Y21617D01*
X69748Y23774D02*
X72238D01*
X71738D02*
X73177Y22335D01*
X67527Y1905D02*
X89650Y24028D01*
X68245Y1905D02*
X89070Y22730D01*
X70301Y23774D02*
X73177Y20898D01*
X66142Y22905D02*
X82978Y6069D01*
X64389Y16728D02*
X71436Y23774D01*
X64389Y16009D02*
X72154Y23774D01*
X64385Y18161D02*
X69999Y23774D01*
X64389Y17446D02*
X70717Y23774D01*
X66142Y23624D02*
X80046Y9719D01*
X60342Y1905D02*
X81537Y23100D01*
X51003Y1905D02*
X72923Y23825D01*
X51721Y1905D02*
X73591Y23774D01*
X45568Y22333D02*
X54762Y31528D01*
X45568Y23051D02*
X54762Y32246D01*
X45568Y21614D02*
X54762Y30809D01*
X36589Y41681D02*
X54762Y23508D01*
X45568Y23770D02*
X54762Y32964D01*
Y21234D02*
Y37694D01*
X66142Y21234D02*
Y37694D01*
X45060Y20388D02*
X54762Y30091D01*
X45685Y20295D02*
X54762Y29372D01*
X34434Y41681D02*
X54762Y21353D01*
X33715Y41681D02*
X57490Y17907D01*
X35871Y41681D02*
X54762Y22790D01*
X35152Y41681D02*
X54762Y22071D01*
X32278Y41681D02*
X56769Y17191D01*
X32997Y41681D02*
X56771Y17907D01*
X31560Y41681D02*
X56769Y16472D01*
X30842Y41681D02*
X56769Y15754D01*
X66142Y23509D02*
X69748Y27116D01*
X66142Y22073D02*
X69748Y25679D01*
X45695Y19586D02*
X54762Y28654D01*
X66142Y21354D02*
X69748Y24961D01*
X45568Y16585D02*
X54762Y25780D01*
X45568Y25519D02*
X69181Y1905D01*
X45695Y18868D02*
X54762Y27935D01*
X45695Y18149D02*
X54762Y27217D01*
X45568Y15149D02*
X54762Y24343D01*
X45568Y14430D02*
X54762Y23625D01*
X45060Y16796D02*
X54762Y26499D01*
X45568Y15867D02*
X54762Y25062D01*
X45568Y24800D02*
X68463Y1905D01*
X45568Y24082D02*
X67744Y1905D01*
X45568Y23363D02*
X67026Y1905D01*
X45568Y13712D02*
X54762Y22907D01*
X89154Y12756D02*
X94330Y17932D01*
X88395Y12716D02*
X93866Y18186D01*
X89733Y12616D02*
X94894Y17778D01*
X90005Y21312D02*
X92227Y19090D01*
X90750Y21286D02*
X92227Y19809D01*
X90207Y12372D02*
X94894Y17060D01*
X90597Y12044D02*
X94386Y15833D01*
X84567Y11043D02*
X92227Y18703D01*
X84653Y10410D02*
X92429Y18186D01*
X84099Y22190D02*
X94386Y11902D01*
X84062Y11974D02*
X92227Y20140D01*
X81959Y12745D02*
X90461Y21247D01*
X84359Y11553D02*
X92227Y19422D01*
X83445Y21407D02*
X94894Y9958D01*
X82885Y21249D02*
X94599Y9535D01*
X83842Y21728D02*
X94386Y11184D01*
X84473Y9512D02*
X93148Y18186D01*
X89996Y7851D02*
X94386Y12241D01*
X90714Y7851D02*
X94386Y11523D01*
X90456Y8648D02*
X91254Y7851D01*
X90035Y8351D02*
X90536Y7851D01*
X89278D02*
X89589Y8162D01*
X89524Y8143D02*
X89817Y7851D01*
X88891Y8058D02*
X89099Y7851D01*
X89030Y6166D02*
X89241Y6377D01*
X87046Y7851D02*
X92915D01*
X87046Y6377D02*
X93220D01*
X88559Y7851D02*
X88770Y8062D01*
X75413Y21537D02*
X86541Y10408D01*
X75413Y22255D02*
X86626Y11041D01*
X75413Y20818D02*
X86722Y9509D01*
X84599Y10913D02*
X87662Y7851D01*
X73177Y20599D02*
X75413D01*
X66142Y22187D02*
X82163Y6166D01*
X74913Y20599D02*
X82796Y12716D01*
X73476Y20599D02*
X81460Y12616D01*
X74195Y20599D02*
X82039Y12755D01*
X86376Y8541D02*
X86939Y9104D01*
X86781Y8228D02*
X87267Y8714D01*
X85039Y8641D02*
X86555Y10157D01*
X85838Y8722D02*
X86695Y9578D01*
X87992Y8239D02*
X88380Y7851D01*
X87841D02*
X88165Y8175D01*
X87122Y7851D02*
X87673Y8401D01*
X86998Y6289D02*
X87086Y6377D01*
X84638Y10156D02*
X86152Y8642D01*
X84499Y9577D02*
X85354Y8721D01*
X84254Y9103D02*
X84817Y8540D01*
X83926Y8713D02*
X84412Y8227D01*
X83520Y8401D02*
X84122Y7798D01*
X82422Y8062D02*
X84199Y6285D01*
X83027Y8175D02*
X83975Y7227D01*
X82554Y6156D02*
X84070Y7672D01*
X89634Y6051D02*
X89960Y6377D01*
X89135D02*
X89396Y6116D01*
X90125Y5824D02*
X90678Y6377D01*
X88214Y6068D02*
X88523Y6377D01*
X88417D02*
X88639Y6155D01*
X90516Y1905D02*
X105274Y16662D01*
X90572Y6377D02*
X95044Y1905D01*
X90530Y5511D02*
X91396Y6377D01*
X89854D02*
X94326Y1905D01*
X84549Y3122D02*
X87804Y6377D01*
X87698D02*
X88060Y6016D01*
X87023Y6334D02*
X87586Y5771D01*
X69682Y1905D02*
X89442Y21665D01*
X70400Y1905D02*
X89863Y21368D01*
X68964Y1905D02*
X89161Y22103D01*
X81602Y8163D02*
X86646Y3119D01*
X86710Y5929D02*
X87196Y5443D01*
X90277Y1905D02*
X131083D01*
X86924D02*
X87200Y2181D01*
X90526Y2113D02*
X90734Y1905D01*
X86206D02*
X86887Y2586D01*
X83677Y1905D02*
X87517D01*
X86281Y5639D02*
X86884Y5037D01*
X85710Y5492D02*
X86658Y4544D01*
X84552Y4495D02*
X87142Y1905D01*
X84050D02*
X86643Y4497D01*
X85487Y1905D02*
X86660Y3077D01*
X83997Y5444D02*
X84483Y5930D01*
X81795Y6115D02*
X86595Y10916D01*
X84768Y5716D02*
X86545Y3939D01*
X83133Y6016D02*
X83989Y6873D01*
X83607Y5772D02*
X84170Y6335D01*
X76866Y1905D02*
X83199Y8238D01*
X76148Y1905D02*
X82301Y8058D01*
X66142Y21468D02*
X81559Y6051D01*
X72556Y1905D02*
X80133Y9483D01*
X71119Y1905D02*
X79966Y10752D01*
X71837Y1905D02*
X79971Y10039D01*
X74711Y1905D02*
X81158Y8352D01*
X75429Y1905D02*
X81668Y8144D01*
X73274Y1905D02*
X80394Y9025D01*
X73992Y1905D02*
X80737Y8649D01*
X84649Y3941D02*
X86422Y5713D01*
X84649Y3680D02*
X86423Y1905D01*
X84310Y5038D02*
X84912Y5640D01*
X84536Y4546D02*
X85483Y5492D01*
X84769Y1905D02*
X86545Y3681D01*
X84534Y3076D02*
X85705Y1905D01*
X84307Y2585D02*
X84986Y1905D01*
X83993Y2180D02*
X84268Y1905D01*
X77585D02*
X79995Y4316D01*
X80458Y1905D02*
X80667Y2114D01*
X79740Y1905D02*
X80339Y2504D01*
X78303Y1905D02*
X79955Y3557D01*
X79021Y1905D02*
X80095Y2978D01*
X66022Y21234D02*
X66142Y21354D01*
X62948Y18161D02*
X66022Y21234D01*
X62230Y18161D02*
X65303Y21234D01*
X61316Y18683D02*
X63867Y21234D01*
X61512Y18161D02*
X64585Y21234D01*
X64939D02*
X80663Y5510D01*
X65657Y21234D02*
X81068Y5824D01*
X63502Y21234D02*
X80092Y4644D01*
X64220Y21234D02*
X80336Y5119D01*
X61316Y20120D02*
X62430Y21234D01*
X61316D02*
X66142D01*
X58473D02*
X59588Y20119D01*
X61316Y20839D02*
X61711Y21234D01*
X61316Y18161D02*
Y21234D01*
Y19402D02*
X63148Y21234D01*
X57036D02*
X59588Y18682D01*
X57754Y21234D02*
X59588Y19400D01*
X61316Y19110D02*
X62265Y18161D01*
X61849D02*
X64389D01*
X61595D02*
X61849D01*
X61595D02*
X61849D01*
X64389Y15367D02*
Y18161D01*
X61849Y15367D02*
X64389D01*
X61595D02*
X61849D01*
X61595D02*
X61849D01*
X61316Y20547D02*
X63702Y18161D01*
X61316Y19829D02*
X62983Y18161D01*
X61316Y18392D02*
X61546Y18161D01*
X61316D02*
X61595D01*
X58384Y17907D02*
X59588Y19111D01*
X59055Y15367D02*
X61595D01*
X56947Y17907D02*
X59588Y20548D01*
X57666Y17907D02*
X59588Y19830D01*
X59191Y21234D02*
X59588Y20837D01*
X54762Y21234D02*
X59588D01*
X59356Y18161D02*
X59588Y18393D01*
X56318Y21234D02*
X59391Y18161D01*
X59588D02*
Y21234D01*
X59055Y17907D02*
Y18161D01*
Y17860D02*
X59356Y18161D01*
X54881Y21234D02*
X58208Y17907D01*
X55599Y21234D02*
X58927Y17907D01*
X54762Y21353D02*
X54881Y21234D01*
X45060Y11048D02*
X55246Y21234D01*
X45568Y12993D02*
X54762Y22188D01*
X45568Y12275D02*
X54762Y21470D01*
X40900Y4733D02*
X57401Y21234D01*
X41059Y4174D02*
X58119Y21234D01*
X45060Y10330D02*
X55964Y21234D01*
X45058Y9610D02*
X56682Y21234D01*
X59055Y18161D02*
X59588D01*
X58927Y17907D02*
X59055Y17779D01*
Y15621D02*
Y17907D01*
Y15623D02*
X59311Y15367D01*
X59055D02*
Y15621D01*
Y17907D01*
X58972Y15621D02*
X59055Y15704D01*
X56769Y17907D02*
X59055D01*
X56769Y17729D02*
X56947Y17907D01*
X56769Y15621D02*
X59055D01*
X56769D02*
Y17907D01*
Y15754D02*
X56902Y15621D01*
X63935Y1905D02*
X83427Y21398D01*
X63216Y1905D02*
X82577Y21266D01*
X62065Y21234D02*
X79998Y3302D01*
X62783Y21234D02*
X79955Y4063D01*
X55314Y1905D02*
X74008Y20599D01*
X61779Y1905D02*
X81694Y21820D01*
X62498Y1905D02*
X82060Y21468D01*
X61061Y1905D02*
X81475Y22319D01*
X61347Y21234D02*
X80676Y1905D01*
X45568Y22645D02*
X66308Y1905D01*
X45568Y21927D02*
X65589Y1905D01*
X45287Y21488D02*
X64871Y1905D01*
X45060Y20998D02*
X64152Y1905D01*
X53877D02*
X73177Y21206D01*
X54595Y1905D02*
X73289Y20599D01*
X52440Y1905D02*
X73177Y22643D01*
X53158Y1905D02*
X73177Y21924D01*
X62903Y15367D02*
X76365Y1905D01*
X63622Y15367D02*
X77084Y1905D01*
X61467Y15367D02*
X74929Y1905D01*
X62185Y15367D02*
X75647Y1905D01*
X64389Y17474D02*
X79958Y1905D01*
X64389Y16755D02*
X79239Y1905D01*
X64389Y16037D02*
X78521Y1905D01*
X64340Y15367D02*
X77802Y1905D01*
X56032D02*
X74726Y20599D01*
X40111Y1905D02*
X80917D01*
X56902Y15621D02*
X70618Y1905D01*
X57620Y15621D02*
X71336Y1905D01*
X60030Y15367D02*
X73492Y1905D01*
X60748Y15367D02*
X74210Y1905D01*
X58339Y15621D02*
X72055Y1905D01*
X59311Y15367D02*
X72773Y1905D01*
X45378Y17805D02*
X61279Y1905D01*
X45060Y17406D02*
X60560Y1905D01*
X45568Y16179D02*
X59842Y1905D01*
X45256D02*
X58972Y15621D01*
X45568Y15461D02*
X59123Y1905D01*
X45695Y19644D02*
X63434Y1905D01*
X45695Y18926D02*
X62715Y1905D01*
X45695Y18207D02*
X61997Y1905D01*
X46692D02*
X60154Y15367D01*
X41059Y3456D02*
X58838Y21234D01*
X44537Y1905D02*
X58253Y15621D01*
X43100Y1905D02*
X56816Y15621D01*
X43819Y1905D02*
X57535Y15621D01*
X40227Y1905D02*
X59556Y21234D01*
X42382Y1905D02*
X56769Y16292D01*
X40945Y1905D02*
X56769Y17729D01*
X41664Y1905D02*
X56769Y17010D01*
X45974Y1905D02*
X59436Y15367D01*
X47411Y1905D02*
X60873Y15367D01*
X45568Y14742D02*
X58405Y1905D01*
X45568Y14024D02*
X57686Y1905D01*
X49566D02*
X63028Y15367D01*
X50285Y1905D02*
X63747Y15367D01*
X48129Y1905D02*
X61591Y15367D01*
X48848Y1905D02*
X62310Y15367D01*
X45060Y10940D02*
X54094Y1905D01*
X45060Y10221D02*
X53376Y1905D01*
X45047Y9516D02*
X52658Y1905D01*
X44778Y9066D02*
X51939Y1905D01*
X45568Y13305D02*
X56968Y1905D01*
X45568Y12587D02*
X56250Y1905D01*
X45568Y11869D02*
X55531Y1905D01*
X45135Y11582D02*
X54813Y1905D01*
X40857Y30230D02*
X44569Y26518D01*
X40725Y29643D02*
X43850Y26518D01*
X40421Y29229D02*
X43132Y26518D01*
X40772Y28159D02*
X43048Y25883D01*
X40824Y27389D02*
X42330Y25883D01*
X33237Y31384D02*
X38524Y26096D01*
X25094Y41681D02*
X38354Y28422D01*
X24405Y41652D02*
X38155Y27903D01*
X30725Y28866D02*
X30930Y28662D01*
X30123Y41681D02*
X45287Y26518D01*
X28042Y37297D02*
X38303Y27036D01*
X43078Y26518D02*
X45568D01*
X45287D02*
X45568Y26237D01*
X43078Y25883D02*
Y26518D01*
Y26309D02*
X43287Y26518D01*
X42652Y25883D02*
X43078Y26309D01*
X40640Y25883D02*
X43078D01*
X40233Y26543D02*
X40893Y25883D01*
X38847Y26492D02*
X38949Y26390D01*
X32429Y26444D02*
X32540Y26333D01*
X30487Y26949D02*
X31145Y26292D01*
X38721Y26262D02*
X38916Y26457D01*
X29768Y26949D02*
X30775Y25943D01*
X30438Y25883D02*
X31116Y26560D01*
X28668Y28423D02*
X29227Y28981D01*
X28668Y28423D02*
X29227Y28981D01*
X28372Y28423D02*
X30734D01*
X28161Y28634D02*
X28508Y28981D01*
X28455D02*
X29014Y28423D01*
X29892Y28981D02*
X30450Y28423D01*
X30105D02*
X30549Y28866D01*
X29173Y28981D02*
X29732Y28423D01*
X29386D02*
X29945Y28981D01*
X27813D02*
X28372Y28423D01*
X26149Y28562D02*
X27546Y27165D01*
X25581Y28981D02*
X28680Y25883D01*
X25410D02*
X27119Y27592D01*
X24608Y26518D02*
X26401Y28311D01*
X25248Y26439D02*
X26760Y27951D01*
X29050Y26949D02*
X30117Y25883D01*
X28067Y26949D02*
X30734D01*
X29002Y25883D02*
X30068Y26949D01*
X28332D02*
X29398Y25883D01*
X29720D02*
X30755Y26918D01*
X27565Y25883D02*
X28632Y26949D01*
X28283Y25883D02*
X29350Y26949D01*
X26846Y25883D02*
X27927Y26963D01*
X26128Y25883D02*
X27478Y27233D01*
X25171Y26518D02*
X25248Y26441D01*
X26128Y25883D02*
X27478Y27233D01*
X25248Y25883D02*
X30734D01*
X25248D02*
Y26518D01*
Y26441D02*
X25806Y25883D01*
X45568Y24232D02*
Y26518D01*
X40640Y24409D02*
X43078D01*
X42366D02*
X43078Y23697D01*
X40601Y26893D02*
X41611Y25883D01*
X43078Y24232D02*
Y24409D01*
X40929D02*
X43078Y22260D01*
X41648Y24409D02*
X43078Y22979D01*
X40395Y23626D02*
X41178Y24409D01*
X40856Y22650D02*
X42615Y24409D01*
X32853Y26739D02*
X40919Y18672D01*
X33064Y25809D02*
X43078Y15795D01*
X33220Y24935D02*
X43078Y15076D01*
X33023Y24414D02*
X43078Y14358D01*
X27279Y24409D02*
X38927Y12761D01*
X27998Y24409D02*
X40025Y12383D01*
X45568Y23774D02*
Y24232D01*
Y23774D02*
Y24232D01*
X43078Y23774D02*
Y24232D01*
Y23774D02*
Y24232D01*
X45568Y21488D02*
Y23774D01*
X40736Y23166D02*
X43586Y20316D01*
X40709Y23222D02*
X41897Y24409D01*
X43078Y21488D02*
Y23774D01*
X40447Y24173D02*
X43078Y21542D01*
X32674Y24044D02*
X43078Y13639D01*
X31643Y12718D02*
X43078Y24154D01*
X32975Y12613D02*
X43078Y22717D01*
X32397Y12755D02*
X43078Y23436D01*
X33226Y22773D02*
X43078Y12921D01*
X33237Y30665D02*
X38239Y25663D01*
X33122Y25692D02*
X38300Y30870D01*
X33237Y29229D02*
X38734Y23731D01*
X33235Y25087D02*
X38155Y30007D01*
X33237Y29947D02*
X38141Y25042D01*
X33150Y22128D02*
X38226Y27204D01*
X33136Y27174D02*
X38253Y22056D01*
X33204Y22901D02*
X38147Y27843D01*
X33232Y27796D02*
X38162Y22866D01*
X32615Y23748D02*
X38355Y29488D01*
X32982Y23398D02*
X38705Y29121D01*
X32880Y28866D02*
X38374Y23373D01*
X24994Y21156D02*
X28247Y24409D01*
X24994Y22593D02*
X26810Y24409D01*
X24994Y21875D02*
X27528Y24409D01*
X31233Y23803D02*
X31331Y23901D01*
X29435Y24409D02*
X30651Y23193D01*
X30153Y24409D02*
X30956Y23606D01*
X26561Y24409D02*
X38250Y12720D01*
X28716Y24409D02*
X30517Y22608D01*
X24517Y22835D02*
X26092Y24409D01*
X25248D02*
X30734D01*
X25248Y23774D02*
Y24409D01*
Y24284D02*
X25373Y24409D01*
X25843D02*
X37713Y12538D01*
X25248Y24286D02*
X37271Y12263D01*
X25041Y23774D02*
X36909Y11907D01*
X24994Y20599D02*
Y22835D01*
X21438Y27658D02*
X25933Y32154D01*
X21438Y28376D02*
X25933Y32872D01*
X21438Y26940D02*
X25298Y30800D01*
X20930Y30759D02*
X25171Y26518D01*
X20930Y30041D02*
X24453Y26518D01*
X20930Y32914D02*
X27961Y25883D01*
X20930Y32196D02*
X27243Y25883D01*
X20930Y31478D02*
X26525Y25883D01*
X21438Y26221D02*
X25298Y30082D01*
X1905Y26804D02*
X32918Y57818D01*
X1905Y26086D02*
X32918Y57099D01*
X1905Y28241D02*
X32918Y59255D01*
X1905Y27523D02*
X32918Y58536D01*
X1905Y23931D02*
X33297Y55323D01*
X1905Y23212D02*
X33657Y54964D01*
X1905Y25368D02*
X32918Y56381D01*
X1905Y24649D02*
X32976Y55721D01*
X23171Y26518D02*
X25635Y28981D01*
X23889Y26518D02*
X26053Y28681D01*
X23604Y23774D02*
X24544Y22835D01*
X23798D02*
X24738Y23774D01*
X23080Y22835D02*
X24020Y23774D01*
X23080Y22835D02*
X24020Y23774D01*
X22885D02*
X23825Y22835D01*
X21817Y25883D02*
X25298Y29364D01*
X22504Y26518D02*
X25248D01*
X20930Y29322D02*
X23734Y26518D01*
X21438Y28096D02*
X23016Y26518D01*
X22504Y23774D02*
X25248D01*
X22758Y22835D02*
X24994D01*
X21532Y24409D02*
X23107Y22835D01*
X20012Y23774D02*
X22758Y21028D01*
X21438Y27378D02*
X22504Y26311D01*
X21438Y26518D02*
Y28804D01*
Y26060D02*
Y26518D01*
X1905Y43318D02*
X18948Y26275D01*
Y26518D02*
Y28804D01*
X21438Y26659D02*
X22214Y25883D01*
X22504D02*
Y26518D01*
X1905Y42600D02*
X18948Y25556D01*
X21438Y26060D02*
Y26518D01*
X1905Y44036D02*
X18948Y26993D01*
X1905Y41881D02*
X18948Y24838D01*
X1905Y45473D02*
X18948Y28430D01*
X1905Y44755D02*
X18948Y27711D01*
X1905Y21775D02*
X18948Y38819D01*
X1905Y21057D02*
X18948Y38100D01*
X1905Y41163D02*
X18948Y24119D01*
X1905Y22494D02*
X18948Y39537D01*
X21438Y25883D02*
X22504D01*
X21438Y24409D02*
X22504D01*
X21438Y25883D02*
Y26060D01*
Y25941D02*
X21496Y25883D01*
X22250Y24409D02*
X22504Y24155D01*
Y23774D02*
Y24409D01*
X21438Y23774D02*
Y24409D01*
Y24066D02*
X21781Y24409D01*
X21146Y23774D02*
X21438Y24066D01*
X18948Y23774D02*
X21438D01*
X18948Y26060D02*
Y26518D01*
Y26060D02*
Y26518D01*
X21438Y23785D02*
X22758Y22465D01*
X20730Y23774D02*
X22758Y21746D01*
X18948Y23774D02*
Y26060D01*
Y24119D02*
X19293Y23774D01*
X1905Y33979D02*
X30435Y5449D01*
X1905Y34697D02*
X30827Y5775D01*
X1905Y33260D02*
X30122Y5043D01*
X1905Y32542D02*
X29894Y4553D01*
X1905Y31823D02*
X29779Y3949D01*
X1905Y31105D02*
X29876Y3134D01*
X1905Y30386D02*
X30386Y1905D01*
X1905Y29668D02*
X29668Y1905D01*
X1905Y28950D02*
X28950Y1905D01*
X1905Y40444D02*
X30370Y11979D01*
X1905Y39726D02*
X30072Y11559D01*
X1905Y39008D02*
X29863Y11050D01*
X1905Y38289D02*
X29775Y10419D01*
X1905Y36852D02*
X32644Y6113D01*
X1905Y36134D02*
X31882Y6156D01*
X1905Y37571D02*
X29949Y9527D01*
X1905Y35415D02*
X31302Y6019D01*
X16519Y1905D02*
X38676Y24062D01*
X17237Y1905D02*
X38155Y22823D01*
X19293Y23774D02*
X30747Y12320D01*
X24322Y23774D02*
X36626Y11471D01*
X13645Y1905D02*
X38501Y26761D01*
X14364Y1905D02*
X38381Y25922D01*
X15082Y1905D02*
X38149Y24972D01*
X15800Y1905D02*
X38335Y24440D01*
X8172Y2898D02*
X29684Y24409D01*
X8616Y1905D02*
X30906Y24195D01*
X1905Y26794D02*
X26794Y1905D01*
X8762Y4207D02*
X28965Y24409D01*
X7898Y1905D02*
X30402Y24409D01*
X9335Y1905D02*
X30680Y23250D01*
X1905Y28231D02*
X28231Y1905D01*
X1905Y27513D02*
X27513Y1905D01*
X1905Y13154D02*
X19456Y30706D01*
X1905Y13873D02*
X19456Y31424D01*
X1905Y12436D02*
X19456Y29987D01*
X1905Y15310D02*
X19456Y32861D01*
X1905Y14591D02*
X19456Y32143D01*
X1905Y10281D02*
X18948Y27324D01*
X1905Y9562D02*
X18948Y26606D01*
X1905Y11718D02*
X18948Y28761D01*
X1905Y10999D02*
X18948Y28043D01*
X1905Y18902D02*
X18948Y35945D01*
X1905Y18183D02*
X18948Y35227D01*
X1905Y20339D02*
X18948Y37382D01*
X1905Y19620D02*
X18948Y36664D01*
X1905Y16747D02*
X19456Y34298D01*
X1905Y16028D02*
X19456Y33579D01*
X1905Y7140D02*
Y69060D01*
Y17465D02*
X19263Y34823D01*
X6097Y8725D02*
X21146Y23774D01*
X22758Y20599D02*
Y22835D01*
X4788Y8853D02*
X19709Y23774D01*
X5495Y8842D02*
X20428Y23774D01*
X7093Y8285D02*
X22583Y23774D01*
X7509Y7982D02*
X23301Y23774D01*
X6625Y8535D02*
X22499Y24409D01*
X3889Y8672D02*
X18991Y23774D01*
X1905Y25358D02*
X25358Y1905D01*
X1905Y7407D02*
X18948Y24450D01*
X1905Y8844D02*
X18948Y25887D01*
X1905Y8125D02*
X18948Y25169D01*
X1905Y26076D02*
X26076Y1905D01*
X1905Y24639D02*
X24639Y1905D01*
X1905Y23921D02*
X23921Y1905D01*
X1905Y23202D02*
X23202Y1905D01*
X45442Y21488D02*
X45568Y21614D01*
X45060Y21488D02*
X45568D01*
X45060Y20295D02*
X45695D01*
X45060D02*
Y21488D01*
Y21106D02*
X45442Y21488D01*
X45695Y17805D02*
Y20295D01*
X45060Y17805D02*
X45695D01*
X45351D02*
X45695Y18149D01*
X45060Y17514D02*
X45351Y17805D01*
X43586Y20295D02*
Y21488D01*
X43529Y20295D02*
X43586Y20352D01*
X43078Y21488D02*
X43586D01*
X43132D02*
X43586Y21034D01*
X42250Y18059D02*
X43586Y16723D01*
X43223Y17805D02*
X43586Y17442D01*
X42557Y20041D02*
X43586Y21070D01*
X42951Y20295D02*
X43586D01*
X45568Y14326D02*
Y16612D01*
X45060D02*
X45568D01*
X45060D02*
Y17805D01*
Y16687D02*
X45135Y16612D01*
X45568Y13868D02*
Y14326D01*
Y13868D02*
Y14326D01*
Y11582D02*
Y13868D01*
X45060Y9652D02*
Y11582D01*
X43586Y16612D02*
Y17805D01*
X43078Y16612D02*
X43586D01*
X42951Y17805D02*
X43586D01*
X43439Y16612D02*
X43586Y16759D01*
X38874Y12765D02*
X43586Y17478D01*
X45060Y11582D02*
X45568D01*
X43078D02*
X43586D01*
Y9957D02*
Y11582D01*
X41839Y20041D02*
X43286Y21488D01*
X41120Y20041D02*
X43078Y21999D01*
X42951Y20041D02*
Y20295D01*
X40919Y20041D02*
X42951D01*
Y17805D02*
Y18059D01*
X41532D02*
X43078Y16513D01*
X40832Y22351D02*
X42951Y20232D01*
X40622Y21843D02*
X42425Y20041D01*
X40264Y21483D02*
X41706Y20041D01*
X39757Y21271D02*
X40988Y20041D01*
X40919Y19840D02*
X41120Y20041D01*
X40919Y18059D02*
X42951D01*
X38947Y21362D02*
X40919Y19390D01*
Y18059D02*
Y20041D01*
X43078Y13868D02*
Y14326D01*
Y11582D02*
Y13868D01*
Y14326D02*
Y16612D01*
Y13868D02*
Y14326D01*
X40938Y11237D02*
X43078Y13378D01*
X41074Y10655D02*
X43078Y12659D01*
X41028Y9890D02*
X43078Y11941D01*
X40700Y11708D02*
X43018Y9389D01*
X38063Y12673D02*
X43195Y17805D01*
X39476Y12649D02*
X43078Y16251D01*
X39966Y12420D02*
X43078Y15533D01*
X40370Y12106D02*
X43078Y14815D01*
X40696Y11714D02*
X43078Y14096D01*
X44419Y8706D02*
X51221Y1905D01*
X41480Y7851D02*
X43586Y9957D01*
X42306Y6593D02*
X44844Y9131D01*
X44060Y8347D02*
X50502Y1905D01*
X43701Y7988D02*
X49784Y1905D01*
X43342Y7629D02*
X49065Y1905D01*
X42982Y7270D02*
X48347Y1905D01*
X41078Y10610D02*
X42659Y9030D01*
X41037Y9933D02*
X42300Y8671D01*
X40856Y9396D02*
X41941Y8311D01*
X40580Y8954D02*
X41581Y7952D01*
X40425Y7851D02*
X43586Y11012D01*
X41143Y7851D02*
X43586Y10294D01*
X39706Y7851D02*
X43438Y11582D01*
X36880Y7851D02*
X41480D01*
X42262Y6553D02*
X46910Y1905D01*
X41001Y6377D02*
X45473Y1905D01*
X42623Y6910D02*
X47629Y1905D01*
X41719Y6377D02*
X46192Y1905D01*
X41061Y4162D02*
X43318Y1905D01*
X41058Y3447D02*
X42600Y1905D01*
X40641Y5193D02*
X41827Y6379D01*
X36880Y6377D02*
X41785D01*
X40300Y5571D02*
X41107Y6377D01*
X40637Y2430D02*
X41163Y1905D01*
X39564Y6377D02*
X44036Y1905D01*
X40282Y6377D02*
X44755Y1905D01*
X40897Y2889D02*
X41881Y1905D01*
X40224Y8592D02*
X40965Y7851D01*
X39788Y8309D02*
X40246Y7851D01*
X39260Y8119D02*
X39528Y7851D01*
X38598Y8062D02*
X38809Y7851D01*
X39373Y6080D02*
X39670Y6377D01*
X39881Y5870D02*
X40389Y6377D01*
X38988Y7851D02*
X39255Y8117D01*
X38744Y6170D02*
X38952Y6377D01*
X36554Y8290D02*
X37039Y8775D01*
X35561Y8734D02*
X36496Y9669D01*
X36128Y8583D02*
X36725Y9179D01*
X37586Y8355D02*
X38091Y7851D01*
X38270D02*
X38490Y8071D01*
X36864Y7882D02*
X37431Y8449D01*
X37551Y7851D02*
X37908Y8207D01*
X38127Y6377D02*
X38364Y6141D01*
X38846Y6377D02*
X39079Y6144D01*
X37409Y6377D02*
X37806Y5980D01*
X37858Y6002D02*
X38233Y6377D01*
X40296Y2053D02*
X40444Y1905D01*
X36812Y6256D02*
X37347Y5720D01*
X36478Y5871D02*
X36970Y5379D01*
X36029Y5602D02*
X36672Y4959D01*
X35424Y5488D02*
X36463Y4450D01*
X36635Y1905D02*
X36974Y2245D01*
X35198Y1905D02*
X36465Y3172D01*
X35916Y1905D02*
X36675Y2664D01*
X33447Y12368D02*
X40919Y19840D01*
X33151Y22130D02*
X43078Y12203D01*
X34373Y11138D02*
X41294Y18059D01*
X33837Y12039D02*
X40919Y19121D01*
X34148Y11631D02*
X40919Y18403D01*
X32877Y21685D02*
X43586Y10976D01*
X34378Y9706D02*
X42731Y18059D01*
X34484Y10530D02*
X42013Y18059D01*
X34461Y10762D02*
X37372Y7851D01*
X24994Y22385D02*
X36436Y10943D01*
X32464Y21380D02*
X43586Y10258D01*
X24994Y21666D02*
X36379Y10281D01*
X31879Y21246D02*
X43377Y9748D01*
X24994Y20948D02*
X36672Y9269D01*
X31463Y6073D02*
X36472Y11082D01*
X34646Y8538D02*
X36380Y10271D01*
X34458Y10047D02*
X35810Y8695D01*
X34297Y9489D02*
X35084Y8702D01*
X34037Y9030D02*
X34573Y8495D01*
X34428Y3290D02*
X37515Y6377D01*
X34474Y4055D02*
X36017Y5598D01*
X34096Y5114D02*
X34663Y5681D01*
X34338Y4637D02*
X35205Y5504D01*
X33696Y8653D02*
X34188Y8161D01*
X33770Y5506D02*
X34255Y5991D01*
X32274Y6165D02*
X34007Y7899D01*
X33366Y5820D02*
X33962Y6417D01*
X31244Y8232D02*
X36549Y2927D01*
X32136Y8058D02*
X36375Y3819D01*
X22758Y20599D02*
X24994D01*
X24624D02*
X32479Y12744D01*
X23905Y20599D02*
X31764Y12741D01*
X8864Y5027D02*
X24437Y20599D01*
X23187D02*
X31206Y12580D01*
X7876Y7631D02*
X22758Y22513D01*
X7876Y7631D02*
X22758Y22513D01*
X1905Y13144D02*
X6436Y8613D01*
X1905Y12426D02*
X5488Y8842D01*
X8672Y6272D02*
X23000Y20599D01*
X8814Y5695D02*
X23718Y20599D01*
X8194Y7230D02*
X22758Y21795D01*
X8462Y6779D02*
X22758Y21076D01*
X33276Y8355D02*
X33919Y7712D01*
X1905Y10271D02*
X3609Y8567D01*
X32767Y8146D02*
X33805Y7107D01*
X32876Y6049D02*
X33811Y6984D01*
X1905Y11708D02*
X4761Y8851D01*
X1905Y10989D02*
X4146Y8748D01*
X1905Y9552D02*
X3132Y8325D01*
X1905Y8834D02*
X2709Y8030D01*
X1905Y8115D02*
X2335Y7685D01*
X1905Y7397D02*
X2009Y7292D01*
X1905Y2378D02*
X2178Y2651D01*
X22266Y1905D02*
X29932Y9570D01*
X20111Y1905D02*
X39453Y21247D01*
X22985Y1905D02*
X30177Y9098D01*
X20829Y1905D02*
X29827Y10902D01*
X21548Y1905D02*
X29790Y10148D01*
X25140Y1905D02*
X31407Y8172D01*
X26577Y1905D02*
X32839Y8167D01*
X23703Y1905D02*
X30506Y8708D01*
X24421Y1905D02*
X30914Y8397D01*
X11490Y1905D02*
X31085Y21501D01*
X12208Y1905D02*
X31582Y21279D01*
X10053Y1905D02*
X30535Y22387D01*
X10771Y1905D02*
X30735Y21868D01*
X18674Y1905D02*
X38477Y21708D01*
X19392Y1905D02*
X38881Y21394D01*
X17956Y1905D02*
X38212Y22162D01*
X12927Y1905D02*
X32355Y21333D01*
X33761Y1905D02*
X36543Y4687D01*
X33511Y1905D02*
X37351D01*
X34092Y2510D02*
X34697Y1905D01*
X33766Y2118D02*
X33979Y1905D01*
X34430Y4327D02*
X36852Y1905D01*
X34479D02*
X36375Y3801D01*
X34473Y3565D02*
X36134Y1905D01*
X34336Y2985D02*
X35415Y1905D01*
X25858D02*
X32015Y8061D01*
X7140Y1905D02*
X30751D01*
X27295D02*
X29872Y4482D01*
X28732Y1905D02*
X29896Y3069D01*
X29450Y1905D02*
X30125Y2579D01*
X30169Y1905D02*
X30439Y2175D01*
X1905Y22484D02*
X22484Y1905D01*
X1905Y21765D02*
X21765Y1905D01*
X1905Y19610D02*
X19610Y1905D01*
X1905Y18892D02*
X18892Y1905D01*
X1905Y20329D02*
X20329Y1905D01*
X8613Y6436D02*
X13144Y1905D01*
X8842Y5488D02*
X12426Y1905D01*
X1905Y17455D02*
X17455Y1905D01*
X1905Y16736D02*
X16736Y1905D01*
X1905Y16018D02*
X16018Y1905D01*
X1905Y13863D02*
X13863Y1905D01*
X1905Y21047D02*
X21047Y1905D01*
X1905Y18173D02*
X18173Y1905D01*
X1905Y15300D02*
X15300Y1905D01*
X1905Y14581D02*
X14581Y1905D01*
X8325Y3132D02*
X9552Y1905D01*
X8030Y2709D02*
X8834Y1905D01*
X7685Y2335D02*
X8115Y1905D01*
X7292Y2009D02*
X7397Y1905D01*
X8851Y4761D02*
X11708Y1905D01*
X28014D02*
X29780Y3671D01*
X8748Y4146D02*
X10989Y1905D01*
X8567Y3609D02*
X10271Y1905D01*
X1905D02*
X3020D01*
X1905D02*
Y3020D01*
Y2368D02*
X2368Y1905D01*
X7179D02*
X7262Y1988D01*
X2869Y1905D02*
X2930Y1966D01*
X2150Y1905D02*
X2529Y2284D01*
X2150Y1905D02*
X2529Y2284D01*
X226695Y73180D02*
Y74295D01*
X226476Y68757D02*
X226695Y68538D01*
X226133Y68382D02*
X226695Y67820D01*
X225967Y74295D02*
X226695Y73567D01*
X225580Y74295D02*
X226695D01*
X226595Y73326D02*
X226695Y73426D01*
X226270Y73720D02*
X226695Y74145D01*
X214473Y74295D02*
X226695Y62073D01*
X213754Y74295D02*
X226695Y61354D01*
X213036Y74295D02*
X226695Y60636D01*
X212317Y74295D02*
X226695Y59917D01*
X225741Y68056D02*
X226695Y67102D01*
X225299Y67779D02*
X226695Y66383D01*
X221665Y67821D02*
X226695Y62791D01*
X208725Y74295D02*
X226695Y56325D01*
X208007Y74295D02*
X226695Y55607D01*
X207288Y74295D02*
X226695Y54888D01*
X206570Y74295D02*
X226695Y54170D01*
X211599Y74295D02*
X226695Y59199D01*
X210880Y74295D02*
X226695Y58480D01*
X210162Y74295D02*
X226695Y57762D01*
X209444Y74295D02*
X226695Y57044D01*
X202978Y74295D02*
X226695Y50578D01*
X202259Y74295D02*
X226695Y49859D01*
X206743Y47727D02*
X226695Y67679D01*
X201541Y74295D02*
X226695Y49141D01*
X205852Y74295D02*
X226695Y53452D01*
X205133Y74295D02*
X226695Y52733D01*
X204415Y74295D02*
X226695Y52015D01*
X203696Y74295D02*
X226695Y51296D01*
X223240Y52011D02*
X226695Y55466D01*
X221413Y52339D02*
X226695Y57621D01*
X223520Y50854D02*
X226695Y54029D01*
X223475Y51528D02*
X226695Y54747D01*
X224237Y67404D02*
X226695Y64946D01*
X222800Y67405D02*
X226695Y63509D01*
X222863Y52352D02*
X226695Y56184D01*
X222333Y52540D02*
X226695Y56902D01*
X223520Y49442D02*
X226695Y46267D01*
X223105Y48420D02*
X226695Y44830D01*
X222672Y48135D02*
X226695Y44112D01*
X222054Y48035D02*
X226695Y43394D01*
X223520Y49417D02*
X226695Y52592D01*
X223520Y50135D02*
X226695Y53310D01*
X223520Y50161D02*
X226695Y46986D01*
X223418Y51699D02*
X226695Y48423D01*
X208180Y47727D02*
X226695Y66242D01*
X207461Y47727D02*
X226695Y66960D01*
X219792Y51436D02*
X226695Y58339D01*
X219607Y51970D02*
X226695Y59058D01*
X218286Y52804D02*
X226695Y61213D01*
X217321Y52557D02*
X226695Y61931D01*
X219292Y52373D02*
X226695Y59776D01*
X218861Y52660D02*
X226695Y60495D01*
X219737Y48915D02*
X226695Y41957D01*
X219495Y48439D02*
X226695Y41238D01*
X219133Y48082D02*
X226695Y40520D01*
X218651Y47845D02*
X226695Y39802D01*
X209017Y47127D02*
X226695Y64805D01*
X208898Y47727D02*
X226695Y65523D01*
X219812Y49559D02*
X226695Y42675D01*
X209017Y46408D02*
X226695Y64087D01*
X220220Y74295D02*
X220782Y73733D01*
X219502Y74295D02*
X220456Y73341D01*
X225897Y74065D02*
X226127Y74295D01*
X220938D02*
X221157Y74076D01*
X217346Y74295D02*
X219804Y71837D01*
X216628Y74295D02*
X219736Y71187D01*
X218783Y74295D02*
X220179Y72899D01*
X218065Y74295D02*
X219959Y72401D01*
X224801Y67559D02*
X226695Y65665D01*
X223587Y67336D02*
X226695Y64228D01*
X215909Y74295D02*
X219805Y70400D01*
X219812Y50737D02*
X220991Y51917D01*
X219661Y51865D02*
X220777Y50749D01*
X199386Y74295D02*
X221370Y52311D01*
X198667Y74295D02*
X221013Y51950D01*
X200823Y74295D02*
X222667Y52451D01*
X200104Y74295D02*
X221874Y52525D01*
X197230Y74295D02*
X218870Y52656D01*
X196512Y74295D02*
X218010Y52797D01*
X215191Y74295D02*
X220221Y69265D01*
X197949Y74295D02*
X220802Y51442D01*
X206024Y47727D02*
X226695Y68397D01*
X196495Y39634D02*
X224272Y67411D01*
X209017Y44971D02*
X226695Y62650D01*
X209017Y45690D02*
X226695Y63368D01*
X196717Y44885D02*
X220575Y68743D01*
X196476Y45363D02*
X220279Y69166D01*
X207131Y42368D02*
X216810Y52046D01*
X196778Y44228D02*
X220920Y68370D01*
X223520Y50292D02*
Y51181D01*
Y49403D02*
Y50292D01*
X220777D02*
Y51181D01*
X219812Y50995D02*
X220777Y50030D01*
Y49403D02*
Y50292D01*
X219812Y50019D02*
X220777Y50984D01*
X223520Y50879D02*
X226695Y47704D01*
X223401Y48843D02*
X226695Y45549D01*
X219812Y49403D02*
Y51181D01*
X216560Y49403D02*
Y51181D01*
X219812Y50277D02*
X220780Y49309D01*
X219808Y49297D02*
X220777Y50266D01*
X207809Y42327D02*
X216560Y51078D01*
X208712Y47727D02*
X209017Y47422D01*
X205765Y47727D02*
X209017D01*
X205765Y47468D02*
X206024Y47727D01*
X205765Y44475D02*
Y47727D01*
X209017Y44475D02*
Y47727D01*
X205765Y44475D02*
X209017D01*
X208596Y41677D02*
X216560Y49642D01*
X208272Y42072D02*
X216560Y50360D01*
X208759Y41122D02*
X216617Y48979D01*
X223507Y37909D02*
X226695Y41097D01*
X219809Y37804D02*
X226695Y44689D01*
X223520Y36485D02*
X226695Y39660D01*
X223520Y37204D02*
X226695Y40379D01*
X222490Y39047D02*
X226695Y43252D01*
X221758Y39034D02*
X226695Y43971D01*
X223317Y38437D02*
X226695Y41816D01*
X222975Y38814D02*
X226695Y42534D01*
X223520Y36511D02*
X226695Y33336D01*
X219811Y35909D02*
X226695Y29025D01*
X223513Y35800D02*
X226695Y32617D01*
X219686Y35315D02*
X226695Y28307D01*
X223507Y35754D02*
X226695Y38942D01*
X223507Y35754D02*
X226695Y38942D01*
X223520Y37229D02*
X226695Y34054D01*
X223497Y37971D02*
X226695Y34773D01*
X219670Y38383D02*
X226695Y45408D01*
X219385Y38816D02*
X226695Y46126D01*
X206934Y44475D02*
X226695Y24715D01*
X206216Y44475D02*
X226695Y23996D01*
X217989Y47789D02*
X226695Y39083D01*
X217676Y39263D02*
X226695Y48281D01*
X218985Y39135D02*
X226695Y46845D01*
X218454Y39322D02*
X226695Y47563D01*
X196781Y44571D02*
X226695Y14657D01*
X196712Y43921D02*
X226695Y13938D01*
X207449Y39651D02*
X226695Y20404D01*
X196516Y39088D02*
X226695Y8909D01*
X208747Y41226D02*
X226695Y23278D01*
X208686Y40569D02*
X226695Y22559D01*
X208421Y40115D02*
X226695Y21841D01*
X208017Y39801D02*
X226695Y21123D01*
X219411Y34872D02*
X226695Y27588D01*
X219020Y34545D02*
X226695Y26870D01*
X218500Y34346D02*
X226695Y26152D01*
X217754Y34374D02*
X226695Y25433D01*
X223337Y35257D02*
X226695Y31899D01*
X223005Y34870D02*
X226695Y31180D01*
X222533Y34624D02*
X226695Y30462D01*
X221832Y34606D02*
X226695Y29744D01*
X225508Y8300D02*
X226695Y9487D01*
X225037Y8547D02*
X226695Y10205D01*
X226297Y7652D02*
X226695Y8050D01*
X225927Y8000D02*
X226695Y8768D01*
X223184Y8850D02*
X226695Y12360D01*
X222268Y8651D02*
X226695Y13079D01*
X224506Y8734D02*
X226695Y10923D01*
X223899Y8846D02*
X226695Y11642D01*
X206055Y1778D02*
X226695Y22418D01*
X205336Y1778D02*
X226695Y23137D01*
X208928Y1778D02*
X226695Y19545D01*
X208210Y1778D02*
X226695Y20263D01*
X201026Y1778D02*
X226695Y27447D01*
X196715Y1778D02*
X226695Y31758D01*
X204618Y1778D02*
X226695Y23855D01*
X201744Y1778D02*
X226695Y26729D01*
X213239Y1778D02*
X226695Y15234D01*
X212521Y1778D02*
X226695Y15952D01*
X214676Y1778D02*
X226695Y13797D01*
X213957Y1778D02*
X226695Y14516D01*
X210365Y1778D02*
X226695Y18108D01*
X209647Y1778D02*
X226695Y18826D01*
X211802Y1778D02*
X226695Y16671D01*
X211084Y1778D02*
X226695Y17389D01*
X223520Y36830D02*
Y37719D01*
X219812Y37087D02*
X220834Y38109D01*
X220777Y36830D02*
Y37719D01*
X219812Y37345D02*
X220777Y36380D01*
X226695Y7140D02*
Y69060D01*
X223520Y35941D02*
Y36830D01*
X219812Y36369D02*
X220777Y37334D01*
X219812Y35941D02*
Y37719D01*
X220777Y35941D02*
Y36830D01*
X219812Y36627D02*
X220814Y35625D01*
X209017Y46704D02*
X216948Y38772D01*
X209017Y47422D02*
X217335Y39104D01*
X219763Y38112D02*
X220777Y37099D01*
X209017Y45267D02*
X216560Y37723D01*
X209017Y45985D02*
X216677Y38324D01*
X209017Y44548D02*
X216560Y37005D01*
X208371Y44475D02*
X216560Y36286D01*
X219779Y35618D02*
X220777Y36616D01*
X207653Y44475D02*
X216619Y35509D01*
X196478Y32661D02*
X221127Y8012D01*
X196762Y31999D02*
X206044Y41281D01*
X196568Y32523D02*
X208521Y44475D01*
X216560Y35941D02*
Y37719D01*
X196717Y31235D02*
X206085Y40603D01*
X226618Y7254D02*
X226695Y7331D01*
X226452Y2687D02*
X226695Y2444D01*
X226171Y1778D02*
X226695Y2302D01*
X225369Y1778D02*
X226695D01*
Y3020D01*
X226105Y2316D02*
X226642Y1778D01*
X225709Y1993D02*
X225924Y1778D01*
X225452D02*
X225578Y1904D01*
X221531Y1860D02*
X221613Y1778D01*
X221142D02*
X221346Y1982D01*
X218986Y1778D02*
X220300Y3092D01*
X218268Y1778D02*
X220053Y3563D01*
X220423Y1778D02*
X220948Y2303D01*
X219705Y1778D02*
X220600Y2673D01*
X203900Y1778D02*
X226695Y24573D01*
X196787Y31633D02*
X220755Y7665D01*
X207492Y1778D02*
X226695Y20981D01*
X206773Y1778D02*
X226695Y21700D01*
X215394Y1778D02*
X219949Y6332D01*
X196649Y31053D02*
X220433Y7269D01*
X217550Y1778D02*
X219866Y4094D01*
X216831Y1778D02*
X219754Y4701D01*
X200307Y1778D02*
X226695Y28166D01*
X199589Y1778D02*
X226695Y28884D01*
X203181Y1778D02*
X226695Y25292D01*
X202463Y1778D02*
X226695Y26010D01*
X198152Y1778D02*
X226695Y30321D01*
X197434Y1778D02*
X226695Y31039D01*
X216113Y1778D02*
X219750Y5416D01*
X198871Y1778D02*
X226695Y29602D01*
X194357Y74295D02*
X216736Y51916D01*
X193638Y74295D02*
X216571Y51363D01*
X195794Y74295D02*
X217455Y52633D01*
X195075Y74295D02*
X217038Y52332D01*
X189865Y53120D02*
X211040Y74295D01*
X189865Y54557D02*
X209603Y74295D01*
X192920D02*
X216560Y50655D01*
X189865Y52401D02*
X211759Y74295D01*
X192202D02*
X216560Y49936D01*
X191483Y74295D02*
X216572Y49206D01*
X190765Y74295D02*
X226695Y38365D01*
X190046Y74295D02*
X226695Y37646D01*
X189865Y49528D02*
X214632Y74295D01*
X189865Y50246D02*
X213914Y74295D01*
X189865Y48091D02*
X216069Y74295D01*
X189865Y48809D02*
X215351Y74295D01*
X189865Y51683D02*
X212477Y74295D01*
X189865Y53838D02*
X210322Y74295D01*
X189865D02*
X221460D01*
X189865Y50965D02*
X213195Y74295D01*
X189865Y56712D02*
X207448Y74295D01*
X189865Y57430D02*
X206730Y74295D01*
X189865Y55275D02*
X208885Y74295D01*
X189865Y55993D02*
X208167Y74295D01*
X189865Y43780D02*
X220380Y74295D01*
X189865Y44499D02*
X219661Y74295D01*
X189865Y73758D02*
X226695Y36928D01*
X189865Y43062D02*
X221098Y74295D01*
X189865Y46654D02*
X217506Y74295D01*
X189865Y47372D02*
X216788Y74295D01*
X189865Y45217D02*
X218943Y74295D01*
X189865Y45936D02*
X218224Y74295D01*
X196115Y45720D02*
X220036Y69641D01*
X195631Y45955D02*
X219855Y70178D01*
X195889Y40465D02*
X222824Y67400D01*
X195359Y40654D02*
X222258Y67552D01*
X194963Y46005D02*
X219750Y70791D01*
X189865Y58671D02*
X206485Y42051D01*
X189865Y57234D02*
X206021Y41079D01*
X189865Y57953D02*
X206171Y41647D01*
X196467Y38888D02*
X225435Y67856D01*
X189865Y70884D02*
X221725Y39024D01*
X196265Y40122D02*
X223478Y67336D01*
X194422Y40434D02*
X221758Y67771D01*
X196244Y32917D02*
X207802Y44475D01*
X189865Y70166D02*
X221264Y38767D01*
X195802Y33194D02*
X207084Y44475D01*
X195209Y33319D02*
X206365Y44475D01*
X189865Y41625D02*
X219756Y71516D01*
X189865Y42343D02*
X219980Y72458D01*
X189865Y65855D02*
X207994Y47727D01*
X189865Y66574D02*
X208712Y47727D01*
X189865Y64418D02*
X206557Y47727D01*
X189865Y65137D02*
X207275Y47727D01*
X189865Y59389D02*
X206939Y42316D01*
X189865Y60108D02*
X207596Y42377D01*
X189865Y72321D02*
X226695Y35491D01*
X189865Y73039D02*
X226695Y36209D01*
X189865Y36596D02*
X221314Y68045D01*
X189865Y71603D02*
X222400Y39067D01*
X189865Y68729D02*
X220780Y37814D01*
X189865Y69447D02*
X220942Y38371D01*
X189865Y67292D02*
X217848Y39309D01*
X189865Y68010D02*
X218579Y39296D01*
X189865Y70362D02*
X193798Y74295D01*
X189865Y58149D02*
X206011Y74295D01*
X189865Y63700D02*
X205838Y47727D01*
X189865Y71080D02*
X193080Y74295D01*
X189865Y73236D02*
X190924Y74295D01*
X189865Y73954D02*
X190206Y74295D01*
X189865Y71799D02*
X192361Y74295D01*
X189865Y72517D02*
X191643Y74295D01*
X189865Y62263D02*
X205765Y46363D01*
X189865Y62982D02*
X205765Y47081D01*
X189865Y60826D02*
X205765Y44926D01*
X189865Y61545D02*
X205765Y45644D01*
X189865Y50768D02*
X194690Y45943D01*
X189865Y51487D02*
X195340Y46012D01*
X189865Y49332D02*
X193862Y45335D01*
X189865Y50050D02*
X194216Y45699D01*
X189865Y66051D02*
X198109Y74295D01*
X189865Y66770D02*
X197390Y74295D01*
X189865Y64615D02*
X199545Y74295D01*
X189865Y65333D02*
X198827Y74295D01*
X189865Y68925D02*
X195235Y74295D01*
X189865Y69644D02*
X194516Y74295D01*
X189865Y67488D02*
X196672Y74295D01*
X189865Y68207D02*
X195953Y74295D01*
X189865Y60304D02*
X203856Y74295D01*
X189865Y61022D02*
X203138Y74295D01*
X189865Y58867D02*
X205293Y74295D01*
X189865Y59586D02*
X204574Y74295D01*
X189865Y63178D02*
X200982Y74295D01*
X189865Y63896D02*
X200264Y74295D01*
X189865Y61741D02*
X202419Y74295D01*
X189865Y62459D02*
X201701Y74295D01*
X189865Y46458D02*
X195817Y40506D01*
X189865Y43584D02*
X193854Y39595D01*
X189865Y44303D02*
X194073Y40094D01*
X189865Y47895D02*
X193587Y44173D01*
X189865Y48613D02*
X193630Y44848D01*
X189865Y40188D02*
X193634Y43958D01*
X189865Y40907D02*
X193584Y44626D01*
X189865Y38751D02*
X194226Y43113D01*
X189865Y39470D02*
X193869Y43474D01*
X189865Y38033D02*
X194704Y42872D01*
X189865Y45021D02*
X194440Y40446D01*
X189865Y45739D02*
X194957Y40647D01*
X189865Y33722D02*
X194367Y38224D01*
X189865Y37315D02*
X195361Y42811D01*
X189865Y35878D02*
X194055Y40067D01*
X189865Y42866D02*
X193918Y38813D01*
X189865Y34441D02*
X194024Y38600D01*
X189865Y35159D02*
X193835Y39130D01*
X189865Y38555D02*
X195102Y33318D01*
X189865Y39274D02*
X196130Y33009D01*
X189865Y33004D02*
X194855Y37994D01*
X189865Y32286D02*
X195601Y38022D01*
X189865Y37118D02*
X194089Y32894D01*
X189865Y37837D02*
X194522Y33180D01*
X189865Y35682D02*
X193589Y31958D01*
X189865Y36400D02*
X193772Y32493D01*
X189865Y55079D02*
X226695Y18249D01*
X189865Y55797D02*
X226695Y18967D01*
X189865Y15043D02*
X226695Y51873D01*
X189865Y52205D02*
X226695Y15375D01*
X189865Y13607D02*
X226695Y50437D01*
X189865Y14325D02*
X226695Y51155D01*
X196468Y43447D02*
X226695Y13220D01*
X189865Y18636D02*
X220777Y49547D01*
X196375Y39948D02*
X226695Y9628D01*
X196315Y38571D02*
X226695Y8191D01*
X195963Y38204D02*
X226695Y7473D01*
X190250Y1778D02*
X226695Y38223D01*
X196104Y43093D02*
X226695Y12502D01*
X189865Y12888D02*
X226695Y49718D01*
X195617Y42861D02*
X226695Y11783D01*
X194942Y42818D02*
X226695Y11065D01*
X189865Y54360D02*
X226695Y17530D01*
X189865Y56516D02*
X226695Y19686D01*
X189865Y16480D02*
X221552Y48168D01*
X189865Y53642D02*
X226695Y16812D01*
X189865Y17199D02*
X221140Y48474D01*
X189865Y17917D02*
X220866Y48918D01*
X189865Y19354D02*
X218292Y47781D01*
X189865Y20072D02*
X217658Y47866D01*
X189865Y12170D02*
X226695Y49000D01*
X189865Y52924D02*
X226695Y16094D01*
X189865Y42147D02*
X223164Y8848D01*
X189865Y47176D02*
X226695Y10346D01*
X189865Y41429D02*
X222555Y8739D01*
X189865Y15762D02*
X222135Y48031D01*
X189865Y39992D02*
X221547Y8310D01*
X189865Y40710D02*
X222021Y8555D01*
X195464Y37985D02*
X224812Y8637D01*
X194682Y38049D02*
X223884Y8847D01*
X189865Y2112D02*
X222335Y34582D01*
X189865Y2830D02*
X221685Y34650D01*
X196363Y30620D02*
X220161Y6823D01*
X195962Y30303D02*
X219944Y6321D01*
X195427Y30120D02*
X219795Y5751D01*
X194632Y30196D02*
X219735Y5093D01*
X193123Y1778D02*
X226695Y35350D01*
X192405Y1778D02*
X226695Y36068D01*
X195278Y1778D02*
X226695Y33195D01*
X193842Y1778D02*
X226695Y34631D01*
X191686Y1778D02*
X226695Y36787D01*
X190968Y1778D02*
X226695Y37505D01*
X195997Y1778D02*
X226695Y32476D01*
X194560Y1778D02*
X226695Y33913D01*
X189865Y4267D02*
X220923Y35325D01*
X189865Y4986D02*
X220777Y35898D01*
X189865Y33526D02*
X220300Y3091D01*
X189865Y3549D02*
X221234Y34918D01*
X189865Y6422D02*
X217804Y34361D01*
X189865Y7141D02*
X217301Y34577D01*
X189865Y34245D02*
X219819Y4291D01*
X189865Y5704D02*
X218509Y34348D01*
X189865Y32808D02*
X220895Y1778D01*
X189865Y2112D02*
X222335Y34582D01*
X189865Y1778D02*
X221671D01*
X189865Y32089D02*
X220176Y1778D01*
X189865Y30653D02*
X218740Y1778D01*
X189865Y31371D02*
X219458Y1778D01*
X189865Y29216D02*
X217303Y1778D01*
X189865Y29934D02*
X218021Y1778D01*
X189865Y30130D02*
X205765Y46031D01*
X189865Y30849D02*
X205765Y46749D01*
X189865Y22946D02*
X206735Y39816D01*
X189865Y23665D02*
X206340Y40140D01*
X189865Y29412D02*
X205765Y45312D01*
X189865Y31567D02*
X205765Y47468D01*
X189865Y28693D02*
X205765Y44594D01*
X189865Y20791D02*
X217191Y48117D01*
X189865Y21509D02*
X216843Y48487D01*
X189865Y9296D02*
X216560Y35992D01*
X189865Y11451D02*
X216642Y38229D01*
X189865Y22228D02*
X207290Y39653D01*
X189865Y1778D02*
Y74295D01*
Y10015D02*
X216560Y36710D01*
X189865Y10733D02*
X216560Y37428D01*
X189865Y25820D02*
X194366Y30321D01*
X189865Y8578D02*
X216662Y35375D01*
X189865Y25101D02*
X194890Y30127D01*
X189865Y24383D02*
X195654Y30172D01*
X189865Y27975D02*
X193570Y31680D01*
X189865Y34963D02*
X193665Y31163D01*
X189865Y26538D02*
X193972Y30645D01*
X189865Y27257D02*
X193695Y31087D01*
X189865Y28497D02*
X216584Y1778D01*
X189865Y7859D02*
X216923Y34917D01*
X189865Y27061D02*
X215148Y1778D01*
X189865Y27779D02*
X215866Y1778D01*
X189865Y25624D02*
X213711Y1778D01*
X189865Y26342D02*
X214429Y1778D01*
X189865Y24187D02*
X212274Y1778D01*
X189865Y24905D02*
X212992Y1778D01*
X189865Y11974D02*
X200061Y1778D01*
X189865Y12692D02*
X200779Y1778D01*
X189865Y10537D02*
X198624Y1778D01*
X189865Y11255D02*
X199342Y1778D01*
X189865Y9100D02*
X197187Y1778D01*
X189865Y9818D02*
X197905Y1778D01*
X189865Y7663D02*
X195750Y1778D01*
X189865Y8382D02*
X196469Y1778D01*
X189865Y6226D02*
X194313Y1778D01*
X189865Y6945D02*
X195032Y1778D01*
X189865Y4789D02*
X192876Y1778D01*
X189865Y5508D02*
X193595Y1778D01*
X189865Y3353D02*
X191440Y1778D01*
X189865Y4071D02*
X192158Y1778D01*
X189865Y1916D02*
X190003Y1778D01*
X189865Y2634D02*
X190721Y1778D01*
X189865Y22750D02*
X210837Y1778D01*
X189865Y23468D02*
X211555Y1778D01*
X189865Y21313D02*
X209400Y1778D01*
X189865Y22032D02*
X210119Y1778D01*
X189865Y19876D02*
X207963Y1778D01*
X189865Y20595D02*
X208682Y1778D01*
X189865Y18439D02*
X206526Y1778D01*
X189865Y19158D02*
X207245Y1778D01*
X189865Y17003D02*
X205090Y1778D01*
X189865Y17721D02*
X205808Y1778D01*
X189865Y15566D02*
X203653Y1778D01*
X189865Y16284D02*
X204371Y1778D01*
X189865Y14129D02*
X202216Y1778D01*
X189865Y14847D02*
X202934Y1778D01*
X189865Y13411D02*
X201498Y1778D01*
D42*
X60452Y34925D02*
X62484D01*
X60452Y27940D02*
X60569Y29455D01*
X60579Y29591D01*
X60071Y47752D02*
X62484Y45339D01*
X60071Y47752D02*
Y48514D01*
X62484Y34925D02*
Y45339D01*
X60452Y30480D02*
Y34544D01*
Y30480D02*
X60579Y29591D01*
X60452Y25400D02*
Y27940D01*
Y16764D02*
Y25400D01*
X91694Y62992D02*
X93853Y60833D01*
X80645Y62992D02*
X91694D01*
X66167Y48514D02*
X80645Y62992D01*
X93853Y60833D02*
X97409D01*
X60071Y48514D02*
X66167D01*
X97409Y60833D02*
X99060Y62484D01*
X139319D01*
X140970Y60833D01*
X148463D01*
Y58126D02*
X174879Y31710D01*
X148463Y58126D02*
Y60833D01*
X173321Y58327D02*
Y62103D01*
Y58327D02*
X177038Y54610D01*
Y33869D02*
Y54610D01*
X174879Y31710D02*
X177038Y33869D01*
X171196Y55793D02*
Y64042D01*
X173321Y66167D01*
X171196Y55793D02*
X174879Y52110D01*
D43*
X223520Y5080D02*
D03*
X5080D02*
D03*
Y71120D02*
D03*
X223520D02*
D03*
D44*
X62992Y16764D02*
D03*
X60452D02*
D03*
X57912D02*
D03*
X107569Y37338D02*
D03*
X110109D02*
D03*
X112649D02*
D03*
D45*
X60452Y34544D02*
D03*
X110109Y19558D02*
D03*
X135763Y60833D02*
D03*
X123063D02*
D03*
X118043D02*
D03*
X84709D02*
D03*
X72009D02*
D03*
X66989D02*
D03*
X33655D02*
D03*
X20955D02*
D03*
X15935D02*
D03*
D46*
X60071Y43434D02*
D03*
X109728Y49530D02*
D03*
X207391Y46101D02*
D03*
D47*
X60071Y48514D02*
D03*
X109728Y44450D02*
D03*
X207391Y41021D02*
D03*
X35431Y7114D02*
D03*
X85597D02*
D03*
X135763D02*
D03*
D48*
X148463Y44069D02*
D03*
Y46609D02*
D03*
Y49149D02*
D03*
X97409Y44069D02*
D03*
Y46609D02*
D03*
Y49149D02*
D03*
X45974Y44196D02*
D03*
Y46736D02*
D03*
Y49276D02*
D03*
D49*
X38731Y3814D02*
D03*
Y10414D02*
D03*
X32131D02*
D03*
Y3814D02*
D03*
X82297Y10414D02*
D03*
Y3814D02*
D03*
X88897D02*
D03*
Y10414D02*
D03*
X132463D02*
D03*
Y3814D02*
D03*
X139063D02*
D03*
Y10414D02*
D03*
D50*
X31877Y30226D02*
D03*
X82804D02*
D03*
X131572D02*
D03*
D51*
X31877Y27686D02*
D03*
Y25146D02*
D03*
Y22606D02*
D03*
X39497Y30226D02*
D03*
Y27686D02*
D03*
Y25146D02*
D03*
Y22606D02*
D03*
X82804Y27686D02*
D03*
Y25146D02*
D03*
Y22606D02*
D03*
X90424Y30226D02*
D03*
Y27686D02*
D03*
Y25146D02*
D03*
Y22606D02*
D03*
X131572Y27686D02*
D03*
Y25146D02*
D03*
Y22606D02*
D03*
X139192Y30226D02*
D03*
Y27686D02*
D03*
Y25146D02*
D03*
Y22606D02*
D03*
D52*
X174879Y31710D02*
D03*
Y41910D02*
D03*
Y52110D02*
D03*
X195179Y44410D02*
D03*
Y39310D02*
D03*
Y31710D02*
D03*
D53*
X218186Y50292D02*
D03*
X222148D02*
D03*
X218186Y36830D02*
D03*
X222148D02*
D03*
D54*
X62992Y25400D02*
D03*
X60452D02*
D03*
X57912D02*
D03*
Y27940D02*
D03*
X60452D02*
D03*
X62992D02*
D03*
Y30480D02*
D03*
X60452D02*
D03*
X57912D02*
D03*
X107569Y28702D02*
D03*
X110109D02*
D03*
X112649D02*
D03*
Y26162D02*
D03*
X110109D02*
D03*
X107569D02*
D03*
Y23622D02*
D03*
X110109D02*
D03*
X112649D02*
D03*
M02*
