G04*
G04 #@! TF.GenerationSoftware,Altium Limited,Altium Designer,18.0.9 (584)*
G04*
G04 Layer_Color=65535*
%FSLAX43Y43*%
%MOMM*%
G71*
G01*
G75*
%ADD10C,0.254*%
%ADD11C,0.152*%
%ADD12C,0.200*%
%ADD13C,0.250*%
%ADD14C,0.600*%
%ADD15C,0.305*%
%ADD16C,0.178*%
D10*
X158563Y53883D02*
G03*
X159963Y55283I33J1367D01*
G01*
X159963Y71683D02*
G03*
X158363Y73283I-1600J0D01*
G01*
X113363D02*
G03*
X111563Y71683I-100J-1700D01*
G01*
X111563Y55483D02*
G03*
X113163Y53883I1600J0D01*
G01*
X107509D02*
G03*
X108909Y55283I33J1367D01*
G01*
X108909Y71683D02*
G03*
X107309Y73283I-1600J0D01*
G01*
X62309D02*
G03*
X60509Y71683I-100J-1700D01*
G01*
X60509Y55483D02*
G03*
X62109Y53883I1600J0D01*
G01*
X56455D02*
G03*
X57855Y55283I33J1367D01*
G01*
X57855Y71683D02*
G03*
X56255Y73283I-1600J0D01*
G01*
X11255D02*
G03*
X9455Y71683I-100J-1700D01*
G01*
X9455Y55483D02*
G03*
X11055Y53883I1600J0D01*
G01*
X66421Y45974D02*
G03*
X66421Y45974I-6350J0D01*
G01*
X116078Y46990D02*
G03*
X116078Y46990I-6350J0D01*
G01*
X213741Y43561D02*
G03*
X213741Y43561I-6350J0D01*
G01*
X139163Y73283D02*
X158363D01*
X112963D02*
X122163D01*
Y75283D01*
X139163D01*
Y73283D02*
Y75283D01*
X111563Y55483D02*
Y71683D01*
X112963Y53883D02*
X158563D01*
X159963Y55283D02*
Y71683D01*
X129963Y71283D02*
X130563D01*
X129963Y63283D02*
Y71283D01*
X127963Y63283D02*
X129963D01*
X127963D02*
X130363Y60883D01*
X132763Y63283D01*
X130563D02*
X132763D01*
X130563D02*
Y71283D01*
X88109Y73283D02*
X107309D01*
X61909D02*
X71109D01*
Y75283D01*
X88109D01*
Y73283D02*
Y75283D01*
X60509Y55483D02*
Y71683D01*
X61909Y53883D02*
X107509D01*
X108909Y55283D02*
Y71683D01*
X78909Y71283D02*
X79509D01*
X78909Y63283D02*
Y71283D01*
X76909Y63283D02*
X78909D01*
X76909D02*
X79309Y60883D01*
X81709Y63283D01*
X79509D02*
X81709D01*
X79509D02*
Y71283D01*
X37055Y73283D02*
X56255D01*
X10855D02*
X20055D01*
Y75283D01*
X37055D01*
Y73283D02*
Y75283D01*
X9455Y55483D02*
Y71683D01*
X10855Y53883D02*
X56455D01*
X57855Y55283D02*
Y71683D01*
X27855Y71283D02*
X28455D01*
X27855Y63283D02*
Y71283D01*
X25855Y63283D02*
X27855D01*
X25855D02*
X28255Y60883D01*
X30655Y63283D01*
X28455D02*
X30655D01*
X28455D02*
Y71283D01*
X60071Y40640D02*
Y41656D01*
X59563Y41148D02*
X60579D01*
X109728Y51308D02*
Y52324D01*
X109220Y51816D02*
X110236D01*
X207391Y47879D02*
Y48895D01*
X206883Y48387D02*
X207899D01*
X172329Y29210D02*
Y54610D01*
X197729D01*
Y29210D02*
Y54610D01*
X172329Y29210D02*
X197729D01*
X218135Y55067D02*
X224003D01*
X216332D02*
X218135D01*
X216332Y46279D02*
Y55067D01*
X224003Y46279D02*
Y55067D01*
X216332Y46279D02*
X224003D01*
X216357Y46965D02*
X224003D01*
X218135Y41605D02*
X224003D01*
X216332D02*
X218135D01*
X216332Y32817D02*
Y41605D01*
X224003Y32817D02*
Y41605D01*
X216332Y32817D02*
X224003D01*
X216357Y33503D02*
X224003D01*
X192024Y18591D02*
X191770Y18845D01*
X191262D01*
X191008Y18591D01*
Y17576D01*
X191262Y17322D01*
X191770D01*
X192024Y17576D01*
X192532Y18337D02*
Y17576D01*
X192785Y17322D01*
X193547D01*
Y18337D01*
X194055D02*
Y17322D01*
Y17829D01*
X194309Y18083D01*
X194563Y18337D01*
X194817D01*
X195579D02*
Y17322D01*
Y17829D01*
X195832Y18083D01*
X196086Y18337D01*
X196340D01*
X197864Y17322D02*
X197356D01*
X197102Y17576D01*
Y18083D01*
X197356Y18337D01*
X197864D01*
X198118Y18083D01*
Y17829D01*
X197102D01*
X198626Y17322D02*
Y18337D01*
X199387D01*
X199641Y18083D01*
Y17322D01*
X200403Y18591D02*
Y18337D01*
X200149D01*
X200657D01*
X200403D01*
Y17576D01*
X200657Y17322D01*
X203958Y18591D02*
X203704Y18845D01*
X203196D01*
X202942Y18591D01*
Y18337D01*
X203196Y18083D01*
X203704D01*
X203958Y17829D01*
Y17576D01*
X203704Y17322D01*
X203196D01*
X202942Y17576D01*
X205227Y17322D02*
X204720D01*
X204466Y17576D01*
Y18083D01*
X204720Y18337D01*
X205227D01*
X205481Y18083D01*
Y17829D01*
X204466D01*
X205989Y17322D02*
Y18337D01*
X206751D01*
X207005Y18083D01*
Y17322D01*
X207513D02*
X208274D01*
X208528Y17576D01*
X208274Y17829D01*
X207767D01*
X207513Y18083D01*
X207767Y18337D01*
X208528D01*
X209290Y17322D02*
X209798D01*
X210052Y17576D01*
Y18083D01*
X209798Y18337D01*
X209290D01*
X209036Y18083D01*
Y17576D01*
X209290Y17322D01*
X210560Y18337D02*
Y17322D01*
Y17829D01*
X210814Y18083D01*
X211068Y18337D01*
X211321D01*
X213607Y18845D02*
Y17829D01*
X214115Y17322D01*
X214622Y17829D01*
Y18845D01*
X216146Y17322D02*
X215130D01*
X216146Y18337D01*
Y18591D01*
X215892Y18845D01*
X215384D01*
X215130Y18591D01*
X192024Y16407D02*
X191516Y16153D01*
X191008Y15646D01*
Y15138D01*
X191262Y14884D01*
X191770D01*
X192024Y15138D01*
Y15392D01*
X191770Y15646D01*
X191008D01*
X192532D02*
X193547D01*
X195071Y14884D02*
X194055D01*
X195071Y15899D01*
Y16153D01*
X194817Y16407D01*
X194309D01*
X194055Y16153D01*
X195579D02*
X195832Y16407D01*
X196340D01*
X196594Y16153D01*
Y15138D01*
X196340Y14884D01*
X195832D01*
X195579Y15138D01*
Y16153D01*
X197102Y14884D02*
X197610D01*
X197356D01*
Y16407D01*
X197102Y16153D01*
X198372D02*
X198626Y16407D01*
X199133D01*
X199387Y16153D01*
Y15899D01*
X199133Y15646D01*
X199387Y15392D01*
Y15138D01*
X199133Y14884D01*
X198626D01*
X198372Y15138D01*
Y15392D01*
X198626Y15646D01*
X198372Y15899D01*
Y16153D01*
X198626Y15646D02*
X199133D01*
X191008Y13970D02*
Y12446D01*
Y12954D01*
X192024Y13970D01*
X191262Y13208D01*
X192024Y12446D01*
X192532Y13970D02*
Y12446D01*
X193293D01*
X193547Y12700D01*
Y13716D01*
X193293Y13970D01*
X192532D01*
X166751Y61976D02*
X167767D01*
X168275Y61214D02*
X168782D01*
X168528D01*
Y62738D01*
X168275Y62484D01*
X170560Y62738D02*
X169544D01*
Y61976D01*
X170052Y62230D01*
X170306D01*
X170560Y61976D01*
Y61468D01*
X170306Y61214D01*
X169798D01*
X169544Y61468D01*
X171068Y62738D02*
Y61722D01*
X171575Y61214D01*
X172083Y61722D01*
Y62738D01*
X166624Y66294D02*
X167640D01*
X167132Y66802D02*
Y65786D01*
X168148Y65532D02*
X168655D01*
X168401D01*
Y67056D01*
X168148Y66802D01*
X170433Y67056D02*
X169417D01*
Y66294D01*
X169925Y66548D01*
X170179D01*
X170433Y66294D01*
Y65786D01*
X170179Y65532D01*
X169671D01*
X169417Y65786D01*
X170941Y67056D02*
Y66040D01*
X171448Y65532D01*
X171956Y66040D01*
Y67056D01*
X152146Y51435D02*
Y49911D01*
X152654Y50419D01*
X153162Y49911D01*
Y51435D01*
X153670Y51181D02*
X153923Y51435D01*
X154431D01*
X154685Y51181D01*
Y50927D01*
X154431Y50673D01*
X154177D01*
X154431D01*
X154685Y50419D01*
Y50165D01*
X154431Y49911D01*
X153923D01*
X153670Y50165D01*
X155193Y49911D02*
X155701D01*
X155447D01*
Y51435D01*
X155193Y51181D01*
X100457Y52578D02*
Y51054D01*
X100965Y51562D01*
X101473Y51054D01*
Y52578D01*
X102996Y51054D02*
X101981D01*
X102996Y52070D01*
Y52324D01*
X102742Y52578D01*
X102234D01*
X101981Y52324D01*
X103504Y51054D02*
X104012D01*
X103758D01*
Y52578D01*
X103504Y52324D01*
X49276Y52070D02*
Y50546D01*
X49784Y51054D01*
X50292Y50546D01*
Y52070D01*
X50800Y50546D02*
X51307D01*
X51053D01*
Y52070D01*
X50800Y51816D01*
X52069Y50546D02*
X52577D01*
X52323D01*
Y52070D01*
X52069Y51816D01*
X130620Y14797D02*
Y13527D01*
X130873Y13274D01*
X131381D01*
X131635Y13527D01*
Y14797D01*
X132143Y14543D02*
X132397Y14797D01*
X132905D01*
X133159Y14543D01*
Y14289D01*
X132905Y14035D01*
X132651D01*
X132905D01*
X133159Y13781D01*
Y13527D01*
X132905Y13274D01*
X132397D01*
X132143Y13527D01*
X134682Y13274D02*
X133667D01*
X134682Y14289D01*
Y14543D01*
X134428Y14797D01*
X133920D01*
X133667Y14543D01*
X130759Y34086D02*
Y32817D01*
X131013Y32563D01*
X131521D01*
X131775Y32817D01*
Y34086D01*
X132283Y33832D02*
X132537Y34086D01*
X133044D01*
X133298Y33832D01*
Y33578D01*
X133044Y33325D01*
X132791D01*
X133044D01*
X133298Y33071D01*
Y32817D01*
X133044Y32563D01*
X132537D01*
X132283Y32817D01*
X133806Y32563D02*
X134314D01*
X134060D01*
Y34086D01*
X133806Y33832D01*
X80453Y14797D02*
Y13527D01*
X80707Y13274D01*
X81215D01*
X81469Y13527D01*
Y14797D01*
X82993Y13274D02*
X81977D01*
X82993Y14289D01*
Y14543D01*
X82739Y14797D01*
X82231D01*
X81977Y14543D01*
X84516Y13274D02*
X83501D01*
X84516Y14289D01*
Y14543D01*
X84262Y14797D01*
X83754D01*
X83501Y14543D01*
X81991Y34086D02*
Y32817D01*
X82245Y32563D01*
X82753D01*
X83007Y32817D01*
Y34086D01*
X84530Y32563D02*
X83515D01*
X84530Y33578D01*
Y33832D01*
X84276Y34086D01*
X83769D01*
X83515Y33832D01*
X85038Y32563D02*
X85546D01*
X85292D01*
Y34086D01*
X85038Y33832D01*
X30277Y14808D02*
Y13538D01*
X30531Y13284D01*
X31039D01*
X31292Y13538D01*
Y14808D01*
X31800Y13284D02*
X32308D01*
X32054D01*
Y14808D01*
X31800Y14554D01*
X34086Y13284D02*
X33070D01*
X34086Y14300D01*
Y14554D01*
X33832Y14808D01*
X33324D01*
X33070Y14554D01*
X31064Y34086D02*
Y32817D01*
X31318Y32563D01*
X31826D01*
X32080Y32817D01*
Y34086D01*
X32588Y32563D02*
X33096D01*
X32842D01*
Y34086D01*
X32588Y33832D01*
X33857Y32563D02*
X34365D01*
X34111D01*
Y34086D01*
X33857Y33832D01*
X54991Y15240D02*
Y13970D01*
X55245Y13716D01*
X55753D01*
X56007Y13970D01*
Y15240D01*
X56515Y14986D02*
X56768Y15240D01*
X57276D01*
X57530Y14986D01*
Y14732D01*
X57276Y14478D01*
X57022D01*
X57276D01*
X57530Y14224D01*
Y13970D01*
X57276Y13716D01*
X56768D01*
X56515Y13970D01*
X60833Y15240D02*
X61849D01*
Y14986D01*
X60833Y13970D01*
Y13716D01*
X62357Y13970D02*
X62610Y13716D01*
X63118D01*
X63372Y13970D01*
Y14986D01*
X63118Y15240D01*
X62610D01*
X62357Y14986D01*
Y14732D01*
X62610Y14478D01*
X63372D01*
X63880Y15240D02*
X64896Y13716D01*
Y15240D02*
X63880Y13716D01*
X65404Y15240D02*
X66419Y13716D01*
Y15240D02*
X65404Y13716D01*
X105791Y15830D02*
Y14560D01*
X106045Y14306D01*
X106553D01*
X106807Y14560D01*
Y15830D01*
X108330Y14306D02*
X107315D01*
X108330Y15322D01*
Y15576D01*
X108076Y15830D01*
X107568D01*
X107315Y15576D01*
X109855Y15918D02*
X110871D01*
Y15664D01*
X109855Y14648D01*
Y14394D01*
X111379Y15664D02*
X111632Y15918D01*
X112140D01*
X112394Y15664D01*
Y15410D01*
X112140Y15156D01*
X112394Y14902D01*
Y14648D01*
X112140Y14394D01*
X111632D01*
X111379Y14648D01*
Y14902D01*
X111632Y15156D01*
X111379Y15410D01*
Y15664D01*
X111632Y15156D02*
X112140D01*
X112902Y15918D02*
X113918Y14394D01*
Y15918D02*
X112902Y14394D01*
X114426Y15918D02*
X115441Y14394D01*
Y15918D02*
X114426Y14394D01*
X172446Y57033D02*
Y55764D01*
X172700Y55510D01*
X173208D01*
X173462Y55764D01*
Y57033D01*
X173970Y55510D02*
X174477D01*
X174223D01*
Y57033D01*
X173970Y56779D01*
X147066Y13970D02*
Y15494D01*
X147828D01*
X148082Y15240D01*
Y14732D01*
X147828Y14478D01*
X147066D01*
X147574D02*
X148082Y13970D01*
X148590Y15240D02*
X148843Y15494D01*
X149351D01*
X149605Y15240D01*
Y14986D01*
X149351Y14732D01*
X149097D01*
X149351D01*
X149605Y14478D01*
Y14224D01*
X149351Y13970D01*
X148843D01*
X148590Y14224D01*
X150113Y15494D02*
X151129D01*
Y15240D01*
X150113Y14224D01*
Y13970D01*
X147447Y18161D02*
Y19685D01*
X148209D01*
X148463Y19431D01*
Y18923D01*
X148209Y18669D01*
X147447D01*
X147955D02*
X148463Y18161D01*
X148971Y19431D02*
X149224Y19685D01*
X149732D01*
X149986Y19431D01*
Y19177D01*
X149732Y18923D01*
X149478D01*
X149732D01*
X149986Y18669D01*
Y18415D01*
X149732Y18161D01*
X149224D01*
X148971Y18415D01*
X151510Y19685D02*
X151002Y19431D01*
X150494Y18923D01*
Y18415D01*
X150748Y18161D01*
X151256D01*
X151510Y18415D01*
Y18669D01*
X151256Y18923D01*
X150494D01*
X143218Y27343D02*
Y28867D01*
X143980D01*
X144234Y28613D01*
Y28105D01*
X143980Y27851D01*
X143218D01*
X143726D02*
X144234Y27343D01*
X144741Y28613D02*
X144995Y28867D01*
X145503D01*
X145757Y28613D01*
Y28359D01*
X145503Y28105D01*
X145249D01*
X145503D01*
X145757Y27851D01*
Y27597D01*
X145503Y27343D01*
X144995D01*
X144741Y27597D01*
X147281Y28867D02*
X146265D01*
Y28105D01*
X146773Y28359D01*
X147027D01*
X147281Y28105D01*
Y27597D01*
X147027Y27343D01*
X146519D01*
X146265Y27597D01*
X125476Y27051D02*
Y28575D01*
X126238D01*
X126492Y28321D01*
Y27813D01*
X126238Y27559D01*
X125476D01*
X125984D02*
X126492Y27051D01*
X127000Y28321D02*
X127253Y28575D01*
X127761D01*
X128015Y28321D01*
Y28067D01*
X127761Y27813D01*
X127507D01*
X127761D01*
X128015Y27559D01*
Y27305D01*
X127761Y27051D01*
X127253D01*
X127000Y27305D01*
X129285Y27051D02*
Y28575D01*
X128523Y27813D01*
X129539D01*
X118326Y29502D02*
Y31026D01*
X119088D01*
X119342Y30772D01*
Y30264D01*
X119088Y30010D01*
X118326D01*
X118834D02*
X119342Y29502D01*
X119849Y30772D02*
X120103Y31026D01*
X120611D01*
X120865Y30772D01*
Y30518D01*
X120611Y30264D01*
X120357D01*
X120611D01*
X120865Y30010D01*
Y29756D01*
X120611Y29502D01*
X120103D01*
X119849Y29756D01*
X121373Y30772D02*
X121627Y31026D01*
X122135D01*
X122389Y30772D01*
Y30518D01*
X122135Y30264D01*
X121881D01*
X122135D01*
X122389Y30010D01*
Y29756D01*
X122135Y29502D01*
X121627D01*
X121373Y29756D01*
X118326Y41186D02*
Y42710D01*
X119088D01*
X119342Y42456D01*
Y41948D01*
X119088Y41694D01*
X118326D01*
X118834D02*
X119342Y41186D01*
X119849Y42456D02*
X120103Y42710D01*
X120611D01*
X120865Y42456D01*
Y42202D01*
X120611Y41948D01*
X120357D01*
X120611D01*
X120865Y41694D01*
Y41440D01*
X120611Y41186D01*
X120103D01*
X119849Y41440D01*
X122389Y41186D02*
X121373D01*
X122389Y42202D01*
Y42456D01*
X122135Y42710D01*
X121627D01*
X121373Y42456D01*
X141186Y51346D02*
Y52870D01*
X141948D01*
X142202Y52616D01*
Y52108D01*
X141948Y51854D01*
X141186D01*
X141694D02*
X142202Y51346D01*
X142709Y52616D02*
X142963Y52870D01*
X143471D01*
X143725Y52616D01*
Y52362D01*
X143471Y52108D01*
X143217D01*
X143471D01*
X143725Y51854D01*
Y51600D01*
X143471Y51346D01*
X142963D01*
X142709Y51600D01*
X144233Y51346D02*
X144741D01*
X144487D01*
Y52870D01*
X144233Y52616D01*
X95377Y9017D02*
Y10541D01*
X96139D01*
X96393Y10287D01*
Y9779D01*
X96139Y9525D01*
X95377D01*
X95885D02*
X96393Y9017D01*
X97916D02*
X96901D01*
X97916Y10033D01*
Y10287D01*
X97662Y10541D01*
X97154D01*
X96901Y10287D01*
X98424Y10541D02*
X99440D01*
Y10287D01*
X98424Y9271D01*
Y9017D01*
X97536Y18288D02*
Y19812D01*
X98298D01*
X98552Y19558D01*
Y19050D01*
X98298Y18796D01*
X97536D01*
X98044D02*
X98552Y18288D01*
X100075D02*
X99060D01*
X100075Y19304D01*
Y19558D01*
X99821Y19812D01*
X99313D01*
X99060Y19558D01*
X101599Y19812D02*
X101091Y19558D01*
X100583Y19050D01*
Y18542D01*
X100837Y18288D01*
X101345D01*
X101599Y18542D01*
Y18796D01*
X101345Y19050D01*
X100583D01*
X94577Y27343D02*
Y28867D01*
X95339D01*
X95593Y28613D01*
Y28105D01*
X95339Y27851D01*
X94577D01*
X95085D02*
X95593Y27343D01*
X97116D02*
X96100D01*
X97116Y28359D01*
Y28613D01*
X96862Y28867D01*
X96354D01*
X96100Y28613D01*
X98640Y28867D02*
X97624D01*
Y28105D01*
X98132Y28359D01*
X98386D01*
X98640Y28105D01*
Y27597D01*
X98386Y27343D01*
X97878D01*
X97624Y27597D01*
X77089Y27051D02*
Y28575D01*
X77851D01*
X78105Y28321D01*
Y27813D01*
X77851Y27559D01*
X77089D01*
X77597D02*
X78105Y27051D01*
X79628D02*
X78613D01*
X79628Y28067D01*
Y28321D01*
X79374Y28575D01*
X78866D01*
X78613Y28321D01*
X80898Y27051D02*
Y28575D01*
X80136Y27813D01*
X81152D01*
X69939Y29629D02*
Y31153D01*
X70701D01*
X70955Y30899D01*
Y30391D01*
X70701Y30137D01*
X69939D01*
X70447D02*
X70955Y29629D01*
X72478D02*
X71462D01*
X72478Y30645D01*
Y30899D01*
X72224Y31153D01*
X71716D01*
X71462Y30899D01*
X72986D02*
X73240Y31153D01*
X73748D01*
X74002Y30899D01*
Y30645D01*
X73748Y30391D01*
X73494D01*
X73748D01*
X74002Y30137D01*
Y29883D01*
X73748Y29629D01*
X73240D01*
X72986Y29883D01*
X69723Y41021D02*
Y42545D01*
X70485D01*
X70739Y42291D01*
Y41783D01*
X70485Y41529D01*
X69723D01*
X70231D02*
X70739Y41021D01*
X72262D02*
X71247D01*
X72262Y42037D01*
Y42291D01*
X72008Y42545D01*
X71500D01*
X71247Y42291D01*
X73786Y41021D02*
X72770D01*
X73786Y42037D01*
Y42291D01*
X73532Y42545D01*
X73024D01*
X72770Y42291D01*
X89878Y51346D02*
Y52870D01*
X90640D01*
X90894Y52616D01*
Y52108D01*
X90640Y51854D01*
X89878D01*
X90386D02*
X90894Y51346D01*
X92417D02*
X91401D01*
X92417Y52362D01*
Y52616D01*
X92163Y52870D01*
X91655D01*
X91401Y52616D01*
X92925Y51346D02*
X93433D01*
X93179D01*
Y52870D01*
X92925Y52616D01*
X43561Y9271D02*
Y10795D01*
X44323D01*
X44577Y10541D01*
Y10033D01*
X44323Y9779D01*
X43561D01*
X44069D02*
X44577Y9271D01*
X45085D02*
X45592D01*
X45338D01*
Y10795D01*
X45085Y10541D01*
X46354Y10795D02*
X47370D01*
Y10541D01*
X46354Y9525D01*
Y9271D01*
X47117Y18161D02*
Y19685D01*
X47879D01*
X48133Y19431D01*
Y18923D01*
X47879Y18669D01*
X47117D01*
X47625D02*
X48133Y18161D01*
X48641D02*
X49148D01*
X48894D01*
Y19685D01*
X48641Y19431D01*
X50926Y19685D02*
X50418Y19431D01*
X49910Y18923D01*
Y18415D01*
X50164Y18161D01*
X50672D01*
X50926Y18415D01*
Y18669D01*
X50672Y18923D01*
X49910D01*
X43269Y27343D02*
Y28867D01*
X44031D01*
X44285Y28613D01*
Y28105D01*
X44031Y27851D01*
X43269D01*
X43777D02*
X44285Y27343D01*
X44792D02*
X45300D01*
X45046D01*
Y28867D01*
X44792Y28613D01*
X47078Y28867D02*
X46062D01*
Y28105D01*
X46570Y28359D01*
X46824D01*
X47078Y28105D01*
Y27597D01*
X46824Y27343D01*
X46316D01*
X46062Y27597D01*
X25654Y26924D02*
Y28448D01*
X26416D01*
X26670Y28194D01*
Y27686D01*
X26416Y27432D01*
X25654D01*
X26162D02*
X26670Y26924D01*
X27178D02*
X27685D01*
X27431D01*
Y28448D01*
X27178Y28194D01*
X29209Y26924D02*
Y28448D01*
X28447Y27686D01*
X29463D01*
X18669Y29464D02*
Y30988D01*
X19431D01*
X19685Y30734D01*
Y30226D01*
X19431Y29972D01*
X18669D01*
X19177D02*
X19685Y29464D01*
X20193D02*
X20700D01*
X20446D01*
Y30988D01*
X20193Y30734D01*
X21462D02*
X21716Y30988D01*
X22224D01*
X22478Y30734D01*
Y30480D01*
X22224Y30226D01*
X21970D01*
X22224D01*
X22478Y29972D01*
Y29718D01*
X22224Y29464D01*
X21716D01*
X21462Y29718D01*
X14478Y36703D02*
Y38227D01*
X15240D01*
X15494Y37973D01*
Y37465D01*
X15240Y37211D01*
X14478D01*
X14986D02*
X15494Y36703D01*
X16002D02*
X16509D01*
X16255D01*
Y38227D01*
X16002Y37973D01*
X18287Y36703D02*
X17271D01*
X18287Y37719D01*
Y37973D01*
X18033Y38227D01*
X17525D01*
X17271Y37973D01*
X39332Y51473D02*
Y52997D01*
X40094D01*
X40348Y52743D01*
Y52235D01*
X40094Y51981D01*
X39332D01*
X39840D02*
X40348Y51473D01*
X40855D02*
X41363D01*
X41109D01*
Y52997D01*
X40855Y52743D01*
X42125Y51473D02*
X42633D01*
X42379D01*
Y52997D01*
X42125Y52743D01*
X185420Y61214D02*
Y62738D01*
X186182D01*
X186436Y62484D01*
Y61976D01*
X186182Y61722D01*
X185420D01*
X185928D02*
X186436Y61214D01*
X187959D02*
X186944D01*
X187959Y62230D01*
Y62484D01*
X187705Y62738D01*
X187197D01*
X186944Y62484D01*
X185420Y65532D02*
Y67056D01*
X186182D01*
X186436Y66802D01*
Y66294D01*
X186182Y66040D01*
X185420D01*
X185928D02*
X186436Y65532D01*
X186944D02*
X187451D01*
X187197D01*
Y67056D01*
X186944Y66802D01*
X217474Y44018D02*
X216967D01*
X217221D01*
Y42748D01*
X216967Y42494D01*
X216713D01*
X216459Y42748D01*
X218998Y42494D02*
X217982D01*
X218998Y43510D01*
Y43764D01*
X218744Y44018D01*
X218236D01*
X217982Y43764D01*
X217474Y57480D02*
X216967D01*
X217221D01*
Y56210D01*
X216967Y55956D01*
X216713D01*
X216459Y56210D01*
X217982Y55956D02*
X218490D01*
X218236D01*
Y57480D01*
X217982Y57226D01*
X176149Y60071D02*
Y58547D01*
X176911D01*
X177165Y58801D01*
Y59817D01*
X176911Y60071D01*
X176149D01*
X178688Y59817D02*
X178434Y60071D01*
X177926D01*
X177673Y59817D01*
Y59563D01*
X177926Y59309D01*
X178434D01*
X178688Y59055D01*
Y58801D01*
X178434Y58547D01*
X177926D01*
X177673Y58801D01*
X180212Y58547D02*
X179196D01*
X180212Y59563D01*
Y59817D01*
X179958Y60071D01*
X179450D01*
X179196Y59817D01*
X175861Y69723D02*
Y68199D01*
X176623D01*
X176877Y68453D01*
Y69469D01*
X176623Y69723D01*
X175861D01*
X178400Y69469D02*
X178146Y69723D01*
X177638D01*
X177385Y69469D01*
Y69215D01*
X177638Y68961D01*
X178146D01*
X178400Y68707D01*
Y68453D01*
X178146Y68199D01*
X177638D01*
X177385Y68453D01*
X178908Y68199D02*
X179416D01*
X179162D01*
Y69723D01*
X178908Y69469D01*
X130556Y52959D02*
X130302Y53213D01*
X129794D01*
X129540Y52959D01*
Y51943D01*
X129794Y51689D01*
X130302D01*
X130556Y51943D01*
X132079Y52959D02*
X131825Y53213D01*
X131317D01*
X131064Y52959D01*
Y52705D01*
X131317Y52451D01*
X131825D01*
X132079Y52197D01*
Y51943D01*
X131825Y51689D01*
X131317D01*
X131064Y51943D01*
X132587Y52959D02*
X132841Y53213D01*
X133349D01*
X133603Y52959D01*
Y52705D01*
X133349Y52451D01*
X133095D01*
X133349D01*
X133603Y52197D01*
Y51943D01*
X133349Y51689D01*
X132841D01*
X132587Y51943D01*
X78359Y52451D02*
X78105Y52705D01*
X77597D01*
X77343Y52451D01*
Y51435D01*
X77597Y51181D01*
X78105D01*
X78359Y51435D01*
X79882Y52451D02*
X79628Y52705D01*
X79120D01*
X78867Y52451D01*
Y52197D01*
X79120Y51943D01*
X79628D01*
X79882Y51689D01*
Y51435D01*
X79628Y51181D01*
X79120D01*
X78867Y51435D01*
X81406Y51181D02*
X80390D01*
X81406Y52197D01*
Y52451D01*
X81152Y52705D01*
X80644D01*
X80390Y52451D01*
X28194D02*
X27940Y52705D01*
X27432D01*
X27178Y52451D01*
Y51435D01*
X27432Y51181D01*
X27940D01*
X28194Y51435D01*
X29717Y52451D02*
X29463Y52705D01*
X28955D01*
X28701Y52451D01*
Y52197D01*
X28955Y51943D01*
X29463D01*
X29717Y51689D01*
Y51435D01*
X29463Y51181D01*
X28955D01*
X28701Y51435D01*
X30225Y51181D02*
X30733D01*
X30479D01*
Y52705D01*
X30225Y52451D01*
X121285Y19431D02*
X121031Y19685D01*
X120523D01*
X120269Y19431D01*
Y18415D01*
X120523Y18161D01*
X121031D01*
X121285Y18415D01*
X121793Y19431D02*
X122046Y19685D01*
X122554D01*
X122808Y19431D01*
Y19177D01*
X122554Y18923D01*
X122300D01*
X122554D01*
X122808Y18669D01*
Y18415D01*
X122554Y18161D01*
X122046D01*
X121793Y18415D01*
X124078Y18161D02*
Y19685D01*
X123316Y18923D01*
X124332D01*
X126492Y39878D02*
X126238Y40132D01*
X125730D01*
X125476Y39878D01*
Y38862D01*
X125730Y38608D01*
X126238D01*
X126492Y38862D01*
X127000Y39878D02*
X127253Y40132D01*
X127761D01*
X128015Y39878D01*
Y39624D01*
X127761Y39370D01*
X127507D01*
X127761D01*
X128015Y39116D01*
Y38862D01*
X127761Y38608D01*
X127253D01*
X127000Y38862D01*
X128523Y39878D02*
X128777Y40132D01*
X129285D01*
X129539Y39878D01*
Y39624D01*
X129285Y39370D01*
X129031D01*
X129285D01*
X129539Y39116D01*
Y38862D01*
X129285Y38608D01*
X128777D01*
X128523Y38862D01*
X73279Y19431D02*
X73025Y19685D01*
X72517D01*
X72263Y19431D01*
Y18415D01*
X72517Y18161D01*
X73025D01*
X73279Y18415D01*
X74802Y18161D02*
X73787D01*
X74802Y19177D01*
Y19431D01*
X74548Y19685D01*
X74040D01*
X73787Y19431D01*
X76072Y18161D02*
Y19685D01*
X75310Y18923D01*
X76326D01*
X78105Y40005D02*
X77851Y40259D01*
X77343D01*
X77089Y40005D01*
Y38989D01*
X77343Y38735D01*
X77851D01*
X78105Y38989D01*
X79628Y38735D02*
X78613D01*
X79628Y39751D01*
Y40005D01*
X79374Y40259D01*
X78866D01*
X78613Y40005D01*
X80136D02*
X80390Y40259D01*
X80898D01*
X81152Y40005D01*
Y39751D01*
X80898Y39497D01*
X80644D01*
X80898D01*
X81152Y39243D01*
Y38989D01*
X80898Y38735D01*
X80390D01*
X80136Y38989D01*
X22606Y19558D02*
X22352Y19812D01*
X21844D01*
X21590Y19558D01*
Y18542D01*
X21844Y18288D01*
X22352D01*
X22606Y18542D01*
X23114Y18288D02*
X23621D01*
X23367D01*
Y19812D01*
X23114Y19558D01*
X25145Y18288D02*
Y19812D01*
X24383Y19050D01*
X25399D01*
X25908Y39370D02*
X25654Y39624D01*
X25146D01*
X24892Y39370D01*
Y38354D01*
X25146Y38100D01*
X25654D01*
X25908Y38354D01*
X26416Y38100D02*
X26923D01*
X26669D01*
Y39624D01*
X26416Y39370D01*
X27685D02*
X27939Y39624D01*
X28447D01*
X28701Y39370D01*
Y39116D01*
X28447Y38862D01*
X28193D01*
X28447D01*
X28701Y38608D01*
Y38354D01*
X28447Y38100D01*
X27939D01*
X27685Y38354D01*
X65405Y52451D02*
X65151Y52705D01*
X64643D01*
X64389Y52451D01*
Y51435D01*
X64643Y51181D01*
X65151D01*
X65405Y51435D01*
X66928Y52705D02*
X66420Y52451D01*
X65913Y51943D01*
Y51435D01*
X66166Y51181D01*
X66674D01*
X66928Y51435D01*
Y51689D01*
X66674Y51943D01*
X65913D01*
X116967Y52070D02*
X116713Y52324D01*
X116205D01*
X115951Y52070D01*
Y51054D01*
X116205Y50800D01*
X116713D01*
X116967Y51054D01*
X118236Y50800D02*
Y52324D01*
X117475Y51562D01*
X118490D01*
X202184Y52070D02*
X201930Y52324D01*
X201422D01*
X201168Y52070D01*
Y51054D01*
X201422Y50800D01*
X201930D01*
X202184Y51054D01*
X203707Y50800D02*
X202692D01*
X203707Y51816D01*
Y52070D01*
X203453Y52324D01*
X202945D01*
X202692Y52070D01*
X127Y76073D02*
X127Y127D01*
X228473D01*
X228473Y76073D02*
X228473Y127D01*
X127Y76073D02*
X228473D01*
D11*
X31087Y7114D02*
G03*
X31087Y7114I-76J0D01*
G01*
X90093D02*
G03*
X90093Y7114I-76J0D01*
G01*
X140259D02*
G03*
X140259Y7114I-76J0D01*
G01*
X34931Y4114D02*
X35931D01*
X34831Y10414D02*
X35931D01*
X32131Y6714D02*
Y7814D01*
X34931Y3814D02*
X35931D01*
X38731Y6614D02*
Y7614D01*
X85097Y10114D02*
X86097D01*
X85097Y3814D02*
X86197D01*
X88897Y6414D02*
Y7514D01*
X85097Y10414D02*
X86097D01*
X82297Y6614D02*
Y7614D01*
X135263Y10114D02*
X136263D01*
X135263Y3814D02*
X136363D01*
X139063Y6414D02*
Y7514D01*
X135263Y10414D02*
X136263D01*
X132463Y6614D02*
Y7614D01*
D12*
X35052Y31516D02*
G03*
X36322Y31516I635J0D01*
G01*
X85979D02*
G03*
X87249Y31516I635J0D01*
G01*
X134747D02*
G03*
X136017Y31516I635J0D01*
G01*
X174320Y62728D02*
X174422D01*
X174320Y61478D02*
X174422D01*
X174144Y59853D02*
Y61123D01*
Y60488D02*
X174779Y59853D01*
X174144Y60488D02*
X174779Y61123D01*
Y59853D02*
Y61123D01*
X174320Y65542D02*
X174422D01*
X174320Y66792D02*
X174422D01*
X174598Y67147D02*
Y68417D01*
X173963D02*
X174598Y67782D01*
X173963Y67147D02*
X174598Y67782D01*
X173963Y67147D02*
Y68417D01*
X33037Y21316D02*
Y31516D01*
X38337Y21316D02*
Y31516D01*
X33037D02*
X35052D01*
X36322D02*
X38337D01*
X33037Y21316D02*
X38337D01*
X83964D02*
Y31516D01*
X89264Y21316D02*
Y31516D01*
X83964D02*
X85979D01*
X87249D02*
X89264D01*
X83964Y21316D02*
X89264D01*
X132732D02*
Y31516D01*
X138032Y21316D02*
Y31516D01*
X132732D02*
X134747D01*
X136017D02*
X138032D01*
X132732Y21316D02*
X138032D01*
D13*
X32002Y31526D02*
G03*
X32002Y31526I-125J0D01*
G01*
X82929D02*
G03*
X82929Y31526I-125J0D01*
G01*
X131697D02*
G03*
X131697Y31526I-125J0D01*
G01*
D14*
X34337Y30516D02*
G03*
X34337Y30516I-300J0D01*
G01*
X85264D02*
G03*
X85264Y30516I-300J0D01*
G01*
X134032D02*
G03*
X134032Y30516I-300J0D01*
G01*
D15*
X65913Y34163D02*
Y35116D01*
Y37465D01*
X54991D02*
X65913D01*
Y21463D02*
Y34163D01*
X54991Y21463D02*
X65913D01*
X54991D02*
Y33274D01*
Y35814D01*
Y37465D01*
X57912Y18288D02*
Y21463D01*
X60452Y18288D02*
Y21463D01*
X62992Y18288D02*
Y21463D01*
X104648Y16637D02*
X115570D01*
X104648D02*
Y18288D01*
Y20828D01*
Y32639D01*
X115570D01*
Y20828D02*
Y32639D01*
Y18288D02*
Y20828D01*
Y16637D02*
Y18288D01*
X112649Y32639D02*
Y35814D01*
X110109Y32639D02*
Y35814D01*
X107569Y32639D02*
Y35814D01*
X121793Y20320D02*
Y22225D01*
X124333Y20320D02*
Y22225D01*
Y24384D02*
Y26289D01*
X121793Y24384D02*
Y26289D01*
Y20320D02*
X124333D01*
X121793Y26289D02*
X124333D01*
X121412Y37973D02*
X123317D01*
X121412Y35433D02*
X123317D01*
X125476D02*
X127381D01*
X125476Y37973D02*
X127381D01*
X121412Y35433D02*
Y37973D01*
X127381Y35433D02*
Y37973D01*
X73025Y20447D02*
Y22352D01*
X75565Y20447D02*
Y22352D01*
Y24511D02*
Y26416D01*
X73025Y24511D02*
Y26416D01*
Y20447D02*
X75565D01*
X73025Y26416D02*
X75565D01*
X72771Y37973D02*
X74676D01*
X72771Y35433D02*
X74676D01*
X76835D02*
X78740D01*
X76835Y37973D02*
X78740D01*
X72771Y35433D02*
Y37973D01*
X78740Y35433D02*
Y37973D01*
X22606Y20447D02*
Y22352D01*
X25146Y20447D02*
Y22352D01*
Y24511D02*
Y26416D01*
X22606Y24511D02*
Y26416D01*
Y20447D02*
X25146D01*
X22606Y26416D02*
X25146D01*
X21971Y37465D02*
X23876D01*
X21971Y34925D02*
X23876D01*
X26035D02*
X27940D01*
X26035Y37465D02*
X27940D01*
X21971Y34925D02*
Y37465D01*
X27940Y34925D02*
Y37465D01*
X124841Y31369D02*
X126746D01*
X124841Y29083D02*
X126746D01*
X127762D02*
X129667D01*
X127762Y31369D02*
X129667D01*
X124841Y29083D02*
Y31369D01*
X129667Y29083D02*
Y31369D01*
X143129Y11176D02*
Y13081D01*
X145415Y11176D02*
Y13081D01*
Y14097D02*
Y16002D01*
X143129Y14097D02*
Y16002D01*
Y11176D02*
X145415D01*
X143129Y16002D02*
X145415D01*
X143637Y17780D02*
X145542D01*
X143637Y20066D02*
X145542D01*
X140716D02*
X142621D01*
X140716Y17780D02*
X142621D01*
X145542D02*
Y20066D01*
X140716Y17780D02*
Y20066D01*
X145923Y41529D02*
X151003D01*
Y51689D01*
X145923D02*
X148463D01*
X145923Y41529D02*
Y51689D01*
X148184D02*
X151003D01*
X94996Y18034D02*
X96901D01*
X94996Y20320D02*
X96901D01*
X92075D02*
X93980D01*
X92075Y18034D02*
X93980D01*
X96901D02*
Y20320D01*
X92075Y18034D02*
Y20320D01*
X94488Y11176D02*
Y13081D01*
X96774Y11176D02*
Y13081D01*
Y14097D02*
Y16002D01*
X94488Y14097D02*
Y16002D01*
Y11176D02*
X96774D01*
X94488Y16002D02*
X96774D01*
X69850Y35433D02*
Y37338D01*
X72136Y35433D02*
Y37338D01*
Y38354D02*
Y40259D01*
X69850Y38354D02*
Y40259D01*
Y35433D02*
X72136D01*
X69850Y40259D02*
X72136D01*
X76200Y31496D02*
X78105D01*
X76200Y29210D02*
X78105D01*
X79121D02*
X81026D01*
X79121Y31496D02*
X81026D01*
X76200Y29210D02*
Y31496D01*
X81026Y29210D02*
Y31496D01*
X94869Y41529D02*
X99949D01*
Y51689D01*
X94869D02*
X97409D01*
X94869Y41529D02*
Y51689D01*
X97130D02*
X99949D01*
X43434Y41656D02*
X48514D01*
Y51816D01*
X43434D02*
X45974D01*
X43434Y41656D02*
Y51816D01*
X45695D02*
X48514D01*
X25400Y31369D02*
X27305D01*
X25400Y29083D02*
X27305D01*
X28321D02*
X30226D01*
X28321Y31369D02*
X30226D01*
X25400Y29083D02*
Y31369D01*
X30226Y29083D02*
Y31369D01*
X19050Y34925D02*
Y36830D01*
X21336Y34925D02*
Y36830D01*
Y37846D02*
Y39751D01*
X19050Y37846D02*
Y39751D01*
Y34925D02*
X21336D01*
X19050Y39751D02*
X21336D01*
X19050Y23876D02*
Y25781D01*
X21336Y23876D02*
Y25781D01*
Y26797D02*
Y28702D01*
X19050Y26797D02*
Y28702D01*
Y23876D02*
X21336D01*
X19050Y28702D02*
X21336D01*
X182118Y65024D02*
X184023D01*
X182118Y67310D02*
X184023D01*
X179197D02*
X181102D01*
X179197Y65024D02*
X181102D01*
X184023D02*
Y67310D01*
X179197Y65024D02*
Y67310D01*
X182118Y60960D02*
X184023D01*
X182118Y63246D02*
X184023D01*
X179197D02*
X181102D01*
X179197Y60960D02*
X181102D01*
X184023D02*
Y63246D01*
X179197Y60960D02*
Y63246D01*
X43180Y11684D02*
Y13589D01*
X45466Y11684D02*
Y13589D01*
Y14605D02*
Y16510D01*
X43180Y14605D02*
Y16510D01*
Y11684D02*
X45466D01*
X43180Y16510D02*
X45466D01*
X43688Y17907D02*
X45593D01*
X43688Y20193D02*
X45593D01*
X40767D02*
X42672D01*
X40767Y17907D02*
X42672D01*
X45593D02*
Y20193D01*
X40767Y17907D02*
Y20193D01*
X43180Y21590D02*
Y23495D01*
X45466Y21590D02*
Y23495D01*
Y24511D02*
Y26416D01*
X43180Y24511D02*
Y26416D01*
Y21590D02*
X45466D01*
X43180Y26416D02*
X45466D01*
X39243Y45720D02*
Y47625D01*
X41529Y45720D02*
Y47625D01*
Y48641D02*
Y50546D01*
X39243Y48641D02*
Y50546D01*
Y45720D02*
X41529D01*
X39243Y50546D02*
X41529D01*
X94488Y21590D02*
Y23495D01*
X96774Y21590D02*
Y23495D01*
Y24511D02*
Y26416D01*
X94488Y24511D02*
Y26416D01*
Y21590D02*
X96774D01*
X94488Y26416D02*
X96774D01*
X69850Y23876D02*
Y25781D01*
X72136Y23876D02*
Y25781D01*
Y26797D02*
Y28702D01*
X69850Y26797D02*
Y28702D01*
Y23876D02*
X72136D01*
X69850Y28702D02*
X72136D01*
X89789Y45593D02*
Y47498D01*
X92075Y45593D02*
Y47498D01*
Y48514D02*
Y50419D01*
X89789Y48514D02*
Y50419D01*
Y45593D02*
X92075D01*
X89789Y50419D02*
X92075D01*
X143129Y21590D02*
Y23495D01*
X145415Y21590D02*
Y23495D01*
Y24511D02*
Y26416D01*
X143129Y24511D02*
Y26416D01*
Y21590D02*
X145415D01*
X143129Y26416D02*
X145415D01*
X118237Y23749D02*
Y25654D01*
X120523Y23749D02*
Y25654D01*
Y26670D02*
Y28575D01*
X118237Y26670D02*
Y28575D01*
Y23749D02*
X120523D01*
X118237Y28575D02*
X120523D01*
X118237Y35433D02*
Y37338D01*
X120523Y35433D02*
Y37338D01*
Y38354D02*
Y40259D01*
X118237Y38354D02*
Y40259D01*
Y35433D02*
X120523D01*
X118237Y40259D02*
X120523D01*
X141097Y45593D02*
Y47498D01*
X143383Y45593D02*
Y47498D01*
Y48514D02*
Y50419D01*
X141097Y48514D02*
Y50419D01*
Y45593D02*
X143383D01*
X141097Y50419D02*
X143383D01*
D16*
X34163Y26924D02*
Y26077D01*
X34332Y25908D01*
X34671D01*
X34840Y26077D01*
Y26924D01*
X35179Y25908D02*
X35517D01*
X35348D01*
Y26924D01*
X35179Y26754D01*
X36025Y25908D02*
X36364D01*
X36194D01*
Y26924D01*
X36025Y26754D01*
X85090Y26924D02*
Y26077D01*
X85259Y25908D01*
X85598D01*
X85767Y26077D01*
Y26924D01*
X86783Y25908D02*
X86106D01*
X86783Y26585D01*
Y26754D01*
X86614Y26924D01*
X86275D01*
X86106Y26754D01*
X87121Y25908D02*
X87460D01*
X87291D01*
Y26924D01*
X87121Y26754D01*
X133858Y26924D02*
Y26077D01*
X134027Y25908D01*
X134366D01*
X134535Y26077D01*
Y26924D01*
X134874Y26754D02*
X135043Y26924D01*
X135382D01*
X135551Y26754D01*
Y26585D01*
X135382Y26416D01*
X135212D01*
X135382D01*
X135551Y26247D01*
Y26077D01*
X135382Y25908D01*
X135043D01*
X134874Y26077D01*
X135889Y25908D02*
X136228D01*
X136059D01*
Y26924D01*
X135889Y26754D01*
M02*
