M48
;Layer_Color=9474304
;FILE_FORMAT=4:3
METRIC,LZ
;TYPE=PLATED
T1F00S00C0.711
T2F00S00C0.762
T3F00S00C0.813
T4F00S00C0.900
T5F00S00C1.016
T6F00S00C1.170
T7F00S00C1.300
T8F00S00C1.524
T9F00S00C2.110
T10F00S00C2.540
T11F00S00C2.794
%
T01
X0045974Y0044196
Y0046736
Y0049276
X0097409Y0049149
Y0046609
Y0044069
X0110109Y0023622
X0148463Y0044069
Y0046609
Y0049149
T02
X0057912Y00254
X0060452
X0062992
Y002794
X0060452
X0057912
Y003048
X0060452
X0062992
X0060071Y0043434
Y0048514
X0109728Y004953
Y004445
X0110109Y0028702
X0107569
Y0026162
X0110109
X0112649
Y0028702
Y0023622
X0107569
X0207391Y0041021
Y0046101
T03
X0057912Y0016764
X0060452
X0062992
X0107569Y0037338
X0110109
X0112649
T04
X0031877Y0022606
Y0025146
Y0027686
Y0030226
X0039497
Y0027686
Y0025146
Y0022606
X0082804
Y0025146
Y0027686
Y0030226
X0090424
Y0027686
Y0025146
Y0022606
X0131572
Y0025146
Y0027686
Y0030226
X0139192
Y0027686
Y0025146
Y0022606
T05
X0135763Y0060833
X0148463
X0123063
X0118043
X0097409
X0084709
X0072009
X0066989
X0046355
X0033655
X0020955
X0015935
T06
X0135763Y0007114
X0085597
X0035431
T07
X0174879Y003171
Y004191
X0195179Y004441
Y003931
Y003171
X0174879Y005211
T08
X0218186Y003683
X0222148
Y0050292
X0218186
T09
X0139063Y0003814
X0132463
X0088897
X0082297
X0038731
X0032131
Y0010414
X0038731
X0082297
X0088897
X0132463
X0139063
T10
X0060452Y0034544
X0110109Y0019558
T11
X022352Y000508
X000508
X022352Y007112
X000508
M30
