G04*
G04 #@! TF.GenerationSoftware,Altium Limited,Altium Designer,18.0.9 (584)*
G04*
G04 Layer_Color=128*
%FSLAX43Y43*%
%MOMM*%
G71*
G01*
G75*
%ADD10C,0.254*%
%ADD16C,0.178*%
%ADD19R,1.524X1.524*%
D10*
X127Y76073D02*
X127Y127D01*
X228473D01*
X228473Y76073D02*
X228473Y127D01*
X127Y76073D02*
X228473D01*
D16*
X34163Y26924D02*
Y26077D01*
X34332Y25908D01*
X34671D01*
X34840Y26077D01*
Y26924D01*
X35179Y25908D02*
X35517D01*
X35348D01*
Y26924D01*
X35179Y26754D01*
X36025Y25908D02*
X36364D01*
X36194D01*
Y26924D01*
X36025Y26754D01*
X85090Y26924D02*
Y26077D01*
X85259Y25908D01*
X85598D01*
X85767Y26077D01*
Y26924D01*
X86783Y25908D02*
X86106D01*
X86783Y26585D01*
Y26754D01*
X86614Y26924D01*
X86275D01*
X86106Y26754D01*
X87121Y25908D02*
X87460D01*
X87291D01*
Y26924D01*
X87121Y26754D01*
X133858Y26924D02*
Y26077D01*
X134027Y25908D01*
X134366D01*
X134535Y26077D01*
Y26924D01*
X134874Y26754D02*
X135043Y26924D01*
X135382D01*
X135551Y26754D01*
Y26585D01*
X135382Y26416D01*
X135212D01*
X135382D01*
X135551Y26247D01*
Y26077D01*
X135382Y25908D01*
X135043D01*
X134874Y26077D01*
X135889Y25908D02*
X136228D01*
X136059D01*
Y26924D01*
X135889Y26754D01*
D19*
X66675Y16637D02*
D03*
Y20066D02*
D03*
X123063Y70104D02*
D03*
Y66675D02*
D03*
X148463Y69850D02*
D03*
Y66421D02*
D03*
X127000Y19177D02*
D03*
Y22606D02*
D03*
X143383Y33655D02*
D03*
Y30226D02*
D03*
X71882Y69723D02*
D03*
Y66294D02*
D03*
X97282Y70358D02*
D03*
Y66929D02*
D03*
X78613Y19177D02*
D03*
Y22606D02*
D03*
X94361Y33655D02*
D03*
Y30226D02*
D03*
X20955Y68961D02*
D03*
Y65532D02*
D03*
X46228Y69342D02*
D03*
Y65913D02*
D03*
X28575Y19177D02*
D03*
Y22606D02*
D03*
X42799Y33655D02*
D03*
Y30226D02*
D03*
X60452Y10160D02*
D03*
Y13589D02*
D03*
X102997Y37338D02*
D03*
Y33909D02*
D03*
X112649Y43180D02*
D03*
Y39751D02*
D03*
X167386Y31750D02*
D03*
Y35179D02*
D03*
X167259Y48641D02*
D03*
Y52070D02*
D03*
X200025Y41021D02*
D03*
Y44450D02*
D03*
M02*
